<?xml version="1.0" encoding="utf-8"?>
<!-- Generator: Adobe Illustrator 22.0.1, SVG Export Plug-In . SVG Version: 6.00 Build 0)  -->
<svg version="1.1" id="Layer_1" xmlns="http://www.w3.org/2000/svg" xmlns:xlink="http://www.w3.org/1999/xlink" x="0px" y="0px"
	 viewBox="0 0 600 600" style="enable-background:new 0 0 600 600;" xml:space="preserve">
<style type="text/css">
	.st0{fill:#FFFFFF;}
	.st1{fill:#45B877;}
</style>
<g>
	<g>
		<path class="st0" d="M459.3,235.9L325.9,466.6c-47.1,81.5-151.7,109.5-233.2,62.3c-39.4-22.8-67.6-59.6-79.4-103.7
			c-11.8-44.1-5.8-90.1,17-129.5L163.7,65.1c7.6-13.2,21.5-20.5,35.7-20.5c7,0,14,1.8,20.5,5.5c19.6,11.4,26.3,36.6,15,56.2
			L101.5,336.9c-24.4,42.3-9.9,96.5,32.3,120.9c20.4,11.8,44.3,15,67.1,8.8c22.9-6.1,41.9-20.7,53.8-41.1l133.4-230.7
			c11.3-19.6,36.5-26.4,56.2-15.1C463.9,191.1,470.6,216.3,459.3,235.9z"/>
	</g>
</g>
<g>
	<g>
		<path class="st1" d="M571.1,300.3L437.9,531c-11.3,19.6-36.5,26.4-56.2,15.1c-19.6-11.3-26.4-36.5-15.1-56.2l133.2-230.7
			c24.4-42.3,9.9-96.5-32.4-120.9c-13.6-7.9-28.7-11.9-44-11.9c-7.7,0-15.4,1-23.1,3.1c-22.8,6.1-41.9,20.7-53.7,41.1L213.5,401.5
			c-11.4,19.6-36.6,26.4-56.2,15.1c-9.5-5.5-16.3-14.4-19.1-25c-2.8-10.6-1.4-21.7,4.1-31.2l133.2-230.8
			c22.7-39.4,59.6-67.6,103.7-79.5c44.1-11.8,90.1-5.8,129.5,17c39.4,22.7,67.6,59.6,79.5,103.7
			C599.9,214.9,593.9,260.9,571.1,300.3z"/>
	</g>
</g>
</svg>
