<svg width="24" height="23" viewBox="0 0 24 23" fill="none" xmlns="http://www.w3.org/2000/svg">
<path fill-rule="evenodd" clip-rule="evenodd" d="M7.96372 10.12H2.15621C0.965361 10.12 0 9.15462 0 7.96377V2.15626C0 0.965409 0.965361 0 2.15626 0H7.96377C9.15462 0 10.12 0.965361 10.12 2.15626V7.96377C10.12 9.15462 9.15458 10.12 7.96372 10.12ZM1.76955 8.19103C1.50469 8.19103 1.28999 7.97628 1.28999 7.71147V6.60847C1.28999 6.34366 1.50469 6.12891 1.76955 6.12891C2.03441 6.12891 2.24911 6.34366 2.24911 6.60847V7.71147C2.24911 7.97628 2.03441 8.19103 1.76955 8.19103ZM1.29001 4.8341C1.29001 5.09891 1.50471 5.31366 1.76958 5.31366C2.03444 5.31366 2.24914 5.09891 2.24914 4.8341V2.58494C2.24914 2.39988 2.39972 2.24925 2.58483 2.24925H3.64467C3.90953 2.24925 4.12423 2.0345 4.12423 1.76969C4.12423 1.50487 3.90953 1.29012 3.64467 1.29012H2.58483C1.87086 1.29012 1.29001 1.87097 1.29001 2.58494V4.8341Z" fill="#283341"/>
<path d="M20.9587 10.12H15.1512C13.9603 10.12 12.9949 9.15467 12.9949 7.96377V2.15626C12.9949 0.965409 13.9603 0 15.1512 0H20.9587C22.1496 0 23.115 0.965361 23.115 2.15626V7.96377C23.115 9.15462 22.1496 10.12 20.9587 10.12Z" fill="#283341"/>
<path d="M7.96372 23H2.15621C0.965361 23 0 22.0346 0 20.8437V15.0362C0 13.8454 0.965361 12.88 2.15626 12.88H7.96377C9.15462 12.88 10.12 13.8453 10.12 15.0362V20.8437C10.12 22.0346 9.15458 23 7.96372 23Z" fill="#283341"/>
<path d="M20.9587 23H15.1512C13.9603 23 12.9949 22.0346 12.9949 20.8437V15.0362C12.9949 13.8454 13.9603 12.88 15.1512 12.88H20.9587C22.1496 12.88 23.115 13.8453 23.115 15.0362V20.8437C23.115 22.0346 22.1496 23 20.9587 23Z" fill="#283341"/>
</svg>
