<svg id="Capa_1" enable-background="new 0 0 511.354 511.354" height="512" viewBox="0 0 511.354 511.354" width="512" xmlns="http://www.w3.org/2000/svg"><g id="Outline_31_" fill="#013b95"><path d="m511.177 323.583c0-15.163-12.336-27.5-27.5-27.5-1.316 0-2.609.099-3.877.279-3.615-3.606-7.668-6.759-12.039-9.384 3.436-5.662 5.416-12.301 5.416-19.394v-12c0-15.6-9.577-29.001-23.159-34.644-4.715-14.212-14.475-26.287-27.255-33.964 3.435-5.662 5.414-12.3 5.414-19.392v-12c0-20.678-16.822-37.5-37.5-37.5s-37.5 16.822-37.5 37.5v12c0 7.083 1.975 13.712 5.401 19.369-4.744 2.84-9.085 6.294-12.921 10.285-3.811-3.955-8.144-7.409-12.894-10.262 3.435-5.662 5.414-12.3 5.414-19.392v-12c0-20.678-16.822-37.5-37.5-37.5s-37.5 16.822-37.5 37.5v12c0 7.092 1.98 13.73 5.414 19.392-4.75 2.853-9.084 6.307-12.894 10.262-3.836-3.991-8.177-7.445-12.921-10.285 3.426-5.657 5.401-12.286 5.401-19.369v-12c0-20.678-16.822-37.5-37.5-37.5s-37.5 16.822-37.5 37.5v12c0 7.092 1.98 13.73 5.414 19.392-4.75 2.853-9.084 6.307-12.894 10.262-3.836-3.991-8.177-7.445-12.921-10.285 3.426-5.657 5.401-12.286 5.401-19.369v-12c0-20.678-16.822-37.5-37.5-37.5s-37.5 16.822-37.5 37.5v12c0 7.092 1.98 13.73 5.414 19.392-12.781 7.677-22.54 19.752-27.255 33.964-13.582 5.643-23.159 19.044-23.159 34.644v12c0 7.093 1.98 13.732 5.416 19.394-4.371 2.625-8.424 5.778-12.039 9.384-1.267-.18-2.56-.279-3.877-.279-15.164 0-27.5 12.337-27.5 27.5 0 7.875 3.332 14.982 8.655 20-5.323 5.018-8.655 12.125-8.655 20v147.5h511v-147.5c0-7.875-3.332-14.982-8.655-20 5.323-5.019 8.655-12.126 8.655-20zm-471 172.5h-25v-132.5c0-6.893 5.607-12.5 12.5-12.5s12.5 5.607 12.5 12.5zm-12.5-160c-6.893 0-12.5-5.607-12.5-12.5s5.607-12.5 12.5-12.5 12.5 5.607 12.5 12.5-5.607 12.5-12.5 12.5zm430.5-80.5v12c0 12.406-10.093 22.5-22.5 22.5s-22.5-10.094-22.5-22.5v-12c0-12.406 10.093-22.5 22.5-22.5s22.5 10.093 22.5 22.5zm-90-100c0-12.406 10.093-22.5 22.5-22.5s22.5 10.094 22.5 22.5v12c0 12.406-10.093 22.5-22.5 22.5s-22.5-10.094-22.5-22.5zm.966 42.672c6.099 4.295 13.525 6.828 21.535 6.828 8.009 0 15.433-2.532 21.531-6.825 8.695 4.439 15.817 11.449 20.381 19.963-19.237 1.577-34.412 17.725-34.412 37.363v12c0 7.083 1.975 13.712 5.401 19.369-4.721 2.826-9.044 6.262-12.867 10.229-3.795-3.928-8.128-7.381-12.929-10.241 3.422-5.654 5.394-12.279 5.394-19.357v-12c0-15.6-9.577-29.001-23.159-34.644-1.333-4.019-3.082-7.86-5.177-11.488 4.013-4.626 8.852-8.423 14.302-11.197zm-59.244 111.13c4.001-4.595 8.82-8.37 14.244-11.13 6.099 4.295 13.525 6.828 21.535 6.828 8.016 0 15.447-2.537 21.549-6.838 15.891 8.063 25.951 24.256 25.951 42.338v15.5h-75v-15.5c-.001-11.242-2.956-21.93-8.279-31.198zm35.778-76.302c12.407 0 22.5 10.094 22.5 22.5v12c0 12.406-10.093 22.5-22.5 22.5s-22.5-10.094-22.5-22.5v-12c0-12.407 10.094-22.5 22.5-22.5zm-67.5-77.5c0-12.406 10.093-22.5 22.5-22.5s22.5 10.094 22.5 22.5v12c0 12.406-10.093 22.5-22.5 22.5s-22.5-10.094-22.5-22.5zm.969 42.674c6.099 4.294 13.523 6.825 21.531 6.825s15.433-2.532 21.531-6.825c8.695 4.439 15.817 11.449 20.381 19.963-19.237 1.577-34.412 17.725-34.412 37.363v12c0 7.083 1.975 13.712 5.401 19.369-4.721 2.826-9.044 6.262-12.867 10.229-3.795-3.928-8.128-7.381-12.929-10.241 3.422-5.654 5.394-12.279 5.394-19.357v-12c0-19.637-15.175-35.786-34.412-37.363 4.565-8.514 11.686-15.523 20.382-19.963zm24.031 142.326v15.5h-95v-15.5c0-18.082 10.06-34.275 25.951-42.338 6.102 4.301 13.532 6.838 21.549 6.838s15.447-2.537 21.549-6.838c15.891 8.063 25.951 24.256 25.951 42.338zm-47.5-107.5c12.407 0 22.5 10.094 22.5 22.5v12c0 12.406-10.093 22.5-22.5 22.5s-22.5-10.094-22.5-22.5v-12c0-12.407 10.094-22.5 22.5-22.5zm-67.5-77.5c0-12.406 10.093-22.5 22.5-22.5s22.5 10.094 22.5 22.5v12c0 12.406-10.093 22.5-22.5 22.5s-22.5-10.094-22.5-22.5zm.969 42.674c6.099 4.294 13.523 6.825 21.531 6.825 8.01 0 15.435-2.533 21.535-6.828 5.45 2.774 10.289 6.571 14.301 11.196-2.094 3.628-3.843 7.469-5.177 11.488-13.582 5.643-23.159 19.044-23.159 34.644v12c0 7.078 1.972 13.703 5.394 19.357-4.801 2.861-9.134 6.314-12.929 10.241-3.823-3.967-8.145-7.403-12.867-10.229 3.426-5.657 5.401-12.286 5.401-19.369v-12c0-19.637-15.175-35.786-34.412-37.363 4.565-8.513 11.686-15.522 20.382-19.962zm12.31 111.128c-5.323 9.267-8.278 19.955-8.278 31.197v15.5h-75v-15.5c0-18.082 10.06-34.275 25.951-42.338 6.102 4.301 13.532 6.838 21.549 6.838 8.01 0 15.435-2.533 21.535-6.828 5.423 2.762 10.242 6.536 14.243 11.131zm-35.779-76.302c12.407 0 22.5 10.094 22.5 22.5v12c0 12.406-10.093 22.5-22.5 22.5s-22.5-10.094-22.5-22.5v-12c0-12.407 10.094-22.5 22.5-22.5zm-67.5-77.5c0-12.406 10.093-22.5 22.5-22.5s22.5 10.094 22.5 22.5v12c0 12.406-10.093 22.5-22.5 22.5s-22.5-10.094-22.5-22.5zm.969 42.674c6.099 4.294 13.523 6.825 21.531 6.825 8.01 0 15.435-2.533 21.535-6.828 5.45 2.774 10.289 6.571 14.301 11.196-2.094 3.628-3.843 7.469-5.177 11.488-13.582 5.643-23.159 19.044-23.159 34.644v12c0 7.078 1.972 13.703 5.394 19.357-4.801 2.861-9.134 6.314-12.929 10.241-3.823-3.967-8.145-7.403-12.867-10.229 3.426-5.657 5.401-12.286 5.401-19.369v-12c0-19.637-15.175-35.786-34.412-37.363 4.565-8.513 11.686-15.522 20.382-19.962zm-45.969 57.326c0-12.406 10.093-22.5 22.5-22.5s22.5 10.094 22.5 22.5v12c0 12.406-10.093 22.5-22.5 22.5s-22.5-10.094-22.5-22.5zm.952 100.5c-1.375-4.84-4.042-9.139-7.607-12.5 5.323-5.018 8.655-12.125 8.655-20 0-8.01-3.444-15.229-8.928-20.26 2.459-1.945 5.109-3.64 7.897-5.064 6.098 4.293 13.522 6.825 21.53 6.825 8.01 0 15.435-2.533 21.535-6.828 5.424 2.761 10.243 6.535 14.244 11.13-5.323 9.267-8.278 19.955-8.278 31.197v15.5zm402.048 140h-401v-125h401zm8.655-152.5c-3.565 3.361-6.232 7.66-7.607 12.5h-49.048v-15.5c0-11.242-2.956-21.93-8.278-31.197 4.001-4.595 8.82-8.37 14.244-11.13 6.099 4.295 13.525 6.828 21.535 6.828 8.008 0 15.432-2.531 21.53-6.825 2.788 1.425 5.438 3.119 7.897 5.064-5.483 5.031-8.928 12.25-8.928 20.26 0 7.874 3.333 14.981 8.655 20zm31.345 152.5h-25v-132.5c0-6.893 5.607-12.5 12.5-12.5s12.5 5.607 12.5 12.5zm-12.5-160c-6.893 0-12.5-5.607-12.5-12.5s5.607-12.5 12.5-12.5 12.5 5.607 12.5 12.5-5.607 12.5-12.5 12.5z"/><path d="m442.677 456.083h-26.5v-15h26.5v-15h-26.5v-15h26.5v-15h-41.5v75h41.5z"/><path d="m387.177 433.583c0-20.678-16.822-37.5-37.5-37.5h-15.5v75h15.5c20.678 0 37.5-16.823 37.5-37.5zm-38-22.5h.5c12.407 0 22.5 10.094 22.5 22.5s-10.093 22.5-22.5 22.5h-.5z"/><path d="m84.177 445.083h11.5c13.509 0 24.5-10.99 24.5-24.5s-10.991-24.5-24.5-24.5h-26.5v75.5h15zm0-34h11.5c5.238 0 9.5 4.262 9.5 9.5s-4.262 9.5-9.5 9.5h-11.5z"/><path d="m149.177 457.083h23v14.5h15v-49c0-14.612-11.888-26.5-26.5-26.5s-26.5 11.888-26.5 26.5v49h15zm0-34.5c0-6.341 5.159-11.5 11.5-11.5s11.5 5.159 11.5 11.5v19.5h-23z"/><path d="m282.177 457.083h23v14.5h15v-49c0-14.612-11.888-26.5-26.5-26.5s-26.5 11.888-26.5 26.5v49h15zm0-34.5c0-6.341 5.159-11.5 11.5-11.5s11.5 5.159 11.5 11.5v19.5h-23z"/><path d="m216.177 445.083h9.906l3.552 2.791c3.521 2.767 5.542 6.923 5.542 11.401v12.308h15v-12.308c0-7.279-2.629-14.134-7.337-19.469 5.681-4.491 9.337-11.436 9.337-19.223 0-13.51-10.991-24.5-24.5-24.5h-26.5v75.5h15zm0-34h11.5c5.238 0 9.5 4.262 9.5 9.5s-4.262 9.5-9.5 9.5h-11.5z"/><path d="m31.79 87.433 35.002-16.243 29.408 24.98 8.844-65.181c8.601.928 17.649 1.819 27.098 2.651l-4.399 64.972 33.831-18.559 31.021 22.948 4.412-65.155c8.527.357 17.256.645 26.171.853v65.587l32.5-20.8 32.5 20.8v-65.586c8.915-.208 17.644-.496 26.171-.853l4.412 65.155 31.021-22.948 33.831 18.559-4.399-64.972c9.449-.832 18.497-1.723 27.098-2.651l8.844 65.181 29.409-24.98 35.001 16.243-8.823-65.035c25.644-4.126 40.226-7.417 40.614-7.506l-3.354-14.62c-1.039.238-105.594 23.811-252.324 23.811s-251.286-23.574-252.325-23.812l-3.354 14.62c.387.089 14.97 3.38 40.614 7.506zm424.123-62.751 5.103 37.606-18.847-8.745-15.835 13.45-5.114-37.696c12.766-1.521 24.368-3.093 34.693-4.615zm-91.652 10.195 2.532 37.402-18.216-9.992-16.704 12.356-2.539-37.503c12.109-.635 23.769-1.401 34.927-2.263zm-126.084 4.091c5.766.073 11.596.115 17.5.115s11.734-.042 17.5-.115v37.91l-17.5-11.2-17.5 11.2zm-91.084-4.091c11.158.862 22.819 1.628 34.927 2.263l-2.539 37.503-16.704-12.356-18.216 9.992zm-91.651-10.195c10.325 1.522 21.927 3.094 34.694 4.615l-5.114 37.696-15.835-13.45-18.847 8.745z"/></g></svg>