<svg width="23" height="23" viewBox="0 0 23 23" fill="none" xmlns="http://www.w3.org/2000/svg">
<path d="M22.9959 7.66666H0V8.62499C0 9.13332 0.201934 9.62083 0.561379 9.98028C0.920823 10.3397 1.40833 10.5417 1.91667 10.5417H4.79167C5.3 10.5417 5.78751 10.3397 6.14695 9.98028C6.5064 9.62083 6.70833 9.13332 6.70833 8.62499C6.70833 9.13332 6.91027 9.62083 7.26971 9.98028C7.62916 10.3397 8.11667 10.5417 8.625 10.5417H14.375C14.8833 10.5417 15.3708 10.3397 15.7303 9.98028C16.0897 9.62083 16.2917 9.13332 16.2917 8.62499C16.2917 9.13332 16.4936 9.62083 16.853 9.98028C17.2125 10.3397 17.7 10.5417 18.2083 10.5417H21.0833C21.5917 10.5417 22.0792 10.3397 22.4386 9.98028C22.7981 9.62083 23 9.13332 23 8.62499V7.66666H22.9959Z" fill="#283341"/>
<path d="M22.7645 6.70833L21.0464 0.694792C20.9892 0.494603 20.8683 0.318508 20.702 0.193149C20.5358 0.0677907 20.3332 -1.16115e-05 20.125 1.49153e-09L15.7356 1.49153e-09L17.0773 6.70833H22.7645Z" fill="#283341"/>
<path d="M7.26443 1.49153e-09H2.87502C2.66681 -1.16115e-05 2.46425 0.0677907 2.298 0.193149C2.13175 0.318508 2.01085 0.494603 1.95359 0.694792L0.235535 6.70833H5.92276L7.26443 1.49153e-09Z" fill="#283341"/>
<path d="M13.7811 0H9.21892L7.87726 6.70833H15.1227L13.7811 0Z" fill="#283341"/>
<path d="M18.2083 11.5C17.5007 11.5006 16.8179 11.2392 16.2916 10.7662C15.7654 11.2392 15.0826 11.5006 14.375 11.5H8.62498C7.91737 11.5006 7.2346 11.2392 6.70831 10.7662C6.18203 11.2392 5.49926 11.5006 4.79165 11.5H1.91665C1.58996 11.4993 1.26582 11.4426 0.958313 11.3323V22.0417C0.958313 22.2958 1.05928 22.5396 1.239 22.7193C1.41872 22.8991 1.66248 23 1.91665 23H3.83331V14.375C3.83331 14.1209 3.93428 13.8771 4.114 13.6974C4.29373 13.5177 4.53748 13.4167 4.79165 13.4167H9.58331C9.83748 13.4167 10.0812 13.5177 10.261 13.6974C10.4407 13.8771 10.5416 14.1209 10.5416 14.375V23H21.0833C21.3375 23 21.5812 22.8991 21.761 22.7193C21.9407 22.5396 22.0416 22.2958 22.0416 22.0417V11.3323C21.7341 11.4426 21.41 11.4993 21.0833 11.5H18.2083ZM19.1666 17.25C19.1666 17.5042 19.0657 17.7479 18.886 17.9277C18.7062 18.1074 18.4625 18.2084 18.2083 18.2084H13.4166C13.1625 18.2084 12.9187 18.1074 12.739 17.9277C12.5593 17.7479 12.4583 17.5042 12.4583 17.25V14.375C12.4583 14.1209 12.5593 13.8771 12.739 13.6974C12.9187 13.5177 13.1625 13.4167 13.4166 13.4167H18.2083C18.4625 13.4167 18.7062 13.5177 18.886 13.6974C19.0657 13.8771 19.1666 14.1209 19.1666 14.375V17.25Z" fill="#283341"/>
</svg>
