<svg width="110" height="111" viewBox="0 0 110 111" fill="none" xmlns="http://www.w3.org/2000/svg">
<path d="M100.833 55.6738C100.833 30.368 80.3131 9.85364 55.0001 9.85364C29.687 9.85364 9.16675 30.368 9.16675 55.6738C9.16675 78.5436 25.9273 97.4998 47.8386 100.937V68.9186H36.2013V55.6738H47.8386V45.5789C47.8386 34.0953 54.6813 27.7521 65.1506 27.7521C70.1654 27.7521 75.4101 28.647 75.4101 28.647V39.9231H69.631C63.9376 39.9231 62.1615 43.4554 62.1615 47.0788V55.6738H74.8732L72.8412 68.9186H62.1615V100.937C84.0729 97.4998 100.833 78.5436 100.833 55.6738Z" fill="#1877F2"/>
<path d="M72.841 68.9186L74.8731 55.6738H62.1614V47.0789C62.1614 43.4554 63.9374 39.9231 69.6309 39.9231H75.41V28.647C75.41 28.647 70.1653 27.7521 65.1504 27.7521C54.6812 27.7521 47.8385 34.0955 47.8385 45.5792V55.6738H36.2012V68.9186H47.8385V100.937C50.1723 101.303 52.5632 101.494 54.9999 101.494C57.4367 101.494 59.8276 101.303 62.1614 100.937V68.9186H72.841Z" fill="white"/>
</svg>
