<svg id="Layer_1" data-name="Layer 1" xmlns="http://www.w3.org/2000/svg" viewBox="0 0 91.67 91.08"><defs><style>.cls-1{fill:#1877f2;}.cls-2{fill:#fff;}</style></defs><title>facebook_colored</title><path class="cls-1" d="M91.67,45.82a45.84,45.84,0,1,0-53,45.26v-32H27V45.82H38.67V35.73C38.67,24.24,45.51,17.9,56,17.9a70.79,70.79,0,0,1,10.26.89V30.07H60.46c-5.69,0-7.47,3.53-7.47,7.16v8.59H65.71l-2,13.24H53v32A45.83,45.83,0,0,0,91.67,45.82Z"/><path class="cls-2" d="M63.67,59.06l2-13.24H53V37.23c0-3.63,1.78-7.16,7.47-7.16h5.78V18.79A70.79,70.79,0,0,0,56,17.9c-10.47,0-17.31,6.34-17.31,17.83V45.82H27V59.06H38.67v32a46.05,46.05,0,0,0,14.32,0v-32Z"/></svg>