<svg id="Layer_1" data-name="Layer 1" xmlns="http://www.w3.org/2000/svg" viewBox="0 0 394.32 364.81"><defs><style>.cls-1{fill:#5e56a4;}.cls-2{fill:#fad607;}.cls-3{fill:#fff;}</style></defs><title>Artboard 2</title><path class="cls-1" d="M197,364.81H81.53c-40.71,0-76.85-32.16-81.35-72.45A58.54,58.54,0,0,1,0,285.87q0-75.26,0-150.49c0-39,30.24-74,68.94-79.33,15.36-2.11,30.9-1.79,46.38-2a79.28,79.28,0,0,0,32.81-7.25C180.88,31.56,213.88,16.88,246.77,2c4.81-2.18,9.56-3.09,14.16.25s4.78,8,4,13.05c-1.41,9.53-2.84,19.07-4.11,28.62-.9,6.74,2,10,8.84,10.15,14.32.33,28.64.75,43,.88a82.38,82.38,0,0,1,80.59,70.78,113.24,113.24,0,0,1,1.07,15.92q0,68.24,0,136.48c0,46.85-29.94,80.83-76.33,86.55a45.65,45.65,0,0,1-5.49.17Zm-7.44-177A18.37,18.37,0,0,0,171,206.5q-.09,29.25,0,58.49c0,14.76,14.75,23.89,27.66,16.77q26.07-14.38,51.6-29.74c12.65-7.6,12.3-24.89-.46-32.42-16.54-9.76-33.24-19.23-49.85-28.86A19.22,19.22,0,0,0,189.57,187.85ZM116,165.14a20.64,20.64,0,1,0,20.58-20.82A20.83,20.83,0,0,0,116,165.14Zm160.12-14.58c.23-3.31-1.45-6-4.51-7.88a8.53,8.53,0,0,0-9.84.47c-7.09,4.92-14.2,9.81-21.17,14.89-6.4,4.67-6.28,11.33.21,16s13,9.17,19.58,13.7c5.46,3.78,10.77,3.31,14.07-1.18s2-9.66-3.33-13.69c-3.11-2.37-8.88-3.9-8.69-7.13.16-2.52,5.78-4.76,9-7C274.19,156.8,276.06,154.46,276.08,150.56Z"/><path class="cls-2" d="M189.57,187.85a19.22,19.22,0,0,1,10.4,2.89c16.61,9.63,33.31,19.1,49.85,28.86,12.76,7.53,13.11,24.82.46,32.42q-25.51,15.35-51.6,29.74c-12.91,7.12-27.63-2-27.66-16.77q-.06-29.24,0-58.49A18.37,18.37,0,0,1,189.57,187.85Z"/><path class="cls-3" d="M116,165.14a20.64,20.64,0,1,1,41.28-.13,20.64,20.64,0,1,1-41.28.13Z"/><path class="cls-3" d="M276.08,150.56c0,3.9-1.89,6.24-4.64,8.14-3.26,2.27-8.88,4.51-9,7-.19,3.23,5.58,4.76,8.69,7.13,5.3,4,6.64,9.22,3.33,13.69s-8.61,5-14.07,1.18c-6.55-4.53-13.11-9-19.58-13.7s-6.61-11.32-.21-16c7-5.08,14.08-10,21.17-14.89a8.53,8.53,0,0,1,9.84-.47C274.63,144.53,276.31,147.25,276.08,150.56Z"/></svg>