<svg xmlns="http://www.w3.org/2000/svg" xmlns:xlink="http://www.w3.org/1999/xlink" xmlns:fi="http://pattern.flaticon.com/" x="0" y="0" width="1400" height="700" viewBox="0 0 1400 700"><rect x="0px" y="0px" width="100%" height="100%" opacity="1" fill="#ffffff"/><defs><g transform="matrix(-0.07413481568970544 0.08896177435244505 -0.08896177435244505 -0.07413481568970544 317.7507366286415 159.99512667899424)" id="L1_0"><path d="m139.578125 137.199219c-43.398437 0-80.648437 26.316406-96.675781 63.859375h15.367187c7.742188 0 14.023438 6.28125 14.023438 14.023437v54.378907c0 7.742187-6.28125 14.019531-14.023438 14.019531h-15.367187c16.027344 37.546875 53.277344 63.859375 96.675781 63.859375 58.03125 0 105.070313-47.039063 105.070313-105.070313 0-58.027343-47.039063-105.070312-105.070313-105.070312zm0 0" fill="#fddf7f"/><path d="m172.289062 287.429688c0 10.289062-8.339843 18.628906-18.628906 18.628906-10.289062 0-18.632812-8.339844-18.632812-18.628906 0-10.289063 8.34375-18.632813 18.632812-18.632813 10.289063 0 18.628906 8.34375 18.628906 18.632813zm0 0" fill="#ecf4f7"/><path d="m253.75 201.058594h-17.492188c5.398438 12.65625 8.390626 26.582031 8.390626 41.210937 0 14.628907-2.992188 28.558594-8.390626 41.210938h17.492188c7.742188 0 14.019531-6.277344 14.019531-14.019531v-54.378907c0-7.742187-6.277343-14.023437-14.019531-14.023437zm0 0" fill="#aab1ba"/><path d="m58.269531 201.058594h-33.183593c-7.746094 0-14.023438 6.28125-14.023438 14.023437v54.378907c0 7.742187 6.277344 14.019531 14.023438 14.019531h33.183593c7.742188 0 14.023438-6.277344 14.023438-14.019531v-54.378907c0-7.742187-6.28125-14.023437-14.023438-14.023437zm0 0" fill="#aab1ba"/><path d="m219.640625 330.472656h-22.953125c-16.441406 10.667969-36.050781 16.867188-57.109375 16.867188-21.054687 0-40.664063-6.199219-57.105469-16.867188h-26.601562c-28.027344 0-50.75 22.722656-50.75 50.753906v125.652344h265.269531v-125.652344c0-28.027343-22.722656-50.753906-50.75-50.753906zm0 0" fill="#83e1e5"/><path d="m412.105469 230.796875h-8.03125v-101.792969c0-8.964844-7.265625-16.230468-16.226563-16.230468h-63.238281c-8.964844 0-16.230469 7.269531-16.230469 16.230468v101.792969h-8.03125c-2.167968 0-3.925781 1.757813-3.925781 3.921875v16.109375c0 2.167969 1.757813 3.921875 3.925781 3.921875h111.757813c2.167969 0 3.925781-1.753906 3.925781-3.921875v-16.109375c0-2.164062-1.757812-3.921875-3.925781-3.921875zm0 0" fill="#ecf4f7"/><path d="m366.238281 112.773438h-20.023437v-107.652344h20.023437zm0 0" fill="#aab1ba"/><path d="m371.105469 183.761719c0 8.21875-6.660157 14.878906-14.878907 14.878906-8.214843 0-14.878906-6.660156-14.878906-14.878906 0-8.214844 6.664063-14.878907 14.878906-14.878907 8.21875 0 14.878907 6.664063 14.878907 14.878907zm0 0" fill="#83e1e5"/><path d="m316.457031 254.75h79.539063v33.742188c0 21.964843-17.804688 39.769531-39.769532 39.769531-21.964843 0-39.769531-17.804688-39.769531-39.769531zm0 0" fill="#aab1ba"/><path d="m138.65625 16.929688c0-2.828126 2.292969-5.117188 5.121094-5.117188h6.691406v-6.691406c0-2.828125 2.292969-5.121094 5.121094-5.121094 2.824218 0 5.117187 2.292969 5.117187 5.121094v6.691406h6.691407c2.828124 0 5.121093 2.289062 5.121093 5.117188 0 2.828124-2.292969 5.121093-5.121093 5.121093h-6.691407v6.691407c0 2.828124-2.292969 5.121093-5.117187 5.121093-2.828125 0-5.121094-2.292969-5.121094-5.121093v-6.691407h-6.691406c-2.828125 0-5.121094-2.292969-5.121094-5.121093zm101.726562 66.066406h6.691407v6.691406c0 2.828125 2.292969 5.121094 5.121093 5.121094 2.828126 0 5.121094-2.292969 5.121094-5.121094v-6.691406h6.691406c2.824219 0 5.117188-2.289063 5.117188-5.117188s-2.292969-5.121094-5.117188-5.121094h-6.691406v-6.691406c0-2.828125-2.292968-5.121094-5.121094-5.121094-2.828124 0-5.121093 2.292969-5.121093 5.121094v6.691406h-6.691407c-2.828124 0-5.121093 2.292969-5.121093 5.121094s2.292969 5.117188 5.121093 5.117188zm-162.972656 297.054687c-2.824218 0-5.117187 2.289063-5.117187 5.117188v121.710937c0 2.828125 2.292969 5.121094 5.117187 5.121094 2.828125 0 5.121094-2.292969 5.121094-5.121094v-121.710937c0-2.828125-2.292969-5.117188-5.121094-5.117188zm147.238282 0c-2.828126 0-5.121094 2.289063-5.121094 5.117188v121.710937c0 2.828125 2.292968 5.121094 5.121094 5.121094 2.828124 0 5.121093-2.292969 5.121093-5.121094v-121.710937c0-2.828125-2.292969-5.117188-5.121093-5.117188zm196.503906-145.332031v16.109375c0 4.988281-4.058594 9.042969-9.046875 9.042969h-10.988281v9.890625h5.128906c2.828125 0 5.121094 2.292969 5.121094 5.121093 0 2.828126-2.292969 5.117188-5.121094 5.117188h-5.128906v8.492188c0 .632812-.023438 1.265624-.046876 1.894531h5.179688c2.828125 0 5.121094 2.289062 5.121094 5.117187s-2.292969 5.121094-5.121094 5.121094h-6.8125c-5.308594 18.875-22.664062 32.753906-43.210938 32.753906-20.546874 0-37.902343-13.878906-43.210937-32.753906h-6.804687c-2.828126 0-5.121094-2.292969-5.121094-5.121094s2.292968-5.117187 5.121094-5.117187h5.171874c-.023437-.628907-.046874-1.261719-.046874-1.894531v-8.492188h-5.128907c-2.828125 0-5.121093-2.289062-5.121093-5.117188 0-2.828124 2.292968-5.121093 5.121093-5.121093h5.128907v-9.890625h-10.988282c-4.988281 0-9.046875-4.054688-9.046875-9.042969v-16.109375c0-4.984375 4.058594-9.042969 9.046875-9.042969h2.910156v-96.671875c0-11.773437 9.578126-21.351562 21.347657-21.351562h16.488281v-102.53125c0-2.828125 2.292969-5.121094 5.121094-5.121094s5.121094 2.292969 5.121094 5.121094v102.535156h9.78125v-102.535156c0-2.828125 2.292968-5.121094 5.121093-5.121094s5.121094 2.292969 5.121094 5.121094v102.535156h16.488281c11.769532 0 21.347656 9.578125 21.347656 21.347656v96.671875h2.910157c4.988281 0 9.046875 4.058594 9.046875 9.042969zm-107.652344-9.042969h85.457031v-96.671875c0-6.125-4.984375-11.109375-11.109375-11.109375h-63.238281c-6.125 0-11.109375 4.980469-11.109375 11.109375zm77.378906 34.195313h-69.300781v9.890625h6.042969c2.828125 0 5.121094 2.292969 5.121094 5.121093 0 2.828126-2.292969 5.117188-5.121094 5.117188h-6.042969v8.492188c0 .636718.019531 1.265624.054687 1.894531h5.996094c2.824219 0 5.117188 2.289062 5.117188 5.117187s-2.292969 5.121094-5.117188 5.121094h-3.851562c4.925781 13.140625 17.613281 22.515625 32.449218 22.515625 14.839844 0 27.527344-9.378906 32.453126-22.515625h-3.84375c-2.824219 0-5.117188-2.292969-5.117188-5.121094s2.292969-5.117187 5.117188-5.117187h5.988281c.035156-.628907.054687-1.257813.054687-1.894531v-8.492188h-6.046875c-2.828125 0-5.121093-2.289062-5.121093-5.117188 0-2.828124 2.292968-5.121093 5.121093-5.121093h6.046875zm20.03125-23.953125h-109.367187v13.714843h109.367187zm-34.683594-52.15625c0 11.027343-8.972656 20-20 20-11.027343 0-19.996093-8.972657-19.996093-20 0-11.023438 8.96875-19.996094 19.996093-19.996094 11.027344 0 20 8.972656 20 19.996094zm-10.238281 0c0-5.378907-4.378906-9.757813-9.761719-9.757813-5.378906 0-9.757812 4.378906-9.757812 9.757813 0 5.382812 4.378906 9.761719 9.757812 9.761719 5.382813 0 9.761719-4.378907 9.761719-9.761719zm-188.578125 103.664062c0 13.097657-10.65625 23.753907-23.75 23.753907-13.097656 0-23.75-10.65625-23.75-23.753907 0-13.09375 10.652344-23.75 23.75-23.75 13.09375 0 23.75 10.65625 23.75 23.75zm-10.238281 0c0-7.449219-6.0625-13.507812-13.511719-13.507812-7.449218 0-13.511718 6.058593-13.511718 13.507812 0 7.453125 6.0625 13.511719 13.511718 13.511719 7.449219 0 13.511719-6.058594 13.511719-13.511719zm-161.226563-17.964843v-54.378907c0-10.554687 8.585938-19.140625 19.140626-19.140625h33.183593c10.554688 0 19.140625 8.585938 19.140625 19.140625v54.378907c0 10.554687-8.585937 19.140624-19.140625 19.140624h-33.183593c-10.554688 0-19.140626-8.585937-19.140626-19.140624zm50.378907-63.28125c.226562.429687.429687.875.625 1.320312.042969.105469.085937.207031.128906.308594.210937.511718.40625 1.03125.570313 1.5625.011718.035156.023437.074218.035156.113281.15625.511719.285156 1.03125.402344 1.558594.019531.101562.042968.199219.0625.296875.109374.542968.191406 1.09375.253906 1.648437.011718.113281.019531.226563.03125.335938.050781.582031.089844 1.164062.089844 1.757812v54.378907c0 .589843-.039063 1.175781-.089844 1.753906-.011719.113281-.019532.226562-.03125.335937-.0625.558594-.144532 1.109375-.253906 1.648438-.019532.101562-.042969.199219-.0625.300781-.117188.527344-.246094 1.046875-.402344 1.558594-.011719.039062-.023438.078125-.035156.113281-.164063.53125-.359376 1.050781-.570313 1.5625-.042969.101563-.085937.207031-.128906.308594-.195313.445312-.398438.890625-.625 1.320312h1.945312c4.90625 0 8.902344-3.996093 8.902344-8.902343v-54.378907c0-4.90625-3.996094-8.902343-8.902344-8.902343zm-40.140625 63.28125c0 4.90625 3.996094 8.902343 8.902344 8.902343h14.292968c4.910156 0 8.902344-3.996093 8.902344-8.902343v-54.378907c0-4.90625-3.992188-8.902343-8.902344-8.902343h-14.292968c-4.910157 0-8.902344 3.996093-8.902344 8.902343zm166.59375-48.046876c1.835937-2.796874 4.925781-4.46875 8.261718-4.46875 3.335938 0 6.421876 1.671876 8.261719 4.46875.980469 1.496094 2.617188 2.308594 4.28125 2.308594.964844 0 1.941407-.273437 2.808594-.84375 2.363281-1.550781 3.019531-4.726562 1.46875-7.089844-3.738281-5.6875-10.027344-9.082031-16.820313-9.082031-6.796874 0-13.085937 3.394531-16.820312 9.082031-1.554688 2.363282-.894531 5.539063 1.46875 7.089844 2.363281 1.554688 5.539062.894532 7.089844-1.464844zm-65.785156-14.710937c-6.792969 0-13.082032 3.398437-16.820313 9.085937-1.550781 2.363282-.894531 5.539063 1.46875 7.089844.867187.570313 1.84375.84375 2.808594.84375 1.664062 0 3.300781-.8125 4.28125-2.3125 1.839843-2.796875 4.925781-4.464844 8.261719-4.464844 3.335937 0 6.425781 1.667969 8.261718 4.464844 1.550782 2.363282 4.726563 3.023438 7.089844 1.46875 2.363281-1.550781 3.023438-4.726562 1.46875-7.089844-3.734375-5.6875-10.023438-9.085937-16.820312-9.085937zm202.183593 300.175781c0 2.828125-2.292969 5.121094-5.121093 5.121094h-60.964844c-2.828125 0-5.121094-2.292969-5.121094-5.121094s2.292969-5.117187 5.121094-5.117187h12.183594v-120.535157c0-25.160156-20.472657-45.632812-45.632813-45.632812h-21.457031c-7.328125 4.609375-15.125 8.296875-23.234375 11.042969-.03125.011719-.058594.023437-.089844.03125-.75.253906-1.507813.5-2.265625.738281-.289062.09375-.585938.179688-.878906.269531-1.007813.308594-2.023438.601563-3.042969.878907-.578125.160156-1.15625.320312-1.734375.46875-.515625.128906-1.03125.253906-1.546875.375-.625.152343-1.25.296874-1.878906.4375-.453125.101562-.90625.203124-1.359375.296874-1.042969.21875-2.089844.425782-3.140625.613282-.238281.042968-.472657.078125-.707031.117187-.910157.15625-1.828126.300781-2.742188.433594-.351562.050781-.699219.101563-1.046875.148437-.929687.128907-1.863281.242188-2.800781.34375-.21875.023438-.433594.054688-.648438.074219-1.144531.121094-2.292968.21875-3.445312.304688-.277344.019531-.558594.035156-.835938.050781-.90625.0625-1.820312.109375-2.730468.144531-.328126.011719-.652344.027344-.976563.039063-1.164063.035156-2.328125.058594-3.5.058594-1.253906 0-2.503906-.023438-3.75-.0625-.332031-.011719-.664063-.035157-.996094-.046876-.929687-.039062-1.859375-.085937-2.78125-.148437-.339843-.023437-.675781-.054687-1.015625-.078125-.933594-.074219-1.867187-.152344-2.796875-.246094-.289062-.03125-.574219-.0625-.859375-.097656-1.007812-.109375-2.011718-.230469-3.011718-.367188-.199219-.027343-.394532-.058593-.59375-.085937-1.132813-.164063-2.257813-.34375-3.378907-.539063-.0625-.007812-.125-.019531-.1875-.03125-14.085937-2.488281-27.414062-7.65625-39.332031-15.160156h-25.003906c-25.160156 0-45.632813 20.46875-45.632813 45.632813v125.648437c0 2.828125-2.292969 5.121094-5.117187 5.121094-2.828125 0-5.121094-2.292969-5.121094-5.121094v-125.652344c0-30.808593 25.0625-55.871093 55.871094-55.871093h11.265625c-7.886719-6.898438-14.863281-14.984375-20.664063-24.128907-1.515625-2.386718-.808594-5.550781 1.578125-7.066406 2.390625-1.515625 5.550781-.808594 7.066407 1.582032 7.804687 12.296874 17.953124 22.492187 29.664062 30.175781.160156.082031.324219.164062.476562.261719 11.113282 7.210937 23.460938 12.085937 36.382813 14.429687.019531.003906.039063.007813.058594.011719 1.074219.195312 2.152343.367187 3.234375.527344.191406.027343.386718.054687.578125.082031.914062.128906 1.832031.242187 2.753906.347656.285156.03125.570313.066406.859375.09375.839844.089844 1.683594.160156 2.527344.226563.332031.027343.664062.058593.996094.082031.839843.058593 1.683593.097656 2.523437.136719.320313.011718.636719.03125.953125.042968 1.148438.039063 2.300781.0625 3.453125.0625 1.082031 0 2.160156-.023437 3.238281-.058594.296875-.007812.589844-.019531.882813-.035156.882812-.035156 1.761719-.082031 2.640625-.140625.214844-.015625.429687-.023437.644531-.039062 1.054687-.078125 2.113281-.175781 3.164063-.285157.261718-.027343.519531-.0625.78125-.089843.824218-.09375 1.644531-.195313 2.460937-.3125.3125-.042969.621094-.082031.929687-.128907 1.003907-.148437 2-.308593 2.996094-.488281.292969-.050781.578125-.109375.867188-.167969.722656-.132812 1.4375-.277343 2.152344-.425781.4375-.09375.878906-.191406 1.316406-.289062.585937-.132813 1.167968-.273438 1.75-.417969.847656-.207031 1.691406-.425781 2.53125-.65625.394531-.105469.785156-.210938 1.175781-.324219.640625-.183593 1.277344-.371093 1.910156-.570312.214844-.066407.429688-.132813.648438-.203125 40.453125-12.796875 69.859375-50.6875 69.859375-95.320313 0-55.109375-44.839844-99.949219-99.949219-99.949219-35.152344 0-67.074219 17.941407-85.398437 47.988282-1.472657 2.414062-4.625 3.179687-7.039063 1.707031s-3.175781-4.621094-1.703125-7.039063c20.195312-33.121093 55.390625-52.894531 94.140625-52.894531 44.21875 0 82.429687 26.183594 99.960937 63.859375h14.207032c10.554687 0 19.144531 8.585938 19.144531 19.140625v54.378907c0 10.554687-8.589844 19.140624-19.144531 19.140624h-14.207032c-6.570312 14.125-16.046874 26.636719-27.660156 36.753907h7.761719c30.804687 0 55.871094 25.066406 55.871094 55.871093v120.535157h38.542969c2.828124 0 5.121093 2.289062 5.121093 5.117187zm-75.484375-300.699218c3.933594 11.3125 6.078125 23.457031 6.078125 36.089843 0 12.636719-2.144531 24.78125-6.078125 36.09375h10.058594c4.90625 0 8.902344-3.996093 8.902344-8.902343v-54.378907c0-4.90625-3.996094-8.902343-8.902344-8.902343zm94.421875 295.582031h-6.902343c-2.828126 0-5.121094 2.289062-5.121094 5.117187s2.292968 5.121094 5.121094 5.121094h6.902343c2.828125 0 5.121094-2.292969 5.121094-5.121094s-2.292969-5.117187-5.121094-5.117187zm0 0" fill="#1c1d21"/></g><g transform="matrix(0.052480587874625874 -0.12153397506386651 0.12153397506386651 0.052480587874625874 98.45221275993833 306.677607992638)" id="L1_1"><path d="m434.085938 292.183594h-82.789063c-3.902344 0-7.0625-3.160156-7.0625-7.0625v-90.613282c0-3.898437 3.160156-7.058593 7.0625-7.058593h82.832031v-72.378907h6.582032c6.539062 0 11.839843-5.300781 11.839843-11.84375v-29.25c0-6.539062-5.300781-11.839843-11.839843-11.839843h-369.417969c-6.539063 0-11.84375 5.300781-11.84375 11.839843v29.25c0 6.542969 5.304687 11.84375 11.84375 11.84375h6.578125v72.375h82.835937c3.902344 0 7.0625 3.164063 7.0625 7.0625v90.613282c0 3.902344-3.164062 7.0625-7.0625 7.0625h-82.789062l-.046875 214.695312h356.257812zm0 0" fill="#83e1e5"/><g fill="#ecf4f7"><path d="m270.308594 441.398438 32.714844-48.839844h-27.425782l-19.597656 28.230468-19.597656-28.230468h-27.425782l32.714844 48.839844-45.457031 65.480468h30.214844l29.550781-44.117187 29.550781 44.117187h30.21875zm0 0"/><path d="m84.570312 424.242188c-1.910156 2.070312-4.175781 3.804687-6.691406 5.125l-.007812.003906v-.003906c-3.398438 1.777343-7.261719 2.789062-11.363282 2.789062-4.105468 0-7.96875-1.011719-11.367187-2.792969l-.039063 77.515625h22.769532v-57.007812l.046875-.015625 37.972656 57.023437h26.46875zm0 0"/><path d="m456.898438 506.878906-.039063-77.511718c-3.398437 1.777343-7.261719 2.789062-11.367187 2.789062-4.101563 0-7.964844-1.011719-11.363282-2.789062v.015624l-.007812-.015624-.035156.039062v-.058594c.011718.003906.023437.011719.035156.019532-2.515625-1.320313-4.777344-3.054688-6.691406-5.125l-57.789063 82.636718h26.46875l37.976563-57.023437.042968-.035157v57.058594zm0 0"/><path d="m450.632812 288.300781c-1.527343 2.417969-4.1875 3.882813-7.046874 3.882813h-9.5l.042968 93.613281c3.398438-1.777344 7.261719-2.789063 11.363282-2.789063 4.117187 0 7.996093 1.019532 11.40625 2.808594v-107.429687zm0 0"/><path d="m68.414062 292.183594c-2.859374 0-5.519531-1.464844-7.046874-3.882813l-6.265626-9.914062v107.429687c3.410157-1.789062 7.289063-2.808594 11.40625-2.808594 4.101563 0 7.964844 1.011719 11.363282 2.789063l.042968-93.613281zm0 0"/></g><path d="m323.179688 392.558594h-134.359376c-2.882812 0-5.21875-2.335938-5.21875-5.21875v-24.679688c0-2.878906 2.335938-5.21875 5.21875-5.21875h134.359376c2.882812 0 5.21875 2.335938 5.21875 5.21875v24.679688c0 2.882812-2.335938 5.21875-5.21875 5.21875zm0 0" fill="#fddf7f"/><path d="m36.695312 88.601562c0 8.71875-7.066406 15.789063-15.785156 15.789063-8.722656 0-15.789062-7.070313-15.789062-15.789063s7.066406-15.785156 15.789062-15.785156c8.71875 0 15.785156 7.066406 15.785156 15.785156zm0 0" fill="#aab1ba"/><path d="m506.878906 88.601562c0 8.71875-7.066406 15.789063-15.785156 15.789063-8.722656 0-15.789062-7.070313-15.789062-15.789063s7.066406-15.785156 15.789062-15.785156c8.71875 0 15.785156 7.066406 15.785156 15.785156zm0 0" fill="#aab1ba"/><path d="m91.082031 407.582031c0 13.570313-11 24.574219-24.574219 24.574219-13.570312 0-24.574218-11.003906-24.574218-24.574219 0-13.574219 11.003906-24.574219 24.574218-24.574219 13.574219 0 24.574219 11 24.574219 24.574219zm0 0" fill="#fddf7f"/><path d="m160.707031 187.445312h-92.292969c-2.859374 0-5.519531 1.464844-7.046874 3.882813l-10.019532 15.855469c-1.527344 2.417968-4.1875 3.882812-7.046875 3.882812h-20.386719c-10.378906 0-18.792968 8.414063-18.792968 18.792969v19.914063c0 10.378906 8.414062 18.792968 18.792968 18.792968h20.386719c2.859375 0 5.519531 1.464844 7.046875 3.878906l10.019532 15.855469c1.527343 2.417969 4.1875 3.882813 7.046874 3.882813h92.292969c3.898438 0 7.0625-3.160156 7.0625-7.0625v-90.613282c0-3.898437-3.164062-7.0625-7.0625-7.0625zm0 0" fill="#aab1ba"/><path d="m119.128906 211.066406c3.214844 0 5.824219 2.609375 5.824219 5.824219v45.847656c0 3.21875-2.605469 5.828125-5.824219 5.828125h-37.738281c-1.941406 0-3.519531-1.578125-3.519531-3.519531v-50.460937c0-1.945313 1.578125-3.519532 3.519531-3.519532zm0 0" fill="#ecf4f7"/><path d="m470.066406 407.582031c0 13.570313-11 24.574219-24.574218 24.574219-13.570313 0-24.574219-11.003906-24.574219-24.574219 0-13.574219 11.003906-24.574219 24.574219-24.574219 13.574218 0 24.574218 11 24.574218 24.574219zm0 0" fill="#fddf7f"/><path d="m344.234375 194.507812v90.613282c0 3.902344 3.160156 7.0625 7.0625 7.0625h92.289063c2.859374 0 5.519531-1.464844 7.046874-3.878906l10.019532-15.855469c1.53125-2.417969 4.1875-3.882813 7.046875-3.882813h20.390625c10.378906 0 18.789062-8.414062 18.789062-18.792968v-19.914063c0-10.378906-8.414062-18.792969-18.789062-18.792969h-20.390625c-2.859375 0-5.515625-1.464844-7.046875-3.878906l-10.019532-15.855469c-1.527343-2.417969-4.1875-3.882812-7.046874-3.882812h-92.289063c-3.902344-.003907-7.0625 3.160156-7.0625 7.058593zm0 0" fill="#aab1ba"/><path d="m392.875 211.066406c-3.21875 0-5.828125 2.609375-5.828125 5.824219v45.847656c0 3.21875 2.609375 5.828125 5.828125 5.828125h37.734375c1.941406 0 3.519531-1.578125 3.519531-3.519531v-50.460937c0-1.945313-1.578125-3.519532-3.519531-3.519532zm0 0" fill="#ecf4f7"/><path d="m184.175781 16.933594c0-2.828125 2.292969-5.121094 5.121094-5.121094h6.691406v-6.691406c0-2.828125 2.292969-5.121094 5.121094-5.121094s5.117187 2.292969 5.117187 5.121094v6.691406h6.691407c2.828125 0 5.121093 2.292969 5.121093 5.121094 0 2.824218-2.292968 5.117187-5.121093 5.117187h-6.691407v6.691407c0 2.828124-2.289062 5.121093-5.117187 5.121093s-5.121094-2.292969-5.121094-5.121093v-6.691407h-6.691406c-2.828125 0-5.121094-2.292969-5.121094-5.117187zm114.90625 5.117187h6.691407v6.691407c0 2.828124 2.289062 5.121093 5.117187 5.121093s5.121094-2.292969 5.121094-5.121093v-6.691407h6.691406c2.828125 0 5.121094-2.292969 5.121094-5.117187 0-2.828125-2.292969-5.121094-5.121094-5.121094h-6.691406v-6.691406c0-2.828125-2.292969-5.121094-5.121094-5.121094s-5.117187 2.292969-5.117187 5.121094v6.691406h-6.691407c-2.828125 0-5.121093 2.292969-5.121093 5.121094 0 2.824218 2.292968 5.117187 5.121093 5.117187zm-299.082031 66.550781c0-11.527343 9.378906-20.90625 20.910156-20.90625 9.757813 0 17.953125 6.730469 20.246094 15.789063h13.171875v-9.507813c0-9.351562 7.609375-16.960937 16.964844-16.960937h369.417969c9.351562 0 16.960937 7.609375 16.960937 16.960937v9.507813h13.171875c2.292969-9.058594 10.488281-15.789063 20.25-15.789063 11.527344 0 20.90625 9.378907 20.90625 20.90625 0 11.527344-9.378906 20.910157-20.90625 20.910157-9.761719 0-17.957031-6.730469-20.25-15.789063h-13.171875v9.503906c0 9.355469-7.609375 16.964844-16.960937 16.964844h-1.460938v51.234375c0 2.828125-2.292969 5.121094-5.121094 5.121094s-5.121094-2.292969-5.121094-5.121094v-51.234375h-346.015624v51.234375c0 2.828125-2.292969 5.121094-5.121094 5.121094s-5.117188-2.292969-5.117188-5.121094v-51.234375h-1.460937c-9.355469 0-16.964844-7.609375-16.964844-16.964844v-9.503906h-13.171875c-2.292969 9.054688-10.488281 15.789063-20.246094 15.789063-11.53125 0-20.910156-9.382813-20.910156-20.910157zm480.425781 0c0 5.882813 4.785157 10.667969 10.667969 10.667969 5.878906 0 10.667969-4.785156 10.667969-10.667969 0-5.878906-4.789063-10.664062-10.667969-10.664062-5.882812 0-10.667969 4.785156-10.667969 10.664062zm-415.855469 14.625c0 3.707032 3.015626 6.722657 6.722657 6.722657h369.417969c3.707031 0 6.71875-3.015625 6.71875-6.722657v-29.25c0-3.707031-3.011719-6.722656-6.71875-6.722656h-369.417969c-3.707031 0-6.722657 3.015625-6.722657 6.722656zm-54.328124-14.625c0 5.882813 4.785156 10.667969 10.667968 10.667969 5.878906 0 10.667969-4.785156 10.667969-10.667969 0-5.878906-4.789063-10.664062-10.667969-10.664062-5.882812 0-10.667968 4.785156-10.667968 10.664062zm55.710937 324.101563h1.113281c2.828125 0 5.117188-2.292969 5.117188-5.121094s-2.289063-5.121093-5.117188-5.121093h-1.113281c-2.832031 0-5.121094 2.292968-5.121094 5.121093s2.292969 5.121094 5.121094 5.121094zm80.601563 91.242187c1.621093 2.316407 1.058593 5.507813-1.261719 7.128907-2.3125 1.621093-5.507813 1.058593-7.128907-1.261719l-54.53125-77.976562c-.195312.140624-.394531.277343-.597656.410156v16.058594l37.117188 55.738281c1.566406 2.351562.929687 5.53125-1.425782 7.097656-.871093.582031-1.855468.859375-2.832031.859375-1.65625 0-3.28125-.800781-4.265625-2.28125l-28.59375-42.9375v40.097656c0 2.828125-2.292968 5.121094-5.121094 5.121094-2.828124 0-5.121093-2.292969-5.121093-5.121094v-70.277344c-2.027344.4375-4.128907.675782-6.285157.675782s-4.257812-.238282-6.285156-.675782c0 0 0 0-.003906 0v70.277344c0 2.828125-2.289062 5.121094-5.117188 5.121094h-18.527343c-2.828125 0-5.121094-2.292969-5.121094-5.121094 0-2.824218 2.292969-5.117187 5.121094-5.117187h13.40625v-69.523438c-7.933594-5.335937-13.164063-14.394531-13.164063-24.65625s5.230469-19.320312 13.164063-24.65625v-80.820312c0-2.828125 2.292969-5.121094 5.121093-5.121094 2.828126 0 5.121094 2.292969 5.121094 5.121094v76.457031c2.027344-.4375 4.128906-.675781 6.285156-.675781 2.160157 0 4.261719.238281 6.289063.675781v-70.183594c0-2.824218 2.292969-5.117187 5.121094-5.117187s5.117187 2.292969 5.117187 5.117187v74.542969c7.9375 5.339844 13.167969 14.398437 13.167969 24.660156 0 6.25-1.945313 12.054688-5.257813 16.84375zm-99.5-96.363281c0 8.007813 4.863281 14.894531 11.789062 17.875.078125.035157.15625.066407.230469.097657 1.09375.453124 2.238281.8125 3.421875 1.0625.054687.011718.109375.023437.164062.035156.582032.117187 1.171875.207031 1.765625.269531.082031.007813.164063.015625.246094.023437.605469.054688 1.214844.089844 1.835937.089844.617188 0 1.226563-.035156 1.832032-.089844.082031-.007812.164062-.015624.246094-.023437.597656-.0625 1.1875-.152344 1.765624-.269531.054688-.011719.113282-.023438.167969-.039063 1.179688-.246093 2.320313-.605469 3.410157-1.054687.082031-.035156.164062-.066406.246093-.105469.503907-.214844.992188-.449219 1.46875-.707031.1875-.097656.363281-.210938.546875-.316406.34375-.199219.683594-.398438 1.011719-.617188.167969-.109375.332031-.230469.496094-.34375.332031-.234375.660156-.476562.980469-.734375.144531-.117187.289062-.238281.429687-.359375.320313-.273438.632813-.554688.933594-.847656.128906-.128906.257812-.253906.382812-.386719 3.417969-3.503906 5.535157-8.289063 5.535157-13.558594 0-10.726562-8.726563-19.457031-19.457032-19.457031-10.722656.003906-19.449218 8.730469-19.449218 19.457031zm125.832031-213.074219v90.613282c0 6.71875-5.464844 12.183594-12.179688 12.183594h-92.292969c-4.640624 0-8.894531-2.34375-11.375-6.265626l-10.019531-15.855468c-.59375-.9375-1.609375-1.5-2.714843-1.5h-20.390626c-13.1875 0-23.914062-10.726563-23.914062-23.910156v-19.914063c0-13.183594 10.726562-23.914063 23.914062-23.914063h20.386719c1.109375 0 2.125-.558593 2.71875-1.496093l10.019531-15.855469c2.480469-3.925781 6.730469-6.265625 11.375-6.265625h92.292969c6.714844 0 12.179688 5.464844 12.179688 12.179687zm-99.980469 92.558594c-.023438-.152344-.035156-.308594-.054688-.460937-.015624-.117188-.03125-.234375-.042968-.351563-.035156-.371094-.058594-.75-.058594-1.128906v-90.613281c0-.382813.023438-.761719.058594-1.132813.011718-.121094.027344-.234375.042968-.355468.019532-.152344.03125-.304688.054688-.457032h-4.492188c-1.109374 0-2.125.558594-2.71875 1.496094l-10.019531 15.859375c-.015625.023437-.035156.042969-.046875.066406-.011718.011719-.015625.023438-.023437.039063l-9.832031 15.027344c-.980469 1.5-2.617188 2.316406-4.289063 2.316406-.960937 0-1.933594-.269532-2.796875-.835938-2.367188-1.546875-3.027344-4.71875-1.480469-7.085937l2.132813-3.261719h-15.425782c-7.539062 0-13.671874 6.132812-13.671874 13.671875v19.914063c0 7.539062 6.132812 13.671874 13.671874 13.671874h15.441407l-2.152344-3.300781c-1.542969-2.367187-.875-5.542969 1.492187-7.085937 2.367188-1.542969 5.539063-.875 7.085938 1.492187l9.636719 14.777344c.019531.03125.03125.066406.050781.097656.066406.101563.144531.1875.207031.289063l10.023438 15.855468c.589843.9375 1.605469 1.496094 2.714843 1.496094zm12.027344 0h49.195312l-13.195312-13.542968c-.585938.097656-1.191406.160156-1.804688.160156h-24.570312c-2.828125 0-5.121094-2.292969-5.121094-5.117188 0-2.828125 2.292969-5.121094 5.121094-5.121094h24.570312c.386719 0 .703125-.316406.703125-.707031v-45.847656c0-.058594-.019531-.109375-.03125-.167969-.433593-.125-.851562-.292968-1.246093-.535156h-23.996094c-2.828125 0-5.121094-2.292969-5.121094-5.121094s2.292969-5.121094 5.121094-5.121094h24.570312c.222656 0 .441406.019532.660156.035157l13.066407-13.414063h-47.921875c-1.070313 0-1.941406.871094-1.941406 1.941406v90.613282c0 1.074218.871093 1.945312 1.941406 1.945312zm77.714844-92.558594c0-1.070312-.871094-1.941406-1.941407-1.941406h-13.554687l-18.484375 18.976563c.890625 1.582031 1.40625 3.40625 1.40625 5.351562v45.84375c0 1.601563-.351563 3.117188-.972657 4.492188l19.320313 19.835937h12.285156c1.070313 0 1.941407-.871094 1.941407-1.941406zm282.289062 218.195313h1.113281c2.828125 0 5.117188-2.292969 5.117188-5.121094s-2.289063-5.121093-5.117188-5.121093h-1.113281c-2.832031 0-5.121094 2.292968-5.121094 5.121093s2.289063 5.121094 5.121094 5.121094zm67.0625-182.84375v19.914063c0 13.183593-10.726562 23.910156-23.914062 23.910156h-20.386719c-1.109375 0-2.125.5625-2.71875 1.5l-10.019531 15.855468c-2.480469 3.921876-6.730469 6.265626-11.375 6.265626h-92.289063c-6.71875 0-12.183594-5.464844-12.183594-12.183594v-90.613282c0-6.714843 5.464844-12.179687 12.183594-12.179687h92.289063c4.644531 0 8.898437 2.34375 11.375 6.265625l10.019531 15.855469c.59375.9375 1.609375 1.496093 2.71875 1.496093h20.386719c13.1875 0 23.914062 10.726563 23.914062 23.914063zm-84.933594 57.207031c1.070313 0 1.941406-.871094 1.941406-1.945312v-90.613282c0-1.070312-.871093-1.941406-1.941406-1.941406h-47.921875l13.066407 13.414063c.21875-.011719.4375-.035157.664062-.035157h24.566406c2.828125 0 5.121094 2.292969 5.121094 5.121094s-2.292969 5.121094-5.121094 5.121094h-23.996094c-.394531.242188-.8125.410156-1.242187.539062-.015625.054688-.035156.109376-.035156.167969v45.84375c0 .390625.316406.707031.707031.707031h24.566406c2.828125 0 5.121094 2.292969 5.121094 5.121094s-2.292969 5.117188-5.121094 5.117188h-24.566406c-.617188 0-1.21875-.0625-1.808594-.160156l-13.191406 13.542968zm-75.769531 0h12.28125l19.324219-19.839844c-.621094-1.371093-.972656-2.886718-.972656-4.488281v-45.847656c0-1.941406.511718-3.765625 1.40625-5.351563l-18.484376-18.972656h-13.554687c-1.074219 0-1.945313.871094-1.945313 1.941406v90.613282c0 1.074218.871094 1.945312 1.945313 1.945312zm150.464844-57.207031c0-7.539063-6.136719-13.671875-13.675781-13.671875h-15.425782l2.132813 3.261719c1.550781 2.367187.886719 5.539062-1.480469 7.085937-.863281.566406-1.835938.835938-2.796875.835938-1.667969 0-3.304687-.816406-4.289063-2.316406l-9.832031-15.027344c-.007812-.015625-.011719-.027344-.019531-.039063-.015625-.023437-.03125-.042969-.046875-.066406l-10.023437-15.859375c-.589844-.9375-1.609376-1.496094-2.714844-1.496094h-4.496094c.027344.152344.039062.304688.054688.457032.015624.121093.035156.234374.042968.355468.035156.371094.058594.75.058594 1.132813v90.613281c0 .378906-.023438.757812-.058594 1.128906-.007812.117188-.027344.234375-.042968.351563-.015626.152343-.027344.308593-.054688.460937h4.496094c1.105468 0 2.125-.558594 2.714844-1.5l10.023437-15.855468c.0625-.097657.140625-.183594.203125-.285157.023438-.03125.03125-.066406.054688-.097656l9.636718-14.777344c1.546875-2.371093 4.71875-3.039062 7.085938-1.492187 2.367187 1.542968 3.035156 4.714844 1.492187 7.082031l-2.152343 3.304687h15.441406c7.539062 0 13.671875-6.132812 13.671875-13.675781zm-484.050781 271.902344h-4.496094c-2.828125 0-5.121094 2.292969-5.121094 5.117187 0 2.828125 2.292969 5.121094 5.121094 5.121094h4.496094c2.828124 0 5.121093-2.292969 5.121093-5.121094 0-2.824218-2.292969-5.117187-5.121093-5.117187zm462.835937 5.117187c0 2.828125-2.292969 5.121094-5.121094 5.121094h-18.527343c-2.828126 0-5.121094-2.292969-5.121094-5.121094v-70.277344s0 0-.003906 0c-2.023438.4375-4.125.675782-6.28125.675782s-4.257813-.238282-6.285157-.675782c0 0 0 0-.003906 0v70.277344c0 2.828125-2.289063 5.121094-5.117187 5.121094-2.828126 0-5.121094-2.292969-5.121094-5.121094v-40.097656l-28.59375 42.9375c-.988282 1.480469-2.609375 2.28125-4.265625 2.28125-.976563 0-1.960938-.277344-2.835938-.859375-2.351562-1.566406-2.988281-4.746094-1.421875-7.097656l37.117188-55.738281v-16.054688c-.203125-.136719-.402344-.273438-.597656-.410156l-54.53125 77.976562c-1.621094 2.316406-4.816407 2.878906-7.132813 1.261719-2.316406-1.621094-2.878906-4.816406-1.261719-7.132813l55.613282-79.519531c-3.3125-4.789062-5.257813-10.589843-5.257813-16.84375 0-10.261719 5.230469-19.320312 13.167969-24.65625v-74.542969c0-2.828124 2.289062-5.121093 5.117187-5.121093s5.121094 2.292969 5.121094 5.121093v70.183594c2.027344-.441406 4.128906-.675781 6.289063-.675781 2.15625 0 4.257812.234375 6.285156.675781v-76.460937c0-2.828125 2.292968-5.121094 5.121094-5.121094 2.828124 0 5.121093 2.292969 5.121093 5.121094v80.820312c7.933594 5.335938 13.164063 14.394531 13.164063 24.65625s-5.230469 19.320313-13.164063 24.65625v69.523438h13.40625c2.828125 0 5.121094 2.292969 5.121094 5.117187zm-54.507813-99.296875c0 5.269531 2.113282 10.054688 5.53125 13.558594.128907.132813.257813.257813.386719.386719.300781.292968.613281.574218.929688.847656.144531.121094.289062.242188.433593.359375.316407.257813.644532.5.980469.734375.164063.117188.328125.234375.496094.347656.328125.214844.667969.414063 1.007813.613282.183593.105468.363281.21875.550781.316406.476562.257812.964843.492187 1.46875.710937.082031.035157.164062.066407.246093.101563 1.089844.449218 2.230469.808594 3.40625 1.058594.058594.011718.113282.023437.171876.035156.578124.117187 1.167968.207031 1.765624.269531.082032.011719.164063.015625.246094.023437.605469.054688 1.214844.09375 1.832032.09375.617187 0 1.230468-.039062 1.832031-.09375.082031-.007812.167969-.015624.246093-.023437.597657-.0625 1.1875-.152344 1.765626-.269531.058593-.011719.113281-.023438.167968-.035156 1.183594-.25 2.324219-.609376 3.417969-1.0625.078125-.03125.15625-.0625.230469-.09375 6.929687-2.980469 11.792968-9.871094 11.792968-17.878907 0-10.726562-8.726562-19.453125-19.453124-19.453125-10.726563 0-19.453126 8.726563-19.453126 19.453125zm72.746094 94.179688h-4.496094c-2.828124 0-5.121093 2.292969-5.121093 5.117187 0 2.828125 2.292969 5.121094 5.121093 5.121094h4.496094c2.828125 0 5.121094-2.292969 5.121094-5.121094 0-2.824218-2.292969-5.117187-5.121094-5.117187zm-165.265625-139.101563v24.679688c0 5.699218-4.636719 10.339844-10.339843 10.339844h-17.425782l-29.246094 43.667968 43.46875 62.613282c1.609376 2.324218 1.035157 5.511718-1.289062 7.125-2.324219 1.613281-5.511719 1.035156-7.125-1.285157l-41.175781-59.316406-8.222657 12.277344 27.640626 41.269531c1.574218 2.347656.945312 5.53125-1.40625 7.101562-.875.585938-1.863282.867188-2.84375.867188-1.648438 0-3.269532-.796875-4.257813-2.269531l-25.296875-37.769531-25.296875 37.769531c-.988281 1.472656-2.605469 2.269531-4.257813 2.269531-.976562 0-1.96875-.28125-2.84375-.867188-2.347656-1.570312-2.976562-4.753906-1.40625-7.101562l29.550782-44.117188 11.484375-17.148437 30.199219-45.089844h-15.152344l-18.066406 26.027344s-.003907.003906-.003907.003906l-14.308593 20.609375-45.460938 65.480469c-1.613281 2.324219-4.800781 2.902344-7.125 1.289063-2.324219-1.613282-2.898438-4.804688-1.285156-7.128907l43.464844-62.613281-29.246094-43.667969h-17.425782c-5.699218 0-10.339843-4.640625-10.339843-10.339843v-24.675782c0-5.703125 4.636719-10.339844 10.339843-10.339844h134.359376c5.703124.003907 10.339843 4.640626 10.339843 10.339844zm-91.75 69.652344 7.996094-11.523438-16.042969-23.109374h-15.152344zm24.042969-34.636719h-19.621094l9.808594 14.132813zm57.46875-35.015625c0-.054687-.046875-.097656-.101562-.097656h-134.359376c-.054687 0-.101562.042969-.101562.097656v24.679688c0 .054687.046875.097656.101562.097656h134.359376c.058593 0 .101562-.042969.101562-.097656zm0 0" fill="#1c1d21"/></g><g transform="matrix(-0.7363936989861005 0.7363936989861006 -0.7363936989861006 -0.7363936989861005 63.88196248764518 259.4306968494931)" id="L1_2"><path d="m3 3h58v58h-58z" fill="#394d5c"/><path d="m3 3h16v8h-16z" fill="#7d8d9c"/><path d="m6 6h2v2h-2z" fill="#e1462b"/><path d="m10 6h2v2h-2z" fill="#f9bb4b"/><path d="m14 6h2v2h-2z" fill="#55b56a"/><path d="m19 3h42v8h-42z" fill="#aabece"/><rect x="7px" y="15px" width="50px" height="28px" fill="#aabece"/><circle cx="32" cy="29" r="10" fill="#e1462b"/><path d="m28 35v-12l10 6z" fill="#f4f4e6"/><path d="m29 47h2v6h-2z" fill="#f4f4e6"/><path d="m33 47h2v6h-2z" fill="#f4f4e6"/><path d="m6 56h2v2h-2z" fill="#e1462b"/><path d="m10 56h40v2h-40z" fill="#e1462b"/><path d="m52 56h2v2h-2z" fill="#e1462b"/><path d="m56 56h2v2h-2z" fill="#e1462b"/><g fill="#f4f4e6"><path d="m18.293 52.707-2-2a1 1 0 0 1 0-1.414l2-2 1.414 1.414-1.293 1.293 1.293 1.293z"/><path d="m13.293 52.707-2-2a1 1 0 0 1 0-1.414l2-2 1.414 1.414-1.293 1.293 1.293 1.293z"/><path d="m45.707 52.707-1.414-1.414 1.293-1.293-1.293-1.293 1.414-1.414 2 2a1 1 0 0 1 0 1.414z"/><path d="m50.707 52.707-1.414-1.414 1.293-1.293-1.293-1.293 1.414-1.414 2 2a1 1 0 0 1 0 1.414z"/><path d="m12 25h-2v-6a1 1 0 0 1 1-1h5v2h-4z"/><path d="m54 24h-2v-4h-3v-2h4a1 1 0 0 1 1 1z"/><path d="m53 40h-6v-2h5v-2h2v3a1 1 0 0 1 -1 1z"/><path d="m43 38h2v2h-2z"/><path d="m10 27h2v2h-2z"/></g></g><g transform="matrix(0.9375 0 0 0.9375 88 92)" id="L1_3"><path d="m3 3h58v58h-58z" fill="#394d5c"/><path d="m3 3h16v8h-16z" fill="#7d8d9c"/><path d="m6 6h2v2h-2z" fill="#e1462b"/><path d="m10 6h2v2h-2z" fill="#f9bb4b"/><path d="m14 6h2v2h-2z" fill="#55b56a"/><path d="m19 3h42v8h-42z" fill="#aabece"/><rect x="10px" y="16px" width="12px" height="10px" fill="#e1462b"/><path d="m14 18v6l5-3z" fill="#f4f4e6"/><rect x="10px" y="31px" width="12px" height="10px" fill="#e1462b"/><path d="m14 33v6l5-3z" fill="#f4f4e6"/><rect x="10px" y="46px" width="12px" height="10px" fill="#e1462b"/><g fill="#f4f4e6"><path d="m14 48v6l5-3z"/><path d="m25 16h12v2h-12z"/><path d="m39 16h16v2h-16z"/><path d="m25 24h12v2h-12z"/><path d="m39 24h16v2h-16z"/><path d="m25 20h30v2h-30z"/><path d="m25 50h12v2h-12z"/><path d="m39 50h16v2h-16z"/><path d="m25 46h30v2h-30z"/><path d="m25 31h12v2h-12z"/><path d="m39 31h16v2h-16z"/><path d="m25 35h25v2h-25z"/><path d="m25 39h6v2h-6z"/><path d="m33 39h17v2h-17z"/><path d="m25 54h6v2h-6z"/><path d="m33 54h17v2h-17z"/></g></g><g transform="matrix(0.09843997036272556 0.5315757905255959 -0.5315757905255959 0.09843997036272556 15.860346245211908 -8.160504348426286)" id="L1_4"><path d="m36 50 2 6h-18l2-6z" fill="#aab2bd"/><path d="m45 60v2h-32v-2c0-2.21 1.79-4 4-4h3 18 3c2.21 0 4 1.79 4 4z" fill="#aab2bd"/><path d="m5 8c-1.66 0-3 1.34-3 3v36c0 1.66 1.34 3 3 3h48c1.66 0 3-1.34 3-3v-39z" fill="#ccd1d9"/><path d="m49 42h-40c-.552 0-1-.448-1-1v-26c0-.552.448-1 1-1h40c.552 0 1 .448 1 1v26c0 .552-.448 1-1 1z" fill="#69d6f4"/><path d="m24 24v8h-10v-6h6v-2z" fill="#b4dd7f"/><path d="m20 24v2h-6-2v-8h8z" fill="#fcd770"/><path d="m62 24v6c0 1.1-.9 2-2 2h-4-6-20c-1.1 0-2-.9-2-2v-6z" fill="#fcd770"/><path d="m62 4v20h-34v-10-6-4c0-1.1.9-2 2-2h30c1.1 0 2 .9 2 2z" fill="#e6e9ed"/><path d="m52 13-12 6v-12z" fill="#ff826e"/><path d="m60 1h-30c-1.654 0-3 1.346-3 3v3h-22c-2.206 0-4 1.794-4 4v36c0 2.206 1.794 4 4 4h15.613l-1.333 4h-2.28c-2.757 0-5 2.243-5 5v3h34v-3c0-2.757-2.243-5-5-5h-2.28l-1.333-4h15.613c2.206 0 4-1.794 4-4v-14h3c1.654 0 3-1.346 3-3v-26c0-1.654-1.346-3-3-3zm-30 2h30c.552 0 1 .449 1 1v19h-32v-19c0-.551.448-1 1-1zm0 30h19v8h-40v-26h18v15c0 1.654 1.346 3 3 3zm14 27v1h-30v-1c0-1.654 1.346-3 3-3h24c1.654 0 3 1.346 3 3zm-7.387-5h-15.226l1.333-4h12.56zm18.387-8c0 1.103-.897 2-2 2h-48c-1.103 0-2-.897-2-2v-36c0-1.103.897-2 2-2h22v4h-18c-1.103 0-2 .897-2 2v26c0 1.103.897 2 2 2h40c1.103 0 2-.897 2-2v-8h4zm5-16h-30c-.552 0-1-.449-1-1v-5h32v5c0 .551-.448 1-1 1z"/><path d="m33 27h24v2h-24z"/><path d="m39 5.382v15.236l15.236-7.618zm2 3.236 8.764 4.382-8.764 4.382z"/><path d="m13 33h12v-10h-4v-6h-10v10h2zm10-8v6h-8v-4h6v-2zm-10-6h6v6h-6z"/><path d="m11 37h32v2h-32z"/><path d="m45 37h2v2h-2z"/><path d="m43 45h2v2h-2z"/><path d="m39 45h2v2h-2z"/><path d="m35 45h2v2h-2z"/></g><g transform="matrix(0.3193385594242343 0.18247917222494767 -0.18247917222494767 0.3193385594242343 92.05618187797364 194.14119197442545)" id="L1_5"><path d="m36 62h-30c-2.209 0-4-1.791-4-4v-46c0-2.209 1.791-4 4-4h30c2.209 0 4 1.791 4 4v46c0 2.209-1.791 4-4 4z" fill="#aab2bd"/><path d="m32 19c-2.21 0-4-1.79-4-4 0-.35.04-.68.13-1h-6.13-2-13c-.55 0-1 .45-1 1v31 11c0 .55.45 1 1 1h28c.55 0 1-.45 1-1v-38z" fill="#69d6f4"/><path d="m26 51v2c0 .55-.45 1-1 1h-8c-.55 0-1-.45-1-1v-2c0-.55.45-1 1-1h8c.55 0 1 .45 1 1z" fill="#e6e9ed"/><path d="m22 14h-2c-1.66 0-3-1.34-3-3v-3h4 4v3c0 1.66-1.34 3-3 3z" fill="#ff826e"/><path d="m57 9c-.36 0-.71.04-1.05.12-.44-4.01-3.83-7.12-7.95-7.12-3.23 0-6.01 1.91-7.27 4.66-.82-.42-1.74-.66-2.73-.66-1.77 0-3.36.77-4.46 2-.75.83-1.26 1.86-1.45 3.01-.03 0-.06-.01-.09-.01-1.86 0-3.43 1.27-3.87 3-.09.32-.13.65-.13 1 0 2.21 1.79 4 4 4h25c2.76 0 5-2.24 5-5s-2.24-5-5-5z" fill="#e6e9ed"/><path d="m46 8-5 7h3v4 8c0 1.1-.9 2-2 2h-2-4-4-.18c-.94-5.12-5.42-9-10.82-9-6.08 0-11 4.92-11 11s4.92 11 11 11c5.4 0 9.88-3.88 10.82-9h.18 4 4 2c3.31 0 6-2.69 6-6v-8-4h3z" fill="#fcd770"/><path d="m27 31-9 6v-12z" fill="#ff826e"/><path d="m25 49h-8c-1.103 0-2 .897-2 2v2c0 1.103.897 2 2 2h8c1.103 0 2-.897 2-2v-2c0-1.103-.897-2-2-2zm0 4h-8v-2h8z"/><path d="m17 38.868 11.803-7.868-11.803-7.869zm2-11.999 6.197 4.131-6.197 4.132z"/><path d="m11 51h2v2h-2z"/><path d="m29 51h2v2h-2z"/><path d="m45 43v2c8.271 0 15-6.729 15-15h-2c0 7.168-5.832 13-13 13z"/><path d="m45 41c6.065 0 11-4.935 11-11h-2c0 4.963-4.038 9-9 9z"/><path d="m50 30c0 2.757-2.243 5-5 5v2c3.86 0 7-3.141 7-7z"/><path d="m56.775 8.004c-.913-4.056-4.522-7.004-8.775-7.004-3.181 0-6.117 1.691-7.725 4.38-.73-.253-1.491-.38-2.275-.38-1.894 0-3.617.759-4.884 2h-27.116c-2.757 0-5 2.243-5 5v46c0 2.757 2.243 5 5 5h30c2.757 0 5-2.243 5-5v-24h1c3.86 0 7-3.14 7-7v-11h3.943l-6.943-9.721-6.943 9.721h3.943v11c0 .551-.449 1-1 1h-1v-8-1-1h-9c-1.654 0-3-1.346-3-3s1.346-3 2.901-3.006l1.032.028.142-.849c.404-2.418 2.475-4.173 4.925-4.173.796 0 1.562.185 2.274.55l.93.476.435-.95c1.135-2.476 3.632-4.076 6.361-4.076 3.574 0 6.564 2.676 6.955 6.225l.122 1.101 1.082-.232c.291-.064.567-.094.841-.094 2.206 0 4 1.794 4 4s-1.794 4-4 4h-6v2h6c3.309 0 6-2.691 6-6 0-3.383-2.813-6.134-6.225-5.996zm-34.775 4.996h-2c-1.103 0-2-.897-2-2v-2h2v2h2v-2h2v2c0 1.103-.897 2-2 2zm17 45c0 1.654-1.346 3-3 3h-30c-1.654 0-3-1.346-3-3v-46c0-1.654 1.346-3 3-3h10v2c0 .732.212 1.409.556 2h-9.556c-1.103 0-2 .897-2 2v42c0 1.103.897 2 2 2h28c1.103 0 2-.897 2-2v-23h2zm-32-11h28v10h-28zm38-20v-13h-2.057l3.057-4.279 3.057 4.279h-2.057v13c0 2.757-2.243 5-5 5h-11.014l-.15.819c-.872 4.741-5.008 8.181-9.836 8.181-5.514 0-10-4.486-10-10s4.486-10 10-10c4.828 0 8.964 3.44 9.835 8.181l.151.819h11.014c1.654 0 3-1.346 3-3zm-6 1h-2v-8h2zm-7-8h3v8h-2.378c-1.35-5.263-6.111-9-11.622-9-6.617 0-12 5.383-12 12s5.383 12 12 12c5.511 0 10.272-3.737 11.622-9h2.378v11h-28v-30h20c0 2.757 2.243 5 5 5zm-4.565-7h-1.991c.344-.591.556-1.268.556-2v-2h5.679c-.158.336-.292.686-.397 1.051-1.732.251-3.165 1.399-3.847 2.949z"/></g><g transform="matrix(0.7019194313655237 0.7019194313655236 -0.7019194313655236 0.7019194313655237 243.68985997475176 2.8089244594322267)" id="L1_6"><path d="m48 61h-32v-4l-2-3 2-18v-6l-4-17 5-2h30l5 2-4 17v6l2 18-2 3z" fill="#195c85"/><circle cx="32" cy="40" r="11" fill="#f4f4e6"/><path d="m16 59h-11v-5h9l2 3z" fill="#32b1cc"/><path d="m5.988 32.147-2.988 19.853 2 2h9l2-18z" fill="#87cee9"/><path d="m32 11h-15l-2-4 2-4z" fill="#e1462b"/><path d="m32 11h15l2-4-2-4z" fill="#e1462b"/><path d="m17 3 15 8 15-8z" fill="#ad3323"/><path d="m28 11h2v11h-2z" fill="#87cee9"/><path d="m34 11h2v15h-2z" fill="#87cee9"/><path d="m12 13-9 18 13 5v-6z" fill="#e1462b"/><path d="m48 59h11v-5h-9l-2 3z" fill="#32b1cc"/><path d="m58.012 32.147 2.988 19.853-2 2h-9l-2-18z" fill="#87cee9"/><path d="m52 13 9 18-13 5v-6z" fill="#e1462b"/><path d="m26 40v2l2 1v3h8v-3l2-1v-2c0-3.314-2-6-6-6-4 0-6 2.686-6 6z" fill="#f9bb4b"/><g fill="#394d5c"><path d="m31 42h2v4h-2z"/><path d="m29 38h2v2h-2z"/><path d="m33 38h2v2h-2z"/></g><path d="m23 54h-4a1 1 0 0 1 -.707-.293l-1-1a1 1 0 0 1 -.273-.9l1-5 1.96.392-.895 4.475.329.329h3.586z" fill="#104154"/><path d="m45 54h-4v-2h3.586l.329-.329-.895-4.471 1.96-.392 1 5a1 1 0 0 1 -.273.9l-1 1a1 1 0 0 1 -.707.292z" fill="#104154"/><path d="m43 18h2v2h-2z" fill="#f4f4e6"/><path d="m40 22h2v2h-2z" fill="#f4f4e6"/><path d="m16 57h32v4h-32z" fill="#155372"/></g><g transform="matrix(0.07091079240905569 0.07091079240905568 -0.07091079240905568 0.07091079240905569 222.51782440373714 177.03161178064374)" id="L1_7"><path d="m431.159 118.263v-9.562c0-24.511-19.968-44.566-44.374-44.566h-132.942c-24.406 0-44.374 20.055-44.374 44.566v9.562z" fill="#477b9e"/><path d="m311.846 64.135h-58.003c-24.406 0-44.374 20.055-44.374 44.566v9.562h58.003v-9.562c-.001-24.511 19.968-44.566 44.374-44.566z" fill="#3f6d8e"/><path d="m136.449 179.924v223.208c0 15.71-12.854 28.564-28.564 28.564h375.551c15.71 0 28.564-12.854 28.564-28.564v-223.208z" fill="#3f6d8e"/><path d="m191.656 403.133v-223.209h-55.207v223.208c0 15.71-12.854 28.564-28.564 28.564h55.207c15.71.001 28.564-12.853 28.564-28.563z" fill="#365e7d"/><path d="m483.436 118.03h-375.551c15.711 0 28.564 12.854 28.564 28.564v35.391h375.551v-35.391c0-15.71-12.853-28.564-28.564-28.564z" fill="#b5dcff"/><path d="m483.436 118.03h-375.551c15.711 0 28.564 12.854 28.564 28.564v35.391h375.551v-35.391c0-15.71-12.853-28.564-28.564-28.564z" fill="#b5dcff"/><path d="m163.092 118.03h-55.207c15.711 0 28.564 12.854 28.564 28.564v35.391h55.207v-35.391c0-15.71-12.854-28.564-28.564-28.564z" fill="#8bcaff"/><path d="m94.406 77.486h-50.302c-7.114 0-12.935 5.846-12.935 12.991v14.795c0 7.145 5.821 12.991 12.935 12.991h50.302c7.114 0 12.935-5.846 12.935-12.991v-14.795c-.001-7.145-5.821-12.991-12.935-12.991z" fill="#477b9e"/><path d="m69.255 105.272v-14.795c0-7.145 5.821-12.991 12.935-12.991h-38.086c-7.114 0-12.935 5.846-12.935 12.991v14.795c0 7.145 5.821 12.991 12.935 12.991h38.086c-7.115 0-12.935-5.846-12.935-12.991z" fill="#3f6d8e"/><path d="m0 179.924v223.208c0 15.71 12.854 28.564 28.564 28.564h81.381c15.71 0 28.564-12.854 28.564-28.564v-223.208z" fill="#477b9e"/><path d="m51.695 403.133v-223.209h-51.695v223.208c0 15.71 12.854 28.564 28.564 28.564h51.695c-15.71.001-28.564-12.853-28.564-28.563z" fill="#3f6d8e"/><path d="m109.945 118.03h-81.381c-15.71 0-28.564 12.854-28.564 28.564v35.391h138.51v-35.391c0-15.71-12.854-28.564-28.565-28.564z" fill="#dbedff"/><path d="m80.259 118.03h-51.695c-15.71 0-28.564 12.854-28.564 28.564v35.391h51.695v-35.391c0-15.71 12.854-28.564 28.564-28.564z" fill="#b5dcff"/><path d="m320.314 447.866c-82.219 0-149.109-66.89-149.109-149.109s66.89-149.109 149.109-149.109 149.109 66.89 149.109 149.109-66.891 149.109-149.109 149.109z" fill="#365e7d"/><path d="m221.27 298.757c0-73.689 53.735-135.055 124.076-146.996-8.142-1.382-16.503-2.113-25.032-2.113-82.219 0-149.109 66.89-149.109 149.109s66.89 149.109 149.109 149.109c8.53 0 16.891-.73 25.032-2.112-70.341-11.942-124.076-73.308-124.076-146.997z" fill="#294b64"/><ellipse cx="320px" cy="298px" rx="116px" ry="116px" transform="matrix(0.707 -0.707 0.707 0.707 -117.435 314)" fill="#7fb3fa"/><path d="m253.607 298.757c0-55.797 39.341-102.571 91.739-114.061-8.067-1.769-16.442-2.71-25.032-2.71-64.389 0-116.772 52.384-116.772 116.772s52.384 116.772 116.772 116.772c8.591 0 16.965-.941 25.032-2.71-52.398-11.492-91.739-58.266-91.739-114.063z" fill="#64a6f4"/><ellipse cx="320px" cy="298px" rx="71px" ry="71px" transform="matrix(0.707 -0.707 0.707 0.707 -117.435 314)" fill="#64a6f4"/><path d="m298.803 298.757c0-30.664 19.387-56.877 46.544-67.049-7.797-2.92-16.229-4.527-25.033-4.527-39.467 0-71.576 32.109-71.576 71.576s32.109 71.576 71.576 71.576c8.803 0 17.236-1.607 25.033-4.527-27.157-10.172-46.544-36.385-46.544-67.049z" fill="#3d8bd8"/><ellipse cx="320px" cy="298px" rx="21px" ry="21px" transform="matrix(0.707 -0.707 0.707 0.707 -117.435 314)" fill="#9cc5fa"/><path d="m320.314 298.757c0-8.053 4.398-15.083 10.907-18.862-3.213-1.865-6.932-2.951-10.907-2.951-12.028 0-21.813 9.785-21.813 21.813s9.786 21.813 21.813 21.813c3.975 0 7.694-1.086 10.907-2.952-6.509-3.778-10.907-10.808-10.907-18.861z" fill="#7fb3fa"/></g><g transform="matrix(-0.4263168899742395 0.42631688997423955 -0.42631688997423955 -0.4263168899742395 301.6315756626729 319.3065798579219)" id="L1_8"><g><path d="m16 46v4l-7.57 1.89c-.29.07-.58.11-.87.11-1.97 0-3.56-1.59-3.56-3.56v-.88c0-1.97 1.59-3.56 3.56-3.56.29 0 .58.04.87.11z" fill="#a0d468"/><path d="m16 46h13v4h-13z" fill="#ccd1d9"/><path d="m43 58v4h-22v-4c0-1.1.9-2 2-2h6 6 6c1.1 0 2 .9 2 2z" fill="#969faa"/><path d="m35 42v14h-6v-6-4-4z" fill="#aab2bd"/><path d="m12 2h34c-3.56 0-6.75 1.54-8.95 4h-27.05v-2c0-1.1.9-2 2-2z" fill="#ccd1d9"/><path d="m42 38v2c0 1.1-.9 2-2 2h-5-6-5c-1.1 0-2-.9-2-2v-2z" fill="#ccd1d9"/><path d="m58 6h-48-4c-2.21 0-4 1.79-4 4v24c0 2.21 1.79 4 4 4h16 20 16c2.21 0 4-1.79 4-4v-24c0-2.21-1.79-4-4-4z" fill="#969faa"/><path d="m34 30h24v4h-24z" fill="#fcd770"/><path d="m30 11v22c0 .55-.45 1-1 1h-22c-.55 0-1-.45-1-1v-22c0-.55.45-1 1-1h22c.55 0 1 .45 1 1z" fill="#69d6f4"/><path d="m26 30h-16c0-2.21.9-4.21 2.34-5.66 1.45-1.44 3.45-2.34 5.66-2.34s4.21.9 5.66 2.34c1.44 1.45 2.34 3.45 2.34 5.66z" fill="#ff826e"/><circle cx="18" cy="18" r="4" fill="#f0d0b4"/><path d="m54.95 6c1.9 2.12 3.05 4.92 3.05 8 0 6.63-5.37 12-12 12s-12-5.37-12-12c0-3.08 1.15-5.88 3.05-8 2.2-2.46 5.39-4 8.95-4s6.75 1.54 8.95 4z" fill="#3bafda"/><path d="m46 8c3.31 0 6 2.69 6 6s-2.69 6-6 6-6-2.69-6-6 2.69-6 6-6z" fill="#69d6f4"/><circle cx="46" cy="14" r="2" fill="#4fc1e9"/></g><g><path d="m46 17c1.654 0 3-1.346 3-3s-1.346-3-3-3-3 1.346-3 3 1.346 3 3 3zm0-4c.552 0 1 .448 1 1s-.448 1-1 1-1-.448-1-1 .448-1 1-1z"/><path d="m46 21c3.859 0 7-3.141 7-7s-3.141-7-7-7-7 3.141-7 7 3.141 7 7 7zm0-12c2.757 0 5 2.243 5 5s-2.243 5-5 5-5-2.243-5-5 2.243-5 5-5z"/><path d="m58 5h-2.641c-2.367-2.46-5.684-4-9.359-4h-34c-1.654 0-3 1.346-3 3v1h-3c-2.757 0-5 2.243-5 5v24c0 2.757 2.243 5 5 5h15v1c0 1.654 1.346 3 3 3h4v2h-11.875l-7.458-1.864c-.363-.09-.735-.136-1.105-.136-2.516 0-4.562 2.046-4.562 4.562v.877c0 2.515 2.046 4.561 4.562 4.561.37 0 .742-.046 1.106-.137l7.457-1.863h11.875v4h-5c-1.654 0-3 1.346-3 3v5h24v-5c0-1.654-1.346-3-3-3h-5v-12h4c1.654 0 3-1.346 3-3v-1h15c2.757 0 5-2.243 5-5v-24c0-2.757-2.243-5-5-5zm-1 9c0 6.065-4.935 11-11 11s-11-4.935-11-11 4.935-11 11-11 11 4.935 11 11zm-46-10c0-.552.448-1 1-1h27.104c-.901.567-1.728 1.236-2.463 2h-25.641zm4 45.219-6.815 1.704c-.206.051-.415.077-.623.077-1.413 0-2.562-1.149-2.562-2.562v-.877c0-1.412 1.149-2.561 2.562-2.561.208 0 .418.026.622.076l6.816 1.705zm2-.219v-2h11v2zm25 9v3h-20v-3c0-.552.448-1 1-1h18c.552 0 1 .448 1 1zm-8-3h-4v-12h4zm7-15c0 .552-.448 1-1 1h-16c-.552 0-1-.448-1-1v-1h18zm20-6c0 1.654-1.346 3-3 3h-52c-1.654 0-3-1.346-3-3v-24c0-1.654 1.346-3 3-3h29.063c-1.299 2.023-2.063 4.422-2.063 7 0 7.168 5.832 13 13 13s13-5.832 13-13c0-2.578-.764-4.977-2.063-7h1.063c1.654 0 3 1.346 3 3z"/><path d="m29 9h-22c-1.103 0-2 .897-2 2v22c0 1.103.897 2 2 2h22c1.103 0 2-.897 2-2v-22c0-1.103-.897-2-2-2zm-22 24v-22h22l.002 22z"/><path d="m33 35h26v-6h-26zm12-2h-4v-2h4zm2-2h4v2h-4zm10 2h-4v-2h4zm-22-2h4v2h-4z"/><path d="m21.377 21.663c.991-.914 1.623-2.212 1.623-3.663 0-2.757-2.243-5-5-5s-5 2.243-5 5c0 1.451.632 2.749 1.623 3.663-3.293 1.339-5.623 4.569-5.623 8.337v1h18v-1c0-3.768-2.33-6.998-5.623-8.337zm-6.377-3.663c0-1.654 1.346-3 3-3s3 1.346 3 3-1.346 3-3 3-3-1.346-3-3zm-3.929 11c.486-3.388 3.408-6 6.929-6s6.442 2.612 6.929 6z"/></g></g><g transform="matrix(0.46546592053740127 0.2728593281849228 -0.2728593281849228 0.46546592053740127 26.30862312418329 97.1007327127007)" id="L1_9"><g><path d="m6 62h-4v-4.73c0-1.9 1.34-3.54 3.21-3.92l3.61-.73c.45-.13.85-.35 1.18-.65v.03c0 1.66 1.34 3 3 3s3-1.34 3-3v-.03c.33.3.73.52 1.18.65l3.61.73c.65.13 1.22.41 1.71.8-.92.74-1.5 1.88-1.5 3.12v4.73z" fill="#b4dd7f"/><path d="m58 62h-15v-4.73c0-1.24-.58-2.38-1.5-3.12.24-.2.51-.37.8-.5.28-.13.59-.24.91-.3l3.61-.73c.45-.13.85-.35 1.18-.65v.03c0 1.66 1.34 3 3 3s3-1.34 3-3v-.03c.33.3.73.52 1.18.65l3.61.73c.32.07.63.17.91.31 1.38.64 2.3 2.04 2.3 3.61v4.73z" fill="#b4dd7f"/><path d="m39 62h-14-4v-4.73c0-1.24.58-2.38 1.5-3.12h.01c.48-.39 1.06-.67 1.7-.8l3.61-.73c.36-.1.69-.26.97-.48l3.21 3.86 3.21-3.86c.28.22.61.38.97.48l3.61.73c.64.13 1.22.41 1.7.8.01-.01.01 0 .01 0 .92.74 1.5 1.88 1.5 3.12v4.73z" fill="#fcd770"/><path d="m55 15.43v.45c0 3.89-1.68 7.59-4.62 10.14l-13.96 12.14c-.83-1.28-2.49-2.16-4.42-2.16s-3.59.88-4.42 2.16l-13.96-12.14c-2.94-2.55-4.62-6.25-4.62-10.14v-.45c0-7.41 6.02-13.43 13.43-13.43h.01c3.56 0 6.98 1.42 9.49 3.93l.07.07.07-.07c2.51-2.51 5.93-3.93 9.49-3.93h.01c7.41 0 13.43 6.02 13.43 13.43z" fill="#ff826e"/><path d="m32 11c-3.87 0-7 3.13-7 7s3.13 7 7 7c-5.16 0-10.15-1.85-14.07-5.21l-.17-.14c-.48-.41-.76-1.02-.76-1.65s.28-1.24.76-1.65l.17-.14c1.96-1.68 4.19-2.98 6.57-3.87 2.38-.88 4.92-1.34 7.5-1.34z" fill="#ccd1d9"/><path d="m46.24 16.35c.48.41.76 1.02.76 1.65s-.28 1.24-.76 1.65l-.17.14c-1.96 1.68-4.19 2.98-6.57 3.87-2.38.88-4.92 1.34-7.5 1.34 3.87 0 7-3.13 7-7s-3.13-7-7-7c5.16 0 10.15 1.85 14.07 5.21z" fill="#ccd1d9"/><path d="m32 11c3.87 0 7 3.13 7 7s-3.13 7-7 7-7-3.13-7-7 3.13-7 7-7z" fill="#69d6f4"/><circle cx="32" cy="18" r="3" fill="#4fc1e9"/><path d="m6.23 45.08c-.74-.84-1.23-2.08-1.23-3.08 0-1.66 1.34-3 3-3 .06 0 .11.01.17.02.55-1.73 2.49-3.02 4.83-3.02s4.28 1.29 4.83 3.02c.06-.01.11-.02.17-.02 1.66 0 3 1.34 3 3 0 1-.48 2.24-1.23 3.07-.09-.18-.22-.34-.36-.48-.36-.37-.86-.59-1.41-.59h-1c-1.32 0-2.61-.31-3.79-.89l-.21-.11-.21.11c-1.18.58-2.47.89-3.79.89h-1c-.77 0-1.44.44-1.77 1.08z" fill="#656d78"/><path d="m36.42 38.16c.18.27.32.56.41.86.06-.01.11-.02.17-.02 1.66 0 3 1.34 3 3 0 1-.48 2.24-1.23 3.07-.09-.18-.22-.34-.36-.48-.36-.37-.86-.59-1.41-.59h-1-1.76c-1.47 0-2.92-.34-4.24-1-.74 0-1.38.4-1.73 1h-1.27c-.77 0-1.44.44-1.77 1.08-.74-.84-1.23-2.08-1.23-3.08 0-1.66 1.34-3 3-3 .06 0 .11.01.17.02.09-.3.23-.59.41-.86.83-1.28 2.49-2.16 4.42-2.16s3.59.88 4.42 2.16z" fill="#b27946"/><path d="m58 45c0 3 2 5 2 7 0 .44-.1 1.02-.3 1.66-.28-.14-.59-.24-.91-.31l-3.61-.73c-.45-.13-.85-.35-1.18-.65-.46-.4-.78-.95-.92-1.55v-.01c1.15-.7 1.92-1.96 1.92-3.41v-3c-1.32 0-2.61-.31-3.79-.89l-.21-.11-.21.11c-1.18.58-2.47.89-3.79.89v3c0 1.1.45 2.1 1.17 2.83.23.22.48.42.75.58v.01c-.14.6-.46 1.15-.92 1.55-.33.3-.73.52-1.18.65l-3.61.73c-.32.06-.63.17-.91.3-.2-.63-.3-1.21-.3-1.65 0-2 2-4 2-7v-2c0-3.87 3.13-7 7-7 1.94 0 3.68.78 4.95 2.05s2.05 3.01 2.05 4.95z" fill="#656d78"/><path d="m55 44v3c0 1.45-.77 2.71-1.92 3.41-.61.38-1.32.59-2.08.59s-1.47-.21-2.08-.59c-.27-.16-.52-.36-.75-.58-.72-.73-1.17-1.73-1.17-2.83v-3c1.32 0 2.61-.31 3.79-.89l.21-.11.21.11c1.18.58 2.47.89 3.79.89z" fill="#f0d0b4"/><path d="m53.08 50.42c.14.6.46 1.15.92 1.55v.03c0 1.66-1.34 3-3 3s-3-1.34-3-3v-.03c.46-.4.78-.95.92-1.55v-.01c.61.38 1.32.59 2.08.59s1.47-.21 2.08-.59z" fill="#f0d0b4"/><path d="m35.87 48c.09-.32.13-.65.13-1v-3h1c.55 0 1.05.22 1.41.59.14.14.27.3.36.48.15.28.23.59.23.93 0 1.1-.9 2-2 2z" fill="#f0d0b4"/><path d="m36 47c0 .35-.04.68-.13 1-.26 1.02-.91 1.88-1.79 2.41-.6.38-1.32.59-2.08.59-.08 0-.16 0-2.08-.59-.27-.16-.52-.36-.75-.58-.5-.5-.86-1.12-1.04-1.83-.09-.32-.13-.65-.13-1v-2c0-.36.1-.71.27-1 .35-.6.99-1 1.73-1 1.32.66 2.77 1 4.24 1h1.76z" fill="#f0d0b4"/><path d="m28 45v2c0 .35.04.68.13 1h-1.13c-.55 0-1.05-.22-1.41-.59-.37-.36-.59-.86-.59-1.41 0-.33.08-.65.23-.92.33-.64 1-1.08 1.77-1.08h1.27c-.17.29-.27.64-.27 1z" fill="#f0d0b4"/><path d="m34.08 50.42c.16.69.56 1.3 1.13 1.72l-3.21 3.86-3.21-3.86c.57-.42.97-1.03 1.13-1.72v-.01c1.92.59 2 .59 2.08.59.76 0 1.48-.21 2.08-.59z" fill="#f0d0b4"/><path d="m20 46c0 1.1-.9 2-2 2h-1.13c.09-.32.13-.65.13-1v-3h1c.55 0 1.05.22 1.41.59.14.14.27.3.36.48.15.28.23.59.23.93z" fill="#f0d0b4"/><path d="m16.87 48c-.18.7-.55 1.33-1.04 1.83-.23.22-.48.42-.75.58-.61.38-1.32.59-2.08.59s-1.47-.21-2.08-.59c-.88-.53-1.53-1.39-1.79-2.41-.09-.32-.13-.65-.13-1v-3c1.32 0 2.61-.31 3.79-.89l.21-.11.21.11c1.18.58 2.47.89 3.79.89v3c0 .35-.04.68-.13 1z" fill="#f0d0b4"/><path d="m15.08 50.42c.14.6.46 1.15.92 1.55v.03c0 1.66-1.34 3-3 3s-3-1.34-3-3v-.03c.46-.4.78-.95.92-1.55v-.01c.61.38 1.32.59 2.08.59s1.47-.21 2.08-.59z" fill="#f0d0b4"/><path d="m6.23 45.08c.33-.64 1-1.08 1.77-1.08h1v3c0 .35.04.68.13 1h-1.13c-.55 0-1.05-.22-1.41-.59-.37-.36-.59-.86-.59-1.41 0-.33.08-.65.23-.92z" fill="#f0d0b4"/></g><g><path d="m60.848 53.187c.09-.424.152-.831.152-1.187 0-1.113-.455-2.126-.937-3.198-.522-1.162-1.063-2.365-1.063-3.802v-2c0-4.411-3.589-8-8-8s-8 3.589-8 8v2c0 1.437-.541 2.64-1.063 3.802-.482 1.072-.937 2.085-.937 3.198 0 .227.033.482.07.74-.343-.157-.699-.291-1.08-.368l-3.54-.712c-.502-.143-.914-.479-1.17-.917.548-.481.999-1.067 1.296-1.743h.424c1.654 0 3-1.346 3-3 0-.267-.046-.522-.112-.768.677-.961 1.112-2.162 1.112-3.232 0-1.869-1.295-3.429-3.031-3.865l13.068-11.364c3.154-2.743 4.963-6.713 4.963-10.893v-.443c0-7.959-6.476-14.435-14.435-14.435-3.536 0-6.878 1.263-9.562 3.626-2.641-2.345-6.006-3.626-9.568-3.626-7.959 0-14.435 6.476-14.435 14.435v.443c0 4.18 1.809 8.15 4.963 10.893l13.068 11.364c-1.736.436-3.031 1.996-3.031 3.865 0 1.071.435 2.272 1.112 3.232-.066.247-.112.501-.112.768 0 1.654 1.346 3 3 3h.424c.297.677.749 1.263 1.297 1.744-.252.436-.649.768-1.095.897l-3.616.73c-.543.11-1.047.313-1.507.581-.47-.271-.98-.473-1.513-.581l-3.54-.712c-.502-.143-.914-.479-1.17-.917.548-.481.999-1.067 1.296-1.743h.424c1.654 0 3-1.346 3-3 0-.267-.046-.522-.112-.768.677-.96 1.112-2.161 1.112-3.231 0-2.036-1.529-3.721-3.499-3.969-.929-1.815-3.083-3.031-5.501-3.031s-4.572 1.216-5.501 3.031c-1.97.248-3.499 1.933-3.499 3.969 0 1.071.435 2.272 1.112 3.232-.066.247-.112.501-.112.768 0 1.654 1.346 3 3 3h.424c.297.677.749 1.263 1.297 1.744-.252.436-.649.768-1.095.897l-3.616.73c-2.323.47-4.01 2.531-4.01 4.902v5.727h19 1 22 1 19v-5.727c0-1.669-.846-3.172-2.152-4.086zm-17.087-3.565c.581-1.292 1.239-2.756 1.239-4.622v-2c0-3.309 2.691-6 6-6s6 2.691 6 6v2c0 1.866.658 3.33 1.239 4.622.408.909.761 1.693.761 2.378 0 .105-.023.241-.039.366l-3.511-.706c-.502-.143-.914-.479-1.17-.917 1.045-.917 1.72-2.246 1.72-3.743v-4h-1c-1.154 0-2.31-.273-3.342-.789l-.658-.329-.658.329c-1.032.516-2.188.789-3.342.789h-1v4c0 1.497.675 2.827 1.721 3.744-.252.436-.649.768-1.095.897l-3.587.725c-.016-.125-.039-.261-.039-.366 0-.685.353-1.469.761-2.378zm7.239 4.378c-.977 0-1.79-.706-1.963-1.673.158-.185.301-.383.424-.595.488.16.999.268 1.539.268.541 0 1.052-.108 1.541-.268.123.211.267.408.427.593-.157.948-.976 1.675-1.968 1.675zm3-7c0 1.654-1.346 3-3 3s-3-1.346-3-3v-2.054c1.037-.111 2.055-.393 3-.833.945.439 1.963.722 3 .833zm-25 0v-2c0-.486.349-.893.809-.982 1.38.643 2.905.982 4.427.982h.764v2c0 1.654-1.346 3-3 3s-3-1.346-3-3zm8 0v-2c.551 0 1 .449 1 1s-.449 1-1 1zm-27-31.122v-.443c0-6.857 5.578-12.435 12.435-12.435 3.321 0 6.444 1.293 8.858 3.707l.772.642.707-.707c2.349-2.349 5.472-3.642 8.793-3.642 6.857 0 12.435 5.578 12.435 12.435v.443c0 3.601-1.558 7.021-4.275 9.384l-13.197 11.476c-1.111-1.074-2.746-1.738-4.528-1.738s-3.417.664-4.528 1.738l-13.197-11.476c-2.717-2.363-4.275-5.783-4.275-9.384zm16 30.122c0-.551.449-1 1-1v2c-.551 0-1-.449-1-1zm1.78-3h-.78c-.594 0-1.145.179-1.611.478-.235-.496-.389-1.027-.389-1.478 0-1.103.897-2 1.959-2l.928.063.236-.742c.427-1.345 2.058-2.321 3.877-2.321s3.45.976 3.877 2.32l.236.742.777-.047c.05-.003.101-.009.11-.015 1.103 0 2 .897 2 2 0 .45-.155.982-.389 1.478-.466-.299-1.017-.478-1.611-.478h-1-1.764c-1.308 0-2.618-.309-3.789-.895l-.211-.105h-.236c-.883 0-1.67.391-2.22 1zm4.22 9c.541 0 1.052-.108 1.541-.268.096.165.204.321.323.47l-1.864 2.236-1.861-2.233c.118-.15.226-.307.322-.472.488.159.999.267 1.539.267zm-22-5v-2.054c1.037-.111 2.055-.393 3-.833.945.439 1.963.722 3 .833v2.054c0 1.654-1.346 3-3 3s-3-1.346-3-3zm8 0v-2c.551 0 1 .449 1 1s-.449 1-1 1zm-11-1c0-.551.449-1 1-1v2c-.551 0-1-.449-1-1zm2-3h-1c-.594 0-1.145.179-1.611.478-.235-.496-.389-1.027-.389-1.478 0-1.103.897-2 1.959-2l.928.063.236-.742c.427-1.345 2.058-2.321 3.877-2.321s3.45.976 3.877 2.32l.236.742.777-.047c.05-.003.101-.009.11-.015 1.103 0 2 .897 2 2 0 .45-.155.982-.389 1.478-.466-.299-1.017-.478-1.611-.478h-1c-1.154 0-2.31-.273-3.342-.789l-.658-.329-.658.329c-1.032.516-2.188.789-3.342.789zm4 9c.541 0 1.052-.108 1.54-.268.123.211.267.408.427.593-.157.948-.975 1.675-1.967 1.675-.99 0-1.807-.724-1.966-1.669.16-.186.304-.385.427-.599.488.16.999.268 1.539.268zm-6 9v-4h-2v4h-2v-3.727c0-1.422 1.012-2.659 2.406-2.941l3.692-.749c.07-.02.134-.049.202-.073.598 1.458 2.029 2.49 3.7 2.49 1.665 0 3.093-1.024 3.695-2.499.094.034.185.073.283.1l3.616.73c.11.022.21.07.316.104-.567.816-.91 1.792-.91 2.838v3.727zm35 0h-2v-4h-2v4h-12v-4h-2v4h-2v-3.727c0-1.422 1.012-2.659 2.406-2.941l3.692-.749c.155-.044.304-.101.451-.162l3.451 4.141 3.455-4.146c.168.072.342.134.523.185l3.617.73c1.393.283 2.405 1.52 2.405 2.942zm19 0h-2v-4h-2v4h-13v-3.727c0-1.046-.343-2.021-.909-2.837.106-.034.206-.082.315-.104l3.692-.749c.07-.02.134-.049.202-.073.473 1.155 1.474 2.029 2.699 2.348v3.142h2v-3.142c1.227-.319 2.229-1.196 2.701-2.354.092.033.181.071.276.098l3.617.73c1.395.282 2.407 1.519 2.407 2.941z"/><path d="m50 15.435-.001.553 2 .024.001-.577c0-5.591-4.373-10.17-9.955-10.424l-.091 1.998c4.512.205 8.046 3.907 8.046 8.426z"/><path d="m25.487 30.906h2v2h-2z" transform="matrix(0.656 -0.755 0.755 0.656 -14.969 30.956)"/><path d="m22.469 28.281h2v2h-2z" transform="matrix(0.656 -0.755 0.755 0.656 -14.026 27.776)"/><path d="m19.451 25.656h2v2h-2z" transform="matrix(0.656 -0.755 0.755 0.656 -13.084 24.596)"/><path d="m46.725 20.553.167-.143c.704-.604 1.108-1.482 1.108-2.41s-.404-1.806-1.109-2.411l-.166-.142c-4.098-3.512-9.328-5.447-14.725-5.447s-10.627 1.935-14.725 5.447l-.167.143c-.704.604-1.108 1.482-1.108 2.41s.404 1.806 1.109 2.411l.166.142c4.098 3.512 9.328 5.447 14.725 5.447s10.627-1.935 14.725-5.447zm-20.725-2.553c0-3.309 2.691-6 6-6s6 2.691 6 6-2.691 6-6 6-6-2.691-6-6zm19.59-.892c.261.224.41.549.41.892s-.149.668-.41.891l-.167.143c-2.12 1.817-4.578 3.152-7.201 3.983 1.11-1.373 1.778-3.118 1.778-5.017s-.668-3.644-1.778-5.017c2.623.831 5.082 2.166 7.202 3.984zm-27.18 1.784c-.261-.224-.41-.549-.41-.892s.149-.668.41-.891l.167-.143c2.12-1.817 4.578-3.152 7.201-3.983-1.11 1.373-1.778 3.118-1.778 5.017s.668 3.644 1.778 5.017c-2.623-.831-5.082-2.166-7.202-3.984z"/><path d="m32 14c-2.206 0-4 1.794-4 4s1.794 4 4 4 4-1.794 4-4-1.794-4-4-4zm0 6c-1.103 0-2-.897-2-2s.897-2 2-2 2 .897 2 2-.897 2-2 2z"/></g></g><g transform="matrix(0.6499604571519557 0.13447457765196594 -0.13447457765196594 0.6499604571519557 82.62642123634171 5.158872699356429)" id="L1_10"><g><path d="m43 59.27v2.73h-22v-2.73c0-1.24.58-2.38 1.5-3.12 0 0 0-.01.01 0 .48-.39 1.06-.67 1.7-.8l3.61-.73c.36-.1.69-.26.97-.48l3.21 3.86 3.21-3.86c.28.22.61.38.97.48l3.61.73c.64.13 1.22.41 1.7.8h.01c.92.74 1.5 1.88 1.5 3.12z" fill="#4fc1e9"/><path d="m21.7 55.65c.29.13.56.3.8.5-.92.74-1.5 1.88-1.5 3.12v2.73h-19v-2.73c0-1.57.92-2.97 2.3-3.61.28-.14.59-.24.91-.31l3.61-.73c.45-.13.85-.35 1.18-.65v.03c0 1.66 1.34 3 3 3s3-1.34 3-3v-.03c.33.3.73.52 1.18.65l3.61.73c.32.06.63.17.91.3z" fill="#ff826e"/><path d="m62 62h-19v-2.73c0-1.24-.58-2.38-1.5-3.12.24-.2.51-.37.8-.5.28-.13.59-.24.91-.3l3-.61v.01l1.79 6.25 3-3 3 3 1.79-6.25v-.01l3 .61c.32.07.63.17.91.3 1.38.65 2.3 2.05 2.3 3.62z" fill="#ff826e"/><path d="m55.18 54.62.61.12v.01l-1.79 6.25-3-3 3.61-3.61c.18.1.37.17.57.23z" fill="#fc6e51"/><path d="m46.82 54.62c.2-.06.39-.13.57-.23l3.61 3.61-3 3-1.79-6.25v-.01z" fill="#fc6e51"/><path d="m55 46v3c0 1.1-.45 2.1-1.17 2.83-.23.22-.48.42-.75.58-1.92.59-2 .59-2.08.59-.76 0-1.48-.21-2.08-.59-1.15-.7-1.92-1.96-1.92-3.41v-3c1.32 0 2.61-.31 3.79-.89l.21-.11.21.11c1.18.58 2.47.89 3.79.89z" fill="#f0d0b4"/><path d="m53.08 52.42c.2.84.75 1.57 1.53 1.97l-3.61 3.61-3.61-3.61c.78-.4 1.33-1.13 1.53-1.97v-.01c.6.38 1.32.59 2.08.59.08 0 .16 0 2.08-.59z" fill="#f0d0b4"/><path d="m39 48c0 1.1-.9 2-2 2h-1.13c.09-.32.13-.65.13-1v-3h1c.55 0 1.05.22 1.41.59.14.14.27.3.36.48.15.28.23.59.23.93z" fill="#f0d0b4"/><path d="m34.08 52.42c.16.69.56 1.3 1.13 1.72l-3.21 3.86-3.21-3.86c.57-.42.97-1.03 1.13-1.72v-.01c1.92.59 2 .59 2.08.59.76 0 1.48-.21 2.08-.59z" fill="#f0d0b4"/><path d="m28 47v2c0 .35.04.68.13 1h-1.13c-.55 0-1.05-.22-1.41-.59-.37-.36-.59-.86-.59-1.41 0-.33.08-.65.23-.92.33-.64 1-1.08 1.77-1.08h1.27c-.17.29-.27.64-.27 1z" fill="#f0d0b4"/><path d="m36 46v3c0 .35-.04.68-.13 1-.26 1.02-.91 1.88-1.79 2.41-.6.38-1.32.59-2.08.59-.08 0-.16 0-2.08-.59-.27-.16-.52-.36-.75-.58-.5-.5-.86-1.12-1.04-1.83-.09-.32-.13-.65-.13-1v-2c0-.36.1-.71.27-1 .35-.6.99-1 1.73-1 1.32.66 2.77 1 4.24 1z" fill="#f0d0b4"/><path d="m17 46v3c0 1.1-.45 2.1-1.17 2.83-.23.22-.48.42-.75.58-.61.38-1.32.59-2.08.59s-1.47-.21-2.08-.59c-1.15-.7-1.92-1.96-1.92-3.41v-3c1.32 0 2.61-.31 3.79-.89l.21-.11.21.11c1.18.58 2.47.89 3.79.89z" fill="#f0d0b4"/><path d="m15.08 52.42c.14.6.46 1.15.92 1.55v.03c0 1.66-1.34 3-3 3s-3-1.34-3-3v-.03c.46-.4.78-.95.92-1.55v-.01c.61.38 1.32.59 2.08.59s1.47-.21 2.08-.59z" fill="#f0d0b4"/><path d="m9 49c0 1.45.77 2.71 1.92 3.41v.01c-.14.6-.46 1.15-.92 1.55-.33.3-.73.52-1.18.65l-3.61.73c-.32.07-.63.17-.91.31-.2-.64-.3-1.22-.3-1.66 0-2 2-4 2-7v-2c0-1.94.78-3.68 2.05-4.95s3.01-2.05 4.95-2.05c3.87 0 7 3.13 7 7v2c0 3 2 5 2 7 0 .44-.1 1.02-.3 1.65-.28-.13-.59-.24-.91-.3l-3.61-.73c-.45-.13-.85-.35-1.18-.65-.46-.4-.78-.95-.92-1.55v-.01c.27-.16.52-.36.75-.58.72-.73 1.17-1.73 1.17-2.83v-3c-1.32 0-2.61-.31-3.79-.89l-.21-.11-.21.11c-1.18.58-2.47.89-3.79.89z" fill="#b27946"/><path d="m44 47v-2c0-1.94.78-3.68 2.05-4.95s3.01-2.05 4.95-2.05c3.87 0 7 3.13 7 7v2c0 3 2 5 2 7 0 .44-.1 1.02-.3 1.65-.28-.13-.59-.23-.91-.3l-3-.61-.61-.12c-.2-.06-.39-.13-.57-.23-.78-.4-1.33-1.13-1.53-1.97v-.01c.27-.16.52-.36.75-.58.72-.73 1.17-1.73 1.17-2.83v-3c-1.32 0-2.61-.31-3.79-.89l-.21-.11-.21.11c-1.18.58-2.47.89-3.79.89v3c0 1.45.77 2.71 1.92 3.41v.01c-.2.84-.75 1.57-1.53 1.97-.18.1-.37.17-.57.23l-.61.12-3 .61c-.32.06-.63.17-.91.3-.2-.64-.3-1.21-.3-1.65 0-2 2-4 2-7z" fill="#b27946"/><path d="m40 44c0 1-.48 2.24-1.23 3.07-.09-.18-.22-.34-.36-.48-.36-.37-.86-.59-1.41-.59h-1-1.76c-1.47 0-2.92-.34-4.24-1-.74 0-1.38.4-1.73 1h-1.27c-.77 0-1.44.44-1.77 1.08-.74-.84-1.23-2.08-1.23-3.08 0-1.66 1.34-3 3-3 .06 0 .11.01.17.02.55-1.73 2.49-3.02 4.83-3.02s4.28 1.29 4.83 3.02c.06-.01.11-.02.17-.02 1.66 0 3 1.34 3 3z" fill="#656d78"/><path d="m22 8v2.69c0 .44-.01.88-.03 1.31-.03.67-.09 1.34-.18 2h-10.26c-.94 0-1.79.53-2.21 1.37l-.64 1.26c-.42.84-1.27 1.37-2.21 1.37-1.36 0-2.47-1.11-2.47-2.47v-5.06c0-1.36 1.11-2.47 2.47-2.47z" fill="#969faa"/><path d="m38 2c2.21 0 4 1.79 4 4v4.69c0 .44.01.88.03 1.31h-20.06c.02-.43.03-.87.03-1.31v-2.69-2c0-2.21 1.79-4 4-4h4 4z" fill="#fcd770"/><path d="m50 30h-36c4.33-4.33 7.06-9.98 7.79-16 .09-.66.15-1.33.18-2h20.06c.33 6.77 3.16 13.19 7.97 18z" fill="#ccd1d9"/><path d="m52 30c1.1 0 2 .9 2 2 0 .55-.22 1.05-.59 1.41-.36.37-.86.59-1.41.59h-40c-1.1 0-2-.9-2-2 0-.55.22-1.05.59-1.41.36-.37.86-.59 1.41-.59h2 36z" fill="#fcd770"/></g><g><path d="m60.848 55.187c.09-.424.152-.831.152-1.187 0-1.113-.455-2.126-.937-3.198-.523-1.162-1.063-2.365-1.063-3.802v-2c0-4.411-3.589-8-8-8s-8 3.589-8 8v2c0 1.437-.54 2.64-1.063 3.802-.482 1.072-.937 2.085-.937 3.198 0 .227.033.482.07.74-.342-.157-.698-.291-1.08-.368l-3.54-.712c-.501-.143-.914-.479-1.17-.917.548-.481.999-1.067 1.296-1.743h.424c1.654 0 3-1.346 3-3 0-.267-.046-.521-.112-.768.677-.96 1.112-2.162 1.112-3.232 0-2.036-1.528-3.721-3.498-3.969-.93-1.815-3.084-3.031-5.502-3.031s-4.572 1.216-5.502 3.031c-1.97.248-3.498 1.933-3.498 3.969 0 1.071.435 2.271 1.112 3.232-.066.247-.112.501-.112.768 0 1.654 1.346 3 3 3h.424c.297.677.749 1.263 1.297 1.744-.252.436-.649.768-1.095.897l-3.616.73c-.381.077-.737.211-1.079.368.036-.257.069-.512.069-.739 0-1.113-.455-2.126-.937-3.198-.523-1.162-1.063-2.365-1.063-3.802v-2c0-4.411-3.589-8-8-8s-8 3.589-8 8v2c0 1.437-.54 2.64-1.063 3.802-.482 1.072-.937 2.085-.937 3.198 0 .355.062.763.152 1.187-1.305.914-2.152 2.417-2.152 4.086v3.727h19 1 22 1 19v-3.727c0-1.669-.846-3.172-2.152-4.086zm-17.087-3.565c.581-1.292 1.239-2.756 1.239-4.622v-2c0-3.309 2.691-6 6-6s6 2.691 6 6v2c0 1.866.658 3.33 1.239 4.622.408.909.761 1.693.761 2.378 0 .105-.023.241-.039.366l-3.511-.706c-.501-.143-.914-.479-1.17-.917 1.045-.917 1.72-2.246 1.72-3.743v-4h-1c-1.154 0-2.31-.273-3.342-.789l-.658-.329-.658.329c-1.032.516-2.188.789-3.342.789h-1v4c0 1.497.675 2.827 1.721 3.744-.252.436-.649.768-1.095.897l-3.587.725c-.016-.125-.039-.261-.039-.366 0-.685.353-1.469.761-2.378zm10.618 4.414-.874 3.056-1.091-1.092zm-.379-7.036c0 1.654-1.346 3-3 3s-3-1.346-3-3v-2.054c1.036-.111 2.056-.393 3-.833.944.439 1.964.722 3 .833zm-3 5c.541 0 1.052-.108 1.541-.268.158.271.343.525.561.752l-2.102 2.102-2.097-2.097c.216-.227.4-.483.558-.756.488.159.999.267 1.539.267zm-1.414 4-1.091 1.091-.874-3.056zm1.414 1.414 1.586 1.586h-3.172zm-22-10.414v-2c0-.486.349-.893.81-.982 1.379.643 2.904.982 4.426.982h.764v2c0 1.654-1.346 3-3 3s-3-1.346-3-3zm8 0v-2c.552 0 1 .449 1 1s-.448 1-1 1zm-11-1c0-.551.448-1 1-1v2c-.552 0-1-.449-1-1zm1.78-3h-.78c-.594 0-1.145.179-1.611.478-.234-.496-.389-1.027-.389-1.478 0-1.103.897-2 1.959-2l.929.062.235-.742c.427-1.344 2.058-2.32 3.877-2.32s3.45.976 3.877 2.32l.235.742.777-.046c.052-.004.102-.01.111-.016 1.103 0 2 .897 2 2 0 .451-.154.983-.389 1.478-.466-.299-1.017-.478-1.611-.478h-1-1.764c-1.309 0-2.619-.309-3.789-.895l-.211-.105h-.236c-.883 0-1.67.391-2.22 1zm4.22 9c.541 0 1.052-.108 1.541-.268.096.165.204.321.322.47l-1.863 2.236-1.861-2.233c.118-.15.226-.307.321-.472.489.159 1 .267 1.54.267zm-26.239-2.378c.581-1.292 1.239-2.756 1.239-4.622v-2c0-3.309 2.691-6 6-6s6 2.691 6 6v2c0 1.866.658 3.33 1.239 4.622.408.909.761 1.693.761 2.378 0 .105-.023.241-.039.366l-3.511-.706c-.501-.143-.914-.479-1.17-.917 1.045-.917 1.72-2.246 1.72-3.743v-4h-1c-1.154 0-2.31-.273-3.342-.789l-.658-.329-.658.329c-1.032.516-2.188.789-3.342.789h-1v4c0 1.497.675 2.827 1.721 3.744-.252.436-.649.768-1.095.897l-3.587.725c-.016-.125-.039-.261-.039-.366 0-.685.353-1.469.761-2.378zm10.239-2.622c0 1.654-1.346 3-3 3s-3-1.346-3-3v-2.054c1.036-.111 2.056-.393 3-.833.944.439 1.964.722 3 .833zm-4.539 4.732c.488.16.999.268 1.539.268.541 0 1.052-.108 1.541-.268.123.211.267.408.427.593-.158.948-.977 1.675-1.968 1.675-.989 0-1.807-.724-1.966-1.669.159-.186.303-.385.427-.599zm-8.461 7.268v-1.727c0-1.422 1.012-2.659 2.406-2.941l3.692-.749c.069-.02.134-.049.202-.073.598 1.458 2.029 2.49 3.7 2.49 1.666 0 3.094-1.024 3.695-2.499.094.034.185.073.283.1l3.616.73c.109.022.21.07.315.104-.566.817-.909 1.792-.909 2.838v1.727zm39 0h-20v-1.727c0-1.422 1.012-2.659 2.406-2.941l3.692-.749c.155-.044.304-.101.45-.162l3.452 4.141 3.455-4.146c.168.072.342.134.522.185l3.616.73c1.395.283 2.407 1.52 2.407 2.942zm1.091-4.564c.106-.034.206-.082.315-.104l2.098-.426 1.456 5.094h-2.96v-1.727c0-1.046-.343-2.021-.909-2.837zm17.909 4.564h-5.96l1.455-5.092 2.098.424c1.395.282 2.407 1.519 2.407 2.941z"/><path d="m6.472 19c1.324 0 2.515-.735 3.106-1.92l.633-1.266c.251-.502.756-.814 1.317-.814h9.115c-.862 5.257-3.296 10.109-7.071 14h-1.572c-1.654 0-3 1.346-3 3s1.346 3 3 3h40c1.654 0 3-1.346 3-3s-1.346-3-3-3h-1.572c-4.79-4.936-7.428-11.421-7.428-18.313v-4.687c0-2.757-2.243-5-5-5h-12c-2.757 0-5 2.243-5 5v1h-14.528c-1.914 0-3.472 1.558-3.472 3.472v5.056c0 1.914 1.558 3.472 3.472 3.472zm46.528 13c0 .551-.448 1-1 1h-40c-.552 0-1-.449-1-1s.448-1 1-1h40c.552 0 1 .449 1 1zm-5.272-3h-31.456c3.852-4.526 6.151-10.077 6.628-16h18.2c.477 5.923 2.776 11.474 6.628 16zm-24.728-23c0-1.302.839-2.402 2-2.816v3.816h2v-4h2v4h2v-4h2v4h2v-4h2v4h2v-3.816c1.161.414 2 1.514 2 2.816v4.687c0 .105.006.209.008.313h-18.016c.002-.105.008-.209.008-.313zm-18 4.472c0-.811.66-1.472 1.472-1.472h14.528v1.687c0 .777-.039 1.548-.105 2.313h-9.366c-1.324 0-2.515.735-3.106 1.92l-.633 1.266c-.252.502-.757.814-1.318.814-.812 0-1.472-.661-1.472-1.472z"/><path d="m25 21h2v2h-2z"/><path d="m33 21h2v2h-2z"/><path d="m29 21h2v2h-2z"/><path d="m37 21h2v2h-2z"/><path d="m57.535 35.536c1.949-1.95 1.949-5.122 0-7.071l-1.414 1.414c1.17 1.17 1.17 3.073 0 4.243z"/><path d="m58.95 36.95 1.414 1.414c3.509-3.509 3.509-9.219 0-12.728l-1.414 1.414c2.73 2.73 2.73 7.17 0 9.9z"/><path d="m6.465 28.464c-1.949 1.95-1.949 5.122 0 7.071l1.414-1.414c-1.17-1.17-1.17-3.073 0-4.243z"/><path d="m5.05 36.95c-2.729-2.729-2.729-7.17 0-9.899l-1.414-1.414c-3.509 3.509-3.509 9.219 0 12.728z"/></g></g></defs><g fi:class="KUsePattern"><pattern id="pattern_L1_0" width="350" height="350" patternUnits="userSpaceOnUse"><use xlink:href="#L1_0" x="-350" y="-350"/><use xlink:href="#L1_0" x="0" y="-350"/><use xlink:href="#L1_0" x="350" y="-350"/><use xlink:href="#L1_0" x="-350" y="0"/><use xlink:href="#L1_0" x="0" y="0"/><use xlink:href="#L1_0" x="350" y="0"/><use xlink:href="#L1_0" x="-350" y="350"/><use xlink:href="#L1_0" x="0" y="350"/><use xlink:href="#L1_0" x="350" y="350"/></pattern><rect x="0" y="0" width="100%" height="100%" fill="url(#pattern_L1_0)"/></g><g fi:class="KUsePattern"><pattern id="pattern_L1_1" width="350" height="350" patternUnits="userSpaceOnUse"><use xlink:href="#L1_1" x="-350" y="-350"/><use xlink:href="#L1_1" x="0" y="-350"/><use xlink:href="#L1_1" x="350" y="-350"/><use xlink:href="#L1_1" x="-350" y="0"/><use xlink:href="#L1_1" x="0" y="0"/><use xlink:href="#L1_1" x="350" y="0"/><use xlink:href="#L1_1" x="-350" y="350"/><use xlink:href="#L1_1" x="0" y="350"/><use xlink:href="#L1_1" x="350" y="350"/></pattern><rect x="0" y="0" width="100%" height="100%" fill="url(#pattern_L1_1)"/></g><g fi:class="KUsePattern"><pattern id="pattern_L1_2" width="350" height="350" patternUnits="userSpaceOnUse"><use xlink:href="#L1_2" x="-350" y="-350"/><use xlink:href="#L1_2" x="0" y="-350"/><use xlink:href="#L1_2" x="350" y="-350"/><use xlink:href="#L1_2" x="-350" y="0"/><use xlink:href="#L1_2" x="0" y="0"/><use xlink:href="#L1_2" x="350" y="0"/><use xlink:href="#L1_2" x="-350" y="350"/><use xlink:href="#L1_2" x="0" y="350"/><use xlink:href="#L1_2" x="350" y="350"/></pattern><rect x="0" y="0" width="100%" height="100%" fill="url(#pattern_L1_2)"/></g><g fi:class="KUsePattern"><pattern id="pattern_L1_3" width="350" height="350" patternUnits="userSpaceOnUse"><use xlink:href="#L1_3" x="-350" y="-350"/><use xlink:href="#L1_3" x="0" y="-350"/><use xlink:href="#L1_3" x="350" y="-350"/><use xlink:href="#L1_3" x="-350" y="0"/><use xlink:href="#L1_3" x="0" y="0"/><use xlink:href="#L1_3" x="350" y="0"/><use xlink:href="#L1_3" x="-350" y="350"/><use xlink:href="#L1_3" x="0" y="350"/><use xlink:href="#L1_3" x="350" y="350"/></pattern><rect x="0" y="0" width="100%" height="100%" fill="url(#pattern_L1_3)"/></g><g fi:class="KUsePattern"><pattern id="pattern_L1_4" width="350" height="350" patternUnits="userSpaceOnUse"><use xlink:href="#L1_4" x="-350" y="-350"/><use xlink:href="#L1_4" x="0" y="-350"/><use xlink:href="#L1_4" x="350" y="-350"/><use xlink:href="#L1_4" x="-350" y="0"/><use xlink:href="#L1_4" x="0" y="0"/><use xlink:href="#L1_4" x="350" y="0"/><use xlink:href="#L1_4" x="-350" y="350"/><use xlink:href="#L1_4" x="0" y="350"/><use xlink:href="#L1_4" x="350" y="350"/></pattern><rect x="0" y="0" width="100%" height="100%" fill="url(#pattern_L1_4)"/></g><g fi:class="KUsePattern"><pattern id="pattern_L1_5" width="350" height="350" patternUnits="userSpaceOnUse"><use xlink:href="#L1_5" x="-350" y="-350"/><use xlink:href="#L1_5" x="0" y="-350"/><use xlink:href="#L1_5" x="350" y="-350"/><use xlink:href="#L1_5" x="-350" y="0"/><use xlink:href="#L1_5" x="0" y="0"/><use xlink:href="#L1_5" x="350" y="0"/><use xlink:href="#L1_5" x="-350" y="350"/><use xlink:href="#L1_5" x="0" y="350"/><use xlink:href="#L1_5" x="350" y="350"/></pattern><rect x="0" y="0" width="100%" height="100%" fill="url(#pattern_L1_5)"/></g><g fi:class="KUsePattern"><pattern id="pattern_L1_6" width="350" height="350" patternUnits="userSpaceOnUse"><use xlink:href="#L1_6" x="-350" y="-350"/><use xlink:href="#L1_6" x="0" y="-350"/><use xlink:href="#L1_6" x="350" y="-350"/><use xlink:href="#L1_6" x="-350" y="0"/><use xlink:href="#L1_6" x="0" y="0"/><use xlink:href="#L1_6" x="350" y="0"/><use xlink:href="#L1_6" x="-350" y="350"/><use xlink:href="#L1_6" x="0" y="350"/><use xlink:href="#L1_6" x="350" y="350"/></pattern><rect x="0" y="0" width="100%" height="100%" fill="url(#pattern_L1_6)"/></g><g fi:class="KUsePattern"><pattern id="pattern_L1_7" width="350" height="350" patternUnits="userSpaceOnUse"><use xlink:href="#L1_7" x="-350" y="-350"/><use xlink:href="#L1_7" x="0" y="-350"/><use xlink:href="#L1_7" x="350" y="-350"/><use xlink:href="#L1_7" x="-350" y="0"/><use xlink:href="#L1_7" x="0" y="0"/><use xlink:href="#L1_7" x="350" y="0"/><use xlink:href="#L1_7" x="-350" y="350"/><use xlink:href="#L1_7" x="0" y="350"/><use xlink:href="#L1_7" x="350" y="350"/></pattern><rect x="0" y="0" width="100%" height="100%" fill="url(#pattern_L1_7)"/></g><g fi:class="KUsePattern"><pattern id="pattern_L1_8" width="350" height="350" patternUnits="userSpaceOnUse"><use xlink:href="#L1_8" x="-350" y="-350"/><use xlink:href="#L1_8" x="0" y="-350"/><use xlink:href="#L1_8" x="350" y="-350"/><use xlink:href="#L1_8" x="-350" y="0"/><use xlink:href="#L1_8" x="0" y="0"/><use xlink:href="#L1_8" x="350" y="0"/><use xlink:href="#L1_8" x="-350" y="350"/><use xlink:href="#L1_8" x="0" y="350"/><use xlink:href="#L1_8" x="350" y="350"/></pattern><rect x="0" y="0" width="100%" height="100%" fill="url(#pattern_L1_8)"/></g><g fi:class="KUsePattern"><pattern id="pattern_L1_9" width="350" height="350" patternUnits="userSpaceOnUse"><use xlink:href="#L1_9" x="-350" y="-350"/><use xlink:href="#L1_9" x="0" y="-350"/><use xlink:href="#L1_9" x="350" y="-350"/><use xlink:href="#L1_9" x="-350" y="0"/><use xlink:href="#L1_9" x="0" y="0"/><use xlink:href="#L1_9" x="350" y="0"/><use xlink:href="#L1_9" x="-350" y="350"/><use xlink:href="#L1_9" x="0" y="350"/><use xlink:href="#L1_9" x="350" y="350"/></pattern><rect x="0" y="0" width="100%" height="100%" fill="url(#pattern_L1_9)"/></g><g fi:class="KUsePattern"><pattern id="pattern_L1_10" width="350" height="350" patternUnits="userSpaceOnUse"><use xlink:href="#L1_10" x="-350" y="-350"/><use xlink:href="#L1_10" x="0" y="-350"/><use xlink:href="#L1_10" x="350" y="-350"/><use xlink:href="#L1_10" x="-350" y="0"/><use xlink:href="#L1_10" x="0" y="0"/><use xlink:href="#L1_10" x="350" y="0"/><use xlink:href="#L1_10" x="-350" y="350"/><use xlink:href="#L1_10" x="0" y="350"/><use xlink:href="#L1_10" x="350" y="350"/></pattern><rect x="0" y="0" width="100%" height="100%" fill="url(#pattern_L1_10)"/></g></svg>