<svg xmlns="http://www.w3.org/2000/svg" width="146.4" height="38" viewBox="0 0 146.4 38"><defs><style>.a{fill:#ff5a5a;}.b{fill:#232c39;}</style></defs><path class="a" d="M1108.383,601.623a3.117,3.117,0,1,0,3.117,3.117A3.117,3.117,0,0,0,1108.383,601.623Z" transform="translate(-1058.247 -569.864)"/><path class="b" d="M1455.174,496.606h-5.556c-.1,0-.194,0-.29,0-.418-.018-.667-.174-.743-.491a.68.68,0,0,1,.372-.748q2.25-1.521,4.5-3.037c2.392-1.613,4.8-3.2,7.171-4.848a6.933,6.933,0,0,0,2.288-8.812,6.213,6.213,0,0,0-5.688-3.681H1442.37a.583.583,0,0,0-.585.582l.01,4.965a.873.873,0,0,0,.876.869h6.168q2.9,0,5.8,0a.675.675,0,0,1,.73.46c.1.3-.016.544-.357.774q-2.384,1.609-4.771,3.216c-2.275,1.532-4.572,3.033-6.817,4.606a6.612,6.612,0,0,0-3.137,5.832,6.838,6.838,0,0,0,2.265,5.042,7.2,7.2,0,0,0,1.92,1.223,5.878,5.878,0,0,0,2.3.367h2.017l4.585,0,1.848,0a.586.586,0,0,0,.586-.581V497.25A.635.635,0,0,0,1455.174,496.606Z" transform="translate(-1317.836 -471.888)"/><path class="a" d="M994.566,504.816a3.117,3.117,0,1,0,3.117,3.117A3.117,3.117,0,0,0,994.566,504.816Z" transform="translate(-969.63 -495.025)"/><path class="a" d="M1064.292,538.48a.564.564,0,0,1,.553.455,7.725,7.725,0,0,0,15.164,0,.564.564,0,0,1,.551-.455h5.329a.57.57,0,0,1,.562.643,14.115,14.115,0,0,1-28.045.02.57.57,0,0,1,.56-.643Z" transform="translate(-1022.179 -521.17)"/><path class="b" d="M1207.771,484.86a.565.565,0,0,1-.553-.456,7.723,7.723,0,0,0-15.163,0,.565.565,0,0,1-.551.456h-5.329a.571.571,0,0,1-.562-.643,14.112,14.112,0,0,1,28.045-.02.571.571,0,0,1-.56.644Z" transform="translate(-1120.71 -469.356)"/><path class="b" d="M1335.088,484.86a.565.565,0,0,1-.553-.456,7.723,7.723,0,0,0-15.164,0,.564.564,0,0,1-.551.456h-5.329a.571.571,0,0,1-.562-.643,14.112,14.112,0,0,1,28.045-.02.571.571,0,0,1-.56.644Z" transform="translate(-1219.327 -469.356)"/><path class="a" d="M903.608,538.48a.565.565,0,0,1,.553.455,7.725,7.725,0,0,0,15.163,0,.565.565,0,0,1,.552-.455H925.2a.571.571,0,0,1,.562.643,14.114,14.114,0,0,1-28.045.02.571.571,0,0,1,.56-.643Z" transform="translate(-897.717 -521.17)"/><path class="b" d="M1064.352,477.179a.557.557,0,0,0,.547-.442,7.7,7.7,0,0,1,15.046,0,.557.557,0,0,0,.547.442h5.287a.558.558,0,0,0,.557-.623,14.067,14.067,0,0,0-21.682-9.815v-4.491a.58.58,0,0,0-.583-.576h-5.087a.579.579,0,0,0-.583.576v14.377a.557.557,0,0,0,.56.553Z" transform="translate(-1022.178 -461.673)"/><path class="b" d="M1199.582,545.18a7.753,7.753,0,0,1-7.554-6.247.563.563,0,0,0-.55-.455h-5.3a.57.57,0,0,0-.56.643,14.168,14.168,0,0,0,13.969,12.516,13.859,13.859,0,0,0,7.713-2.339v1.746a.59.59,0,0,0,.585.594h5.2a.59.59,0,0,0,.585-.594V539.049a.567.567,0,0,0-.563-.571h-5.414a.563.563,0,0,0-.55.455A7.752,7.752,0,0,1,1199.582,545.18Z" transform="translate(-1120.71 -521.17)"/><path class="b" d="M1326.8,545.18a7.753,7.753,0,0,1-7.554-6.247.563.563,0,0,0-.55-.455H1313.4a.57.57,0,0,0-.56.643,14.168,14.168,0,0,0,13.969,12.516,13.858,13.858,0,0,0,7.713-2.339v1.746a.59.59,0,0,0,.585.594h5.2a.59.59,0,0,0,.586-.594V539.049a.567.567,0,0,0-.563-.571h-5.414a.563.563,0,0,0-.549.455A7.753,7.753,0,0,1,1326.8,545.18Z" transform="translate(-1219.254 -521.17)"/><path class="a" d="M.384,0H5.851a.384.384,0,0,1,.384.384V12.775a.384.384,0,0,1-.384.384H.384A.384.384,0,0,1,0,12.775V.384A.384.384,0,0,1,.384,0Z" transform="translate(28.835 17.308)"/><circle class="b" cx="3.117" cy="3.117" r="3.117" transform="translate(138.901 29.62) rotate(-76.718)"/></svg>