<svg id="Layer_1" data-name="Layer 1" xmlns="http://www.w3.org/2000/svg" viewBox="0 0 3200 1200"><defs><style>.cls-1{opacity:0.25;}.cls-2{fill:#fff;}</style></defs><title>pattern-25</title><g class="cls-1"><path class="cls-2" d="M2664.2,24.35a1.18,1.18,0,0,0-.93.45h-25.83a1.17,1.17,0,0,0-2,.36h-33.46a1.17,1.17,0,0,0-2-.36h-33.12a1.18,1.18,0,1,0,0,1.46h33.12a1.17,1.17,0,0,0,2-.36h33.46a1.17,1.17,0,0,0,2,.36h25.83a1.18,1.18,0,1,0,.93-1.91Z"/><path class="cls-2" d="M2546.47,159.71a1.18,1.18,0,0,0-1.12.82h-39.29a1.17,1.17,0,0,0-2-.36h-26.56a1.18,1.18,0,1,0,0,1.46H2504a1.17,1.17,0,0,0,2-.36h39.29a1.17,1.17,0,0,0,2.24,0h40.75a1.18,1.18,0,1,0,0-.73h-40.75A1.18,1.18,0,0,0,2546.47,159.71Z"/><path class="cls-2" d="M2682.71,159.71a1.18,1.18,0,0,0-.93.45H2654.5a1.18,1.18,0,1,0,0,1.46h27.29a1.17,1.17,0,0,0,2-.36h32.73a1.18,1.18,0,1,0,0-.73h-32.73A1.18,1.18,0,0,0,2682.71,159.71Z"/><path class="cls-2" d="M2667.63,92a1.18,1.18,0,0,0-1.12.82h-32.73a1.17,1.17,0,0,0-2-.36h-27.29a1.18,1.18,0,1,0,0,1.46h27.29a1.17,1.17,0,0,0,2-.36h32.73a1.18,1.18,0,1,0,1.12-1.55Z"/><circle class="cls-2" cx="2362.36" cy="93.21" r="1.18"/><path class="cls-2" d="M2370.59,24.35a1.18,1.18,0,0,0-.93.45H2338a1.17,1.17,0,0,0-2,.36H2301a1.18,1.18,0,1,0,0,.73H2336a1.17,1.17,0,0,0,2,.36h31.66a1.18,1.18,0,1,0,.93-1.91Z"/><path class="cls-2" d="M2439.07,24.35a1.18,1.18,0,0,0-.93.45h-12.72a1.18,1.18,0,1,0,0,1.46h12.72a1.18,1.18,0,1,0,.93-1.91Z"/><path class="cls-2" d="M2417.07,227.8a1.18,1.18,0,1,0,.93,1.91h26.56a1.17,1.17,0,0,0,2-.36h39.29a1.18,1.18,0,0,0,2.24,0h40.75a1.18,1.18,0,1,0,0-.73h-40.75a1.18,1.18,0,0,0-2.24,0h-39.29a1.17,1.17,0,0,0-2-.36H2418A1.18,1.18,0,0,0,2417.07,227.8Z"/><path class="cls-2" d="M2758.71,430.83a1.18,1.18,0,0,0-1.12.82h-36.37a1.17,1.17,0,0,0-2-.36h-13.08a1.17,1.17,0,0,0-2,.36h-34.19a1.18,1.18,0,1,0,0,.73H2704a1.17,1.17,0,0,0,2,.36h13.08a1.17,1.17,0,0,0,2-.36h36.37a1.18,1.18,0,1,0,1.12-1.55Z"/><path class="cls-2" d="M2752,498.51a1.18,1.18,0,0,0-.93.45h-27.29a1.18,1.18,0,1,0,0,1.46h27.29a1.17,1.17,0,0,0,2-.36h32.73a1.18,1.18,0,1,0,0-.73h-32.73A1.18,1.18,0,0,0,2752,498.51Z"/><path class="cls-2" d="M2766.5,159.71a1.18,1.18,0,1,0,1.12,1.55h32a1.18,1.18,0,1,0,0-.73h-32A1.18,1.18,0,0,0,2766.5,159.71Z"/><circle class="cls-2" cx="2701.88" cy="296.66" r="1.18"/><path class="cls-2" d="M2708.16,229.35h32a1.18,1.18,0,1,0,0-.73h-32a1.18,1.18,0,1,0,0,.73Z"/><path class="cls-2" d="M2704.39,363.16a1.18,1.18,0,1,0,1.12,1.55h32a1.18,1.18,0,1,0,0-.73h-32A1.18,1.18,0,0,0,2704.39,363.16Z"/><circle class="cls-2" cx="2130.02" cy="228.99" r="1.18"/><path class="cls-2" d="M1879.78,703.92a1.18,1.18,0,0,0,1.12-.82h40.75a1.17,1.17,0,0,0,2,.36h33.85a1.18,1.18,0,1,0,0-1.46H1923.7a1.17,1.17,0,0,0-2,.36H1880.9a1.18,1.18,0,1,0-1.12,1.55Z"/><path class="cls-2" d="M1924.36,973.14h-28a1.18,1.18,0,1,0,0,1.46h28a1.18,1.18,0,1,0,0-1.46Z"/><path class="cls-2" d="M1938,907.38a1.18,1.18,0,0,0,1.12-.82H1975a1.17,1.17,0,0,0,2,.36h27.29a1.18,1.18,0,1,0,0-1.46H1977a1.17,1.17,0,0,0-2,.36h-35.89a1.17,1.17,0,0,0-2-.36h-12.23a1.18,1.18,0,1,0,0,1.46H1937A1.18,1.18,0,0,0,1938,907.38Z"/><path class="cls-2" d="M2834.2,703.92a1.18,1.18,0,1,0-1.12-1.55h-32a1.18,1.18,0,1,0,0,.73h32A1.18,1.18,0,0,0,2834.2,703.92Z"/><path class="cls-2" d="M1820.77,703.92a1.18,1.18,0,1,0-.93-1.91h-28a1.18,1.18,0,1,0,0,1.46h28A1.18,1.18,0,0,0,1820.77,703.92Z"/><path class="cls-2" d="M2011.7,430.83a1.18,1.18,0,0,0-1.12.82h-39.29a1.17,1.17,0,0,0-2-.36h-26.56a1.18,1.18,0,1,0,0,1.46h26.56a1.17,1.17,0,0,0,2-.36h39.29a1.18,1.18,0,0,0,2.24,0h40.75a1.18,1.18,0,1,0,0-.73h-40.75A1.18,1.18,0,0,0,2011.7,430.83Z"/><path class="cls-2" d="M2053.78,363.16a1.18,1.18,0,1,0,.93,1.91h12.72a1.18,1.18,0,1,0,0-1.46h-12.72A1.18,1.18,0,0,0,2053.78,363.16Z"/><path class="cls-2" d="M1966.36,365.52a1.18,1.18,0,0,0,.93-.45h31.66a1.18,1.18,0,1,0,0-1.46h-31.66a1.17,1.17,0,0,0-2,.36h-34.92a1.18,1.18,0,1,0,0,.73h34.92A1.18,1.18,0,0,0,1966.36,365.52Z"/><path class="cls-2" d="M2097.75,498.51a1.18,1.18,0,0,0-1.12.82h-34.92a1.18,1.18,0,1,0,0,.73h34.92a1.17,1.17,0,0,0,2,.36h31.66a1.18,1.18,0,1,0,0-1.46h-31.66A1.18,1.18,0,0,0,2097.75,498.51Z"/><path class="cls-2" d="M2233.62,24.35a1.18,1.18,0,0,0-.93.45h-33.85a1.17,1.17,0,0,0-2,.36h-40.75a1.18,1.18,0,1,0,0,.73h40.75a1.17,1.17,0,0,0,2,.36h33.85a1.18,1.18,0,1,0,.93-1.91Z"/><circle class="cls-2" cx="2189.48" cy="160.89" r="1.18"/><path class="cls-2" d="M2898.07,24.35a1.18,1.18,0,0,0-1.12.82H2856.2a1.18,1.18,0,0,0-2.24,0h-39.29a1.17,1.17,0,0,0-2-.36h-26.56a1.18,1.18,0,1,0,0,1.46h26.56a1.17,1.17,0,0,0,2-.36H2854a1.18,1.18,0,0,0,2.24,0h40.75a1.18,1.18,0,1,0,1.12-1.55Z"/><path class="cls-2" d="M2277.85,92a1.18,1.18,0,0,0-1.12.82h-33.46a1.17,1.17,0,0,0-2-.36H2208.1a1.18,1.18,0,1,0,0,1.46h33.12a1.17,1.17,0,0,0,2-.36h33.46a1.17,1.17,0,0,0,2,.36h25.83a1.18,1.18,0,1,0,0-1.46h-25.83A1.18,1.18,0,0,0,2277.85,92Z"/><path class="cls-2" d="M2130.47,159.71a1.18,1.18,0,0,0-.93.45h-12.72a1.18,1.18,0,1,0,0,1.46h12.72a1.18,1.18,0,1,0,.93-1.91Z"/><circle class="cls-2" cx="3023.53" cy="567.38" r="1.18"/><path class="cls-2" d="M2002.53,227.8a1.18,1.18,0,0,0-.93.45h-31.66a1.17,1.17,0,0,0-2,.36H1933a1.18,1.18,0,1,0,0,.73h34.92a1.17,1.17,0,0,0,2,.36h31.66a1.18,1.18,0,1,0,.93-1.91Z"/><path class="cls-2" d="M2937,159.71a1.18,1.18,0,0,0-1.12.82h-40.75a1.17,1.17,0,0,0-2-.36h-27.29a1.18,1.18,0,1,0,0,1.46h27.29a1.17,1.17,0,0,0,2-.36h40.75a1.18,1.18,0,1,0,1.12-1.55Z"/><path class="cls-2" d="M3002.82,633.88a1.18,1.18,0,1,0,.93,1.91H3031a1.17,1.17,0,0,0,2-.36h40.75a1.18,1.18,0,1,0,0-.73h-40.75a1.17,1.17,0,0,0-2-.36h-27.29A1.18,1.18,0,0,0,3002.82,633.88Z"/><path class="cls-2" d="M3060,297h40.75a1.18,1.18,0,1,0,0-.73H3060a1.18,1.18,0,0,0-2.24,0h-39.29a1.17,1.17,0,0,0-2-.36h-26.56a1.18,1.18,0,1,0,0,1.46h26.56a1.17,1.17,0,0,0,2-.36h39.29a1.18,1.18,0,0,0,2.24,0Z"/><path class="cls-2" d="M3157.58,566.2a1.18,1.18,0,0,0-1.12.82h-39.29a1.17,1.17,0,0,0-2-.36h-26.56a1.18,1.18,0,1,0,0,1.46h26.56a1.17,1.17,0,0,0,2-.36h39.29a1.18,1.18,0,0,0,2.24,0h40.75a1.18,1.18,0,0,0,.55.66v-2a1.18,1.18,0,0,0-.55.66H3158.7A1.18,1.18,0,0,0,3157.58,566.2Z"/><path class="cls-2" d="M3065.88,701.55a1.18,1.18,0,0,0-.93.45h-12.23a1.18,1.18,0,1,0,0,1.46H3065a1.17,1.17,0,0,0,2-.36h35.89a1.17,1.17,0,0,0,2,.36h27.29a1.18,1.18,0,1,0,0-1.46h-27.29a1.17,1.17,0,0,0-2,.36H3067A1.18,1.18,0,0,0,3065.88,701.55Z"/><path class="cls-2" d="M3195.12,295.48a1.18,1.18,0,0,0-.93.45H3166.9a1.18,1.18,0,1,0,0,1.46h27.29a1.17,1.17,0,0,0,2-.36H3200v-.73h-3.76A1.18,1.18,0,0,0,3195.12,295.48Z"/><path class="cls-2" d="M3170.74,430.83a1.18,1.18,0,1,0,1.12,1.55H3200v-.73h-28.14A1.18,1.18,0,0,0,3170.74,430.83Z"/><path class="cls-2" d="M2904.47,975.05a1.18,1.18,0,0,0,1.12-.82h32a1.18,1.18,0,1,0,0-.73h-32a1.18,1.18,0,1,0-1.12,1.55Z"/><path class="cls-2" d="M2848.87,907.38a1.18,1.18,0,0,0,1.12-.82h40.75a1.17,1.17,0,0,0,2,.36h33.85a1.18,1.18,0,1,0,0-1.46h-33.85a1.17,1.17,0,0,0-2,.36H2850a1.18,1.18,0,1,0-1.12,1.55Z"/><path class="cls-2" d="M2855.65,636.24a1.18,1.18,0,1,0-1.12-1.55H2821.8a1.17,1.17,0,0,0-2-.36h-27.29a1.18,1.18,0,1,0,0,1.46h27.29a1.17,1.17,0,0,0,2-.36h32.73A1.18,1.18,0,0,0,2855.65,636.24Z"/><path class="cls-2" d="M2945.4,839.27a1.18,1.18,0,0,0,.93-.45h27.29a1.18,1.18,0,1,0,0-1.46h-27.29a1.17,1.17,0,0,0-2,.36h-35.89a1.17,1.17,0,0,0-2-.36h-12.23a1.18,1.18,0,1,0,0,1.46h12.24a1.17,1.17,0,0,0,2-.36h35.89A1.18,1.18,0,0,0,2945.4,839.27Z"/><path class="cls-2" d="M2993.86,907.38a1.18,1.18,0,0,0,1.12-.82h34.92a1.17,1.17,0,0,0,2,.36h31.66a1.18,1.18,0,1,0,0-1.46h-31.66a1.17,1.17,0,0,0-2,.36H2995a1.18,1.18,0,1,0-1.12,1.55Z"/><path class="cls-2" d="M2997.25,771.6a1.18,1.18,0,1,0-1.12-1.55h-40.75a1.18,1.18,0,0,0-2.24,0h-39.29a1.17,1.17,0,0,0-2-.36h-26.56a1.18,1.18,0,1,0,0,1.46h26.56a1.17,1.17,0,0,0,2-.36h39.29a1.18,1.18,0,0,0,2.24,0h40.75A1.18,1.18,0,0,0,2997.25,771.6Z"/><path class="cls-2" d="M3037.77,430.83a1.18,1.18,0,0,0-1.12.82h-35.89a1.17,1.17,0,0,0-2-.36h-12.23a1.18,1.18,0,1,0,0,1.46h12.24a1.17,1.17,0,0,0,2-.36h35.89a1.17,1.17,0,0,0,2,.36H3066a1.18,1.18,0,1,0,0-1.46H3038.7A1.18,1.18,0,0,0,3037.77,430.83Z"/><path class="cls-2" d="M3049.63,92a1.18,1.18,0,0,0-.93.45h-27.29a1.17,1.17,0,0,0-2,.36h-35.89a1.17,1.17,0,0,0-2-.36H2969.2a1.18,1.18,0,1,0,0,1.46h12.24a1.17,1.17,0,0,0,2-.36h35.89a1.17,1.17,0,0,0,2,.36h27.29a1.18,1.18,0,1,0,.93-1.91Z"/><path class="cls-2" d="M3070.55,159.71a1.18,1.18,0,0,0-1.12.82h-35.89a1.17,1.17,0,0,0-2-.36h-12.23a1.18,1.18,0,1,0,0,1.46h12.23a1.17,1.17,0,0,0,2-.36h35.89a1.17,1.17,0,0,0,2,.36h27.29a1.18,1.18,0,1,0,0-1.46h-27.29A1.18,1.18,0,0,0,3070.55,159.71Z"/><path class="cls-2" d="M3026.29,24.35a1.18,1.18,0,0,0-1.12.82h-32.73a1.17,1.17,0,0,0-2-.36H2963.1a1.18,1.18,0,1,0,0,1.46h27.29a1.17,1.17,0,0,0,2-.36h32.73a1.18,1.18,0,1,0,1.12-1.55Z"/><path class="cls-2" d="M3109.35,24.35a1.18,1.18,0,0,0-1.12.82h-32a1.18,1.18,0,1,0,0,.73h32a1.18,1.18,0,1,0,1.12-1.55Z"/><path class="cls-2" d="M3090.5,771.6a1.18,1.18,0,0,0,1.12-.82h32.73a1.18,1.18,0,1,0,0-.73h-32.73a1.17,1.17,0,0,0-2-.36h-27.29a1.18,1.18,0,1,0,0,1.46h27.29A1.18,1.18,0,0,0,3090.5,771.6Z"/><path class="cls-2" d="M2956.22,363.16a1.18,1.18,0,1,0,.93,1.91h12.24a1.17,1.17,0,0,0,2-.36h35.89a1.17,1.17,0,0,0,2,.36h27.29a1.18,1.18,0,1,0,0-1.46h-27.29a1.17,1.17,0,0,0-2,.36h-35.89a1.17,1.17,0,0,0-2-.36h-12.23A1.18,1.18,0,0,0,2956.22,363.16Z"/><path class="cls-2" d="M2958.88,227.8a1.18,1.18,0,1,0,.93,1.91H2972a1.17,1.17,0,0,0,2-.36H3010a1.17,1.17,0,0,0,2,.36h27.29a1.18,1.18,0,1,0,0-1.46H3012a1.17,1.17,0,0,0-2,.36h-35.89a1.17,1.17,0,0,0-2-.36H2959.8A1.18,1.18,0,0,0,2958.88,227.8Z"/><path class="cls-2" d="M2934.14,498.51a1.18,1.18,0,1,0,.93,1.91h27.29a1.17,1.17,0,0,0,2-.36h40.75a1.18,1.18,0,1,0,0-.73H2964.4a1.17,1.17,0,0,0-2-.36h-27.29A1.18,1.18,0,0,0,2934.14,498.51Z"/><path class="cls-2" d="M3173.46,24.35a1.18,1.18,0,1,0,.93,1.91H3200V24.81h-25.61A1.18,1.18,0,0,0,3173.46,24.35Z"/><path class="cls-2" d="M3153.46,92a1.18,1.18,0,1,0,1.12,1.55h34.19a1.17,1.17,0,0,0,2,.36H3200V92.48h-9.19a1.17,1.17,0,0,0-2,.36h-34.19A1.18,1.18,0,0,0,3153.46,92Z"/><path class="cls-2" d="M3170.39,636.24a1.18,1.18,0,0,0,1.12-.82H3200v-.73h-28.49a1.17,1.17,0,0,0-2-.36h-12.23a1.18,1.18,0,1,0,0,1.46h12.24A1.18,1.18,0,0,0,3170.39,636.24Z"/><path class="cls-2" d="M3141.4,363.16a1.18,1.18,0,1,0,1.12,1.55h34.19a1.17,1.17,0,0,0,2,.36h13.08a1.17,1.17,0,0,0,2-.36H3200V364h-6.12a1.17,1.17,0,0,0-2-.36h-13.08a1.17,1.17,0,0,0-2,.36h-34.19A1.18,1.18,0,0,0,3141.4,363.16Z"/><path class="cls-2" d="M3138.71,499.33h-35.89a1.17,1.17,0,0,0-2-.36h-12.23a1.18,1.18,0,1,0,0,1.46h12.23a1.17,1.17,0,0,0,2-.36h35.89a1.17,1.17,0,0,0,2,.36H3168a1.18,1.18,0,1,0,0-1.46h-27.29a1.17,1.17,0,0,0-2,.36Z"/><path class="cls-2" d="M3144.06,227.8a1.18,1.18,0,1,0,1.12,1.55h34.19a1.17,1.17,0,0,0,2,.36h13.08a1.17,1.17,0,0,0,2-.36H3200v-.73h-3.46a1.17,1.17,0,0,0-2-.36h-13.08a1.17,1.17,0,0,0-2,.36h-34.19A1.18,1.18,0,0,0,3144.06,227.8Z"/><circle class="cls-2" cx="1877.64" cy="432.02" r="1.18"/><path class="cls-2" d="M1594.52,636.24a1.18,1.18,0,1,0-.93-1.91H1571.4a1.17,1.17,0,0,0-2,.36H1530.8a1.17,1.17,0,0,0-2-.36h-20a1.17,1.17,0,0,0-2,.36h-.09v.73h.09a1.17,1.17,0,0,0,2,.36h20a1.17,1.17,0,0,0,2-.36h38.56a1.17,1.17,0,0,0,2,.36h22.19A1.18,1.18,0,0,0,1594.52,636.24Z"/><path class="cls-2" d="M1509.32,839.27a1.18,1.18,0,1,0-.93-1.91h-12.72a1.18,1.18,0,1,0,0,1.46h12.72A1.18,1.18,0,0,0,1509.32,839.27Z"/><circle class="cls-2" cx="1654.7" cy="432.02" r="1.18"/><path class="cls-2" d="M1721,703.92a1.18,1.18,0,1,0-1.12-1.55h-44.39a1.17,1.17,0,0,0-2-.36H1643.2a1.18,1.18,0,1,0,0,1.46h30.21a1.17,1.17,0,0,0,2-.36h44.39A1.18,1.18,0,0,0,1721,703.92Z"/><path class="cls-2" d="M1620.55,500.88a1.18,1.18,0,1,0-.93-1.91h-26.56a1.18,1.18,0,1,0,0,1.46h26.56A1.18,1.18,0,0,0,1620.55,500.88Z"/><path class="cls-2" d="M1370.16,839.27a1.18,1.18,0,0,0,1.12-.82h34.92a1.17,1.17,0,0,0,2,.36h31.66a1.18,1.18,0,1,0,0-1.46h-31.66a1.17,1.17,0,0,0-2,.36h-34.92a1.18,1.18,0,1,0-1.12,1.55Z"/><path class="cls-2" d="M1614.36,771.6a1.18,1.18,0,0,0,.93-.45h27.29a1.17,1.17,0,0,0,2-.36h32.73a1.18,1.18,0,1,0,0-.73h-32.73a1.17,1.17,0,0,0-2-.36h-27.29a1.18,1.18,0,1,0-.93,1.91Z"/><path class="cls-2" d="M1382.08,907.38a1.18,1.18,0,0,0,.93-.45h26.56a1.17,1.17,0,0,0,2-.36h39.29a1.18,1.18,0,0,0,2.24,0h40.75a1.18,1.18,0,1,0,0-.73h-40.75a1.18,1.18,0,0,0-2.24,0h-39.29a1.17,1.17,0,0,0-2-.36H1383a1.18,1.18,0,1,0-.93,1.91Z"/><path class="cls-2" d="M1437.32,771.6a1.18,1.18,0,0,0,.93-.45h26.56a1.17,1.17,0,0,0,2-.36h39.29a1.18,1.18,0,0,0,2.24,0h40.75a1.18,1.18,0,1,0,0-.73h-40.75a1.18,1.18,0,0,0-2.24,0h-39.29a1.17,1.17,0,0,0-2-.36h-26.56a1.18,1.18,0,1,0-.93,1.91Z"/><path class="cls-2" d="M1466,703.92a1.18,1.18,0,0,0,.93-.45h22.19a1.18,1.18,0,1,0,0-1.46h-22.19a1.17,1.17,0,0,0-2,.36h-38.56a1.17,1.17,0,0,0-2-.36h-20a1.17,1.17,0,0,0-2,.36h-.09v.73h.09a1.17,1.17,0,0,0,2,.36h20a1.17,1.17,0,0,0,2-.36h38.56A1.18,1.18,0,0,0,1466,703.92Z"/><path class="cls-2" d="M1541.58,566.2a1.18,1.18,0,0,0-1.12.82h-34.92a1.18,1.18,0,1,0,0,.73h34.92a1.17,1.17,0,0,0,2,.36h31.66a1.18,1.18,0,1,0,0-1.46H1542.5A1.18,1.18,0,0,0,1541.58,566.2Z"/><circle class="cls-2" cx="1373.21" cy="770.41" r="1.18"/><path class="cls-2" d="M1362.84,636.24a1.18,1.18,0,0,0,.93-.45h34.3v-.37h35.78a1.18,1.18,0,1,0,0-.73h-35.78v-.36h-34.3a1.18,1.18,0,1,0-.93,1.91Z"/><path class="cls-2" d="M1525.83,498.51a1.18,1.18,0,0,0-.93.45h-22.19a1.17,1.17,0,0,0-2,.36h-38.56a1.17,1.17,0,0,0-2-.36h-20a1.17,1.17,0,0,0-2,.36h-.09v.73h.09a1.17,1.17,0,0,0,2,.36h20a1.17,1.17,0,0,0,2-.36h38.56a1.17,1.17,0,0,0,2,.36h22.19a1.18,1.18,0,1,0,.93-1.91Z"/><path class="cls-2" d="M1727.29,771.6a1.18,1.18,0,0,0,1.12-.82h32a1.18,1.18,0,1,0,0-.73h-32a1.18,1.18,0,1,0-1.12,1.55Z"/><path class="cls-2" d="M1695.33,363.16a1.18,1.18,0,1,0,.93,1.91h28a1.18,1.18,0,1,0,0-1.46h-28A1.18,1.18,0,0,0,1695.33,363.16Z"/><path class="cls-2" d="M1698,227.8a1.18,1.18,0,1,0,.93,1.91h28a1.18,1.18,0,1,0,0-1.46h-28A1.18,1.18,0,0,0,1698,227.8Z"/><path class="cls-2" d="M1737.26,92a1.18,1.18,0,0,0-.93.45h-28a1.18,1.18,0,1,0,0,1.46h28a1.18,1.18,0,1,0,.93-1.91Z"/><path class="cls-2" d="M1819.89,431.29h-25.83a1.17,1.17,0,0,0-2,.36h-33.46a1.17,1.17,0,0,0-2-.36h-33.12a1.18,1.18,0,1,0,0,1.46h33.12a1.17,1.17,0,0,0,2-.36H1792a1.17,1.17,0,0,0,2,.36h25.83a1.18,1.18,0,1,0,0-1.46Z"/><path class="cls-2" d="M1842.53,907.38a1.18,1.18,0,1,0-1.12-1.55h-40.75a1.17,1.17,0,0,0-2-.36h-27.29a1.18,1.18,0,1,0,0,1.46h27.29a1.17,1.17,0,0,0,2-.36h40.75A1.18,1.18,0,0,0,1842.53,907.38Z"/><path class="cls-2" d="M1806.26,1110.41a1.18,1.18,0,0,0,.93-.45h28a1.18,1.18,0,1,0,0-1.46h-28a1.18,1.18,0,1,0-.93,1.91Z"/><path class="cls-2" d="M1594.77,431.29H1582a1.18,1.18,0,1,0,0,1.46h12.72a1.18,1.18,0,1,0,0-1.46Z"/><path class="cls-2" d="M1855.67,499h-28a1.18,1.18,0,1,0,0,1.46h28a1.18,1.18,0,1,0,0-1.46Z"/><circle class="cls-2" cx="1702.59" cy="567.38" r="1.18"/><path class="cls-2" d="M1660.82,633.88a1.18,1.18,0,1,0,.93,1.91h26.56a1.18,1.18,0,1,0,0-1.46h-26.56A1.18,1.18,0,0,0,1660.82,633.88Z"/><path class="cls-2" d="M1756.79,500.88a1.18,1.18,0,1,0-1.12-1.55h-44.39a1.17,1.17,0,0,0-2-.36H1679a1.18,1.18,0,1,0,0,1.46h30.21a1.17,1.17,0,0,0,2-.36h44.39A1.18,1.18,0,0,0,1756.79,500.88Z"/><path class="cls-2" d="M1904.11,295.48a1.18,1.18,0,0,0-.93.45h-20a1.17,1.17,0,0,0-2,.36H1881V297h.09a1.17,1.17,0,0,0,2,.36h20a1.17,1.17,0,0,0,2-.36h38.56a1.17,1.17,0,0,0,2,.36H1968a1.18,1.18,0,1,0,0-1.46h-22.19a1.17,1.17,0,0,0-2,.36h-38.56A1.18,1.18,0,0,0,1904.11,295.48Z"/><path class="cls-2" d="M1738.2,295.94a1.18,1.18,0,1,0,0,1.46h34.3V297h35.78a1.18,1.18,0,1,0,0-.73H1772.5v-.36Z"/><path class="cls-2" d="M1862.9,365.52a1.18,1.18,0,1,0-.93-1.91h-33.85a1.17,1.17,0,0,0-2,.36h-40.75a1.18,1.18,0,1,0,0,.73h40.75a1.17,1.17,0,0,0,2,.36H1862A1.18,1.18,0,0,0,1862.9,365.52Z"/><circle class="cls-2" cx="1675.34" cy="296.66" r="1.18"/><path class="cls-2" d="M2065.84,94.4a1.18,1.18,0,0,0,.93-.45h12.72a1.18,1.18,0,1,0,0-1.46h-12.72a1.18,1.18,0,1,0-.93,1.91Z"/><path class="cls-2" d="M2095.92,24.35a1.18,1.18,0,0,0-.93.45h-28a1.18,1.18,0,1,0,0,1.46h28a1.18,1.18,0,1,0,.93-1.91Z"/><path class="cls-2" d="M2102.57,568.57a1.18,1.18,0,1,0-1.12-1.55H2060.7a1.18,1.18,0,0,0-2.24,0h-39.29a1.17,1.17,0,0,0-2-.36h-26.56a1.18,1.18,0,1,0,0,1.46h26.56a1.17,1.17,0,0,0,2-.36h39.29a1.18,1.18,0,0,0,2.24,0h40.75A1.18,1.18,0,0,0,2102.57,568.57Z"/><path class="cls-2" d="M2011.93,92a1.18,1.18,0,0,0-.93.45h-31.66a1.17,1.17,0,0,0-2,.36h-34.92a1.18,1.18,0,1,0,0,.73h34.92a1.17,1.17,0,0,0,2,.36H2011a1.18,1.18,0,1,0,.93-1.91Z"/><path class="cls-2" d="M2056.44,227.8a1.18,1.18,0,1,0,.93,1.91h12.72a1.18,1.18,0,1,0,0-1.46h-12.72A1.18,1.18,0,0,0,2056.44,227.8Z"/><path class="cls-2" d="M1996.11,24.35a1.18,1.18,0,0,0-1.12.82H1950.6a1.17,1.17,0,0,0-2-.36h-30.21a1.18,1.18,0,1,0,0,1.46h30.21a1.17,1.17,0,0,0,2-.36H1995a1.18,1.18,0,1,0,1.12-1.55Z"/><path class="cls-2" d="M1889.32,159.71a1.18,1.18,0,0,0-1.12.82h-40.75a1.18,1.18,0,1,0,0,.73h40.75a1.17,1.17,0,0,0,2,.36h33.85a1.18,1.18,0,1,0,0-1.46h-33.85A1.18,1.18,0,0,0,1889.32,159.71Z"/><path class="cls-2" d="M2032.42,839.27a1.18,1.18,0,0,0,.93-.45h27.29a1.17,1.17,0,0,0,2-.36h32.73a1.18,1.18,0,1,0,0-.73h-32.73a1.17,1.17,0,0,0-2-.36h-27.29a1.18,1.18,0,1,0-.93,1.91Z"/><circle class="cls-2" cx="1925.53" cy="567.38" r="1.18"/><path class="cls-2" d="M2031.34,771.6a1.18,1.18,0,0,0,.93-.45h27.29a1.18,1.18,0,1,0,0-1.46h-27.29a1.17,1.17,0,0,0-2,.36h-35.89a1.17,1.17,0,0,0-2-.36h-12.23a1.18,1.18,0,1,0,0,1.46h12.23a1.17,1.17,0,0,0,2-.36h35.89A1.18,1.18,0,0,0,2031.34,771.6Z"/><path class="cls-2" d="M1895.41,633.88a1.18,1.18,0,1,0,.93,1.91h28a1.18,1.18,0,1,0,0-1.46h-28A1.18,1.18,0,0,0,1895.41,633.88Z"/><path class="cls-2" d="M1994.3,500.88a1.18,1.18,0,1,0-.93-1.91h-33.85a1.17,1.17,0,0,0-2,.36h-40.75a1.18,1.18,0,1,0,0,.73h40.75a1.17,1.17,0,0,0,2,.36h33.85A1.18,1.18,0,0,0,1994.3,500.88Z"/><path class="cls-2" d="M2063,633.88a1.18,1.18,0,0,0-.93.45h-33.85a1.17,1.17,0,0,0-2,.36h-40.75a1.18,1.18,0,1,0,0,.73h40.75a1.17,1.17,0,0,0,2,.36h33.85a1.18,1.18,0,1,0,.93-1.91Z"/><path class="cls-2" d="M2061.92,701.55a1.18,1.18,0,0,0-1.12.82h-34.92a1.18,1.18,0,1,0,0,.73h34.92a1.17,1.17,0,0,0,2,.36h31.66a1.18,1.18,0,1,0,0-1.46h-31.66A1.18,1.18,0,0,0,2061.92,701.55Z"/><path class="cls-2" d="M1594.52,972.69a1.18,1.18,0,0,0-.93.45H1571.4a1.17,1.17,0,0,0-2,.36H1530.8a1.17,1.17,0,0,0-2-.36h-20a1.17,1.17,0,0,0-2,.36h-.09v.73h.09a1.17,1.17,0,0,0,2,.36h20a1.17,1.17,0,0,0,2-.36h38.56a1.17,1.17,0,0,0,2,.36h22.19a1.18,1.18,0,1,0,.93-1.91Z"/><path class="cls-2" d="M1391.42,432a1.18,1.18,0,0,0-2.11-.73h-33.85a1.17,1.17,0,0,0-2,.36h-40.75a1.18,1.18,0,1,0,0,.73h40.75a1.17,1.17,0,0,0,2,.36h33.85a1.18,1.18,0,0,0,2.11-.73Z"/><path class="cls-2" d="M1359.44,566.2a1.18,1.18,0,1,0,1.12,1.55h40.75a1.17,1.17,0,0,0,2,.36h33.85a1.18,1.18,0,1,0,0-1.46h-33.85a1.17,1.17,0,0,0-2,.36h-40.75A1.18,1.18,0,0,0,1359.44,566.2Z"/><path class="cls-2" d="M1415.62,297.85a1.18,1.18,0,1,0-.93-1.91H1387.4a1.17,1.17,0,0,0-2,.36h-35.89a1.17,1.17,0,0,0-2-.36h-12.23a1.18,1.18,0,1,0,0,1.46h12.23a1.17,1.17,0,0,0,2-.36h35.89a1.17,1.17,0,0,0,2,.36h27.29A1.18,1.18,0,0,0,1415.62,297.85Z"/><path class="cls-2" d="M1627.82,567.38a1.18,1.18,0,0,0,2.11.73h12.72a1.18,1.18,0,1,0,0-1.46h-12.72a1.18,1.18,0,0,0-2.11.73Z"/><path class="cls-2" d="M1628,227.8a1.18,1.18,0,0,0-1.12.82h-44.39a1.17,1.17,0,0,0-2-.36h-30.21a1.18,1.18,0,1,0,0,1.46h30.21a1.17,1.17,0,0,0,2-.36h44.39a1.18,1.18,0,1,0,1.12-1.55Z"/><path class="cls-2" d="M1571.66,1108a1.18,1.18,0,1,0,.93,1.91h26.56a1.18,1.18,0,1,0,0-1.46h-26.56A1.18,1.18,0,0,0,1571.66,1108Z"/><path class="cls-2" d="M1825.47,975.05a1.18,1.18,0,1,0-1.12-1.55H1780a1.17,1.17,0,0,0-2-.36h-30.21a1.18,1.18,0,1,0,0,1.46h30.21a1.17,1.17,0,0,0,2-.36h44.39A1.18,1.18,0,0,0,1825.47,975.05Z"/><path class="cls-2" d="M1700.27,1042.73a1.18,1.18,0,0,0,.93-.45h30.21a1.17,1.17,0,0,0,2-.36h44.39a1.18,1.18,0,1,0,0-.73h-44.39a1.17,1.17,0,0,0-2-.36H1701.2a1.18,1.18,0,1,0-.93,1.91Z"/><path class="cls-2" d="M1578.76,363.16a1.18,1.18,0,0,0-.93.45h-30.21a1.18,1.18,0,1,0,0,1.46h30.21a1.17,1.17,0,0,0,2-.36h44.39a1.18,1.18,0,1,0,0-.73h-44.39A1.18,1.18,0,0,0,1578.76,363.16Z"/><path class="cls-2" d="M1688.31,973.14h-26.56a1.18,1.18,0,1,0,0,1.46h26.56a1.18,1.18,0,1,0,0-1.46Z"/><path class="cls-2" d="M1706.29,907.38a1.18,1.18,0,1,0-1.12-1.55h-32a1.18,1.18,0,1,0,0,.73h32A1.18,1.18,0,0,0,1706.29,907.38Z"/><circle class="cls-2" cx="1568.33" cy="838.09" r="1.18"/><path class="cls-2" d="M1584.72,703.92a1.18,1.18,0,1,0-.93-1.91h-26.56a1.18,1.18,0,1,0,0,1.46h26.56A1.18,1.18,0,0,0,1584.72,703.92Z"/><path class="cls-2" d="M2063.67,295.48a1.18,1.18,0,0,0-.93.45h-26.56a1.18,1.18,0,1,0,0,1.46h26.56a1.18,1.18,0,1,0,.93-1.91Z"/><path class="cls-2" d="M1534.4,24.81a1.18,1.18,0,1,0,0,1.46h34.3V25.9h35.78a1.18,1.18,0,1,0,0-.73H1568.7v-.36Z"/><path class="cls-2" d="M1460.74,363.16a1.18,1.18,0,1,0,.93,1.91h26.56a1.18,1.18,0,1,0,0-1.46h-26.56A1.18,1.18,0,0,0,1460.74,363.16Z"/><path class="cls-2" d="M1796.27,92a1.18,1.18,0,1,0,1.12,1.55h40.75a1.17,1.17,0,0,0,2,.36H1874a1.18,1.18,0,1,0,0-1.46h-33.85a1.17,1.17,0,0,0-2,.36h-40.75A1.18,1.18,0,0,0,1796.27,92Z"/><path class="cls-2" d="M1456.54,430.83a1.18,1.18,0,1,0,1.12,1.55h34.92a1.17,1.17,0,0,0,2,.36h31.66a1.18,1.18,0,1,0,0-1.46h-31.66a1.17,1.17,0,0,0-2,.36h-34.92A1.18,1.18,0,0,0,1456.54,430.83Z"/><circle class="cls-2" cx="2139.42" cy="93.21" r="1.18"/><path class="cls-2" d="M1832.38,26.26h26.56a1.18,1.18,0,1,0,0-1.46h-26.56a1.18,1.18,0,1,0,0,1.46Z"/><path class="cls-2" d="M2121.22,295.48a1.18,1.18,0,1,0,.93,1.91h30.21a1.17,1.17,0,0,0,2-.36h44.39a1.18,1.18,0,1,0,0-.73H2154.4a1.17,1.17,0,0,0-2-.36h-30.21A1.18,1.18,0,0,0,2121.22,295.48Z"/><circle class="cls-2" cx="1471.55" cy="25.54" r="1.18"/><path class="cls-2" d="M1225.8,160.16a1.18,1.18,0,1,0,0,1.46h34.3v-.37h35.78a1.18,1.18,0,1,0,0-.73H1260.1v-.36Z"/><circle class="cls-2" cx="1112.88" cy="93.21" r="1.18"/><circle class="cls-2" cx="1103.49" cy="228.99" r="1.18"/><path class="cls-2" d="M2476.53,905a1.18,1.18,0,0,0-.93.45h-31.66a1.17,1.17,0,0,0-2,.36H2407a1.18,1.18,0,1,0,0,.73h34.92a1.17,1.17,0,0,0,2,.36h31.66a1.18,1.18,0,1,0,.93-1.91Z"/><path class="cls-2" d="M1471.61,93.21a1.18,1.18,0,0,0,2.11.73h26.56a1.18,1.18,0,1,0,0-1.46h-26.56a1.18,1.18,0,0,0-2.11.73Z"/><path class="cls-2" d="M1463.39,227.8a1.18,1.18,0,1,0,.93,1.91h26.56a1.18,1.18,0,1,0,0-1.46h-26.56A1.18,1.18,0,0,0,1463.39,227.8Z"/><path class="cls-2" d="M2495.3,92.85H2456a1.17,1.17,0,0,0-2-.36H2427.4a1.18,1.18,0,1,0,0,1.46H2454a1.17,1.17,0,0,0,2-.36h39.29a1.18,1.18,0,0,0,2.24,0h40.75a1.18,1.18,0,1,0,0-.73h-40.75a1.18,1.18,0,0,0-2.24,0Z"/><circle class="cls-2" cx="2550.39" cy="973.87" r="1.18"/><path class="cls-2" d="M2561.47,771.6a1.18,1.18,0,1,0-1.12-1.55h-32.73a1.17,1.17,0,0,0-2-.36h-27.29a1.18,1.18,0,1,0,0,1.46h27.29a1.17,1.17,0,0,0,2-.36h32.73A1.18,1.18,0,0,0,2561.47,771.6Z"/><path class="cls-2" d="M3132.09,905.47h-12.72a1.18,1.18,0,1,0,0,1.46h12.72a1.18,1.18,0,1,0,0-1.46Z"/><circle class="cls-2" cx="2503.87" cy="1041.55" r="1.18"/><path class="cls-2" d="M2478.54,839.27a1.18,1.18,0,1,0-.93-1.91h-27.29a1.17,1.17,0,0,0-2,.36h-35.89a1.17,1.17,0,0,0-2-.36h-12.23a1.18,1.18,0,1,0,0,1.46h12.24a1.17,1.17,0,0,0,2-.36h35.89a1.17,1.17,0,0,0,2,.36h27.29A1.18,1.18,0,0,0,2478.54,839.27Z"/><path class="cls-2" d="M2544.09,905.47h-12.72a1.18,1.18,0,1,0,0,1.46h12.72a1.18,1.18,0,1,0,0-1.46Z"/><path class="cls-2" d="M3168.34,839.27a1.18,1.18,0,1,0-1.12-1.55h-36.37a1.17,1.17,0,0,0-2-.36h-13.08a1.17,1.17,0,0,0-2,.36h-34.19a1.18,1.18,0,1,0,0,.73h34.19a1.17,1.17,0,0,0,2,.36h13.08a1.17,1.17,0,0,0,2-.36h36.37A1.18,1.18,0,0,0,3168.34,839.27Z"/><circle class="cls-2" cx="2412.42" cy="160.89" r="1.18"/><circle class="cls-2" cx="2498.09" cy="25.54" r="1.18"/><path class="cls-2" d="M2716.44,92a1.18,1.18,0,1,0,1.12,1.55h32a1.18,1.18,0,1,0,0-.73h-32A1.18,1.18,0,0,0,2716.44,92Z"/><path class="cls-2" d="M1082.42,295.48a1.18,1.18,0,1,0,1.12,1.55h32a1.18,1.18,0,1,0,0-.73h-32A1.18,1.18,0,0,0,1082.42,295.48Z"/><circle class="cls-2" cx="2721.03" cy="25.54" r="1.18"/><path class="cls-2" d="M3200,770.05h-24.59a1.18,1.18,0,1,0,0,.73H3200Z"/><circle class="cls-2" cx="3192.03" cy="906.19" r="1.18"/><path class="cls-2" d="M2401.72,295.48a1.18,1.18,0,0,0-1.12.82h-40.75a1.18,1.18,0,1,0,0,.73h40.75a1.17,1.17,0,0,0,2,.36h33.85a1.18,1.18,0,1,0,0-1.46h-33.85A1.18,1.18,0,0,0,2401.72,295.48Z"/><circle class="cls-2" cx="1444.33" cy="1176.9" r="1.18"/><path class="cls-2" d="M1388.45,1042.73a1.18,1.18,0,1,0-1.12-1.55h-35.78v-.36h-34.3a1.18,1.18,0,1,0,0,1.46h34.3v-.37h35.78A1.18,1.18,0,0,0,1388.45,1042.73Z"/><path class="cls-2" d="M1481.32,1110.41a1.18,1.18,0,0,0,.93-.45h22.19a1.18,1.18,0,1,0,0-1.46h-22.19a1.17,1.17,0,0,0-2,.36h-38.56a1.17,1.17,0,0,0-2-.36h-20a1.17,1.17,0,0,0-2,.36h-.09v.73h.09a1.17,1.17,0,0,0,2,.36h20a1.17,1.17,0,0,0,2-.36h38.56A1.18,1.18,0,0,0,1481.32,1110.41Z"/><path class="cls-2" d="M1384.39,1176.17h-12.72a1.18,1.18,0,1,0,0,1.46h12.72a1.18,1.18,0,1,0,0-1.46Z"/><circle class="cls-2" cx="1211.76" cy="1109.22" r="1.18"/><circle class="cls-2" cx="1667.27" cy="1176.9" r="1.18"/><path class="cls-2" d="M1235,975.05a1.18,1.18,0,1,0-1.12-1.55h-36.37a1.17,1.17,0,0,0-2-.36h-13.08a1.17,1.17,0,0,0-2,.36h-34.19a1.18,1.18,0,1,0,0,.73h34.19a1.17,1.17,0,0,0,2,.36h13.08a1.17,1.17,0,0,0,2-.36h36.37A1.18,1.18,0,0,0,1235,975.05Z"/><path class="cls-2" d="M439,1110.41a1.18,1.18,0,1,0-1.12-1.55H397.15a1.18,1.18,0,0,0-2.24,0H355.62a1.17,1.17,0,0,0-2-.36H327a1.18,1.18,0,1,0,0,1.46h26.56a1.17,1.17,0,0,0,2-.36h39.29a1.18,1.18,0,0,0,2.24,0h40.75A1.18,1.18,0,0,0,439,1110.41Z"/><circle class="cls-2" cx="2238.29" cy="1109.22" r="1.18"/><path class="cls-2" d="M2254.28,771.6a1.18,1.18,0,1,0-1.12-1.55h-36.37a1.17,1.17,0,0,0-2-.36h-13.08a1.17,1.17,0,0,0-2,.36h-34.19a1.18,1.18,0,1,0,0,.73h34.19a1.17,1.17,0,0,0,2,.36h13.08a1.17,1.17,0,0,0,2-.36h36.37A1.18,1.18,0,0,0,2254.28,771.6Z"/><path class="cls-2" d="M2221,1040.82h-12.72a1.18,1.18,0,1,0,0,1.46H2221a1.18,1.18,0,1,0,0-1.46Z"/><path class="cls-2" d="M766.63,26.26h27.29a1.17,1.17,0,0,0,2-.36H828.7a1.18,1.18,0,1,0,0-.73H796a1.17,1.17,0,0,0-2-.36H766.63a1.18,1.18,0,1,0,0,1.46Z"/><path class="cls-2" d="M1975,1109.22a1.18,1.18,0,0,0-2.11-.73h-33.85a1.17,1.17,0,0,0-2,.36h-40.75a1.18,1.18,0,1,0,0,.73H1937a1.17,1.17,0,0,0,2,.36h33.85a1.18,1.18,0,0,0,2.11-.73Z"/><path class="cls-2" d="M1971.41,1176.54h-32.73a1.17,1.17,0,0,0-2-.36h-27.29a1.18,1.18,0,1,0,0,1.46h27.29a1.17,1.17,0,0,0,2-.36h32.73a1.18,1.18,0,1,0,0-.73Z"/><path class="cls-2" d="M1689.69,1110.41a1.18,1.18,0,0,0,1.12-.82h44.39a1.18,1.18,0,1,0,0-.73h-44.39a1.17,1.17,0,0,0-2-.36h-30.21a1.18,1.18,0,1,0,0,1.46h30.21A1.18,1.18,0,0,0,1689.69,1110.41Z"/><path class="cls-2" d="M229,26.26h12.72a1.18,1.18,0,1,0,0-1.46H229a1.18,1.18,0,1,0,0,1.46Z"/><circle class="cls-2" cx="39.03" cy="1109.22" r="1.18"/><path class="cls-2" d="M217.3,92a1.18,1.18,0,1,0,.93,1.91h26.56a1.17,1.17,0,0,0,2-.36h39.29a1.18,1.18,0,0,0,2.24,0h40.75a1.18,1.18,0,1,0,0-.73H288.36a1.18,1.18,0,0,0-2.24,0H246.83a1.17,1.17,0,0,0-2-.36H218.23A1.18,1.18,0,0,0,217.3,92Z"/><circle class="cls-2" cx="301.61" cy="25.54" r="1.18"/><path class="cls-2" d="M759.1,92a1.18,1.18,0,1,0,.93,1.91h12.23a1.17,1.17,0,0,0,2-.36H810.2a1.17,1.17,0,0,0,2,.36h27.29a1.18,1.18,0,1,0,0-1.46H812.24a1.17,1.17,0,0,0-2,.36H774.31a1.17,1.17,0,0,0-2-.36H760A1.18,1.18,0,0,0,759.1,92Z"/><path class="cls-2" d="M507.27,92a1.18,1.18,0,1,0,1.12,1.55h32a1.18,1.18,0,1,0,0-.73h-32A1.18,1.18,0,0,0,507.27,92Z"/><circle class="cls-2" cx="524.55" cy="25.54" r="1.18"/><path class="cls-2" d="M79.22,839.27a1.18,1.18,0,0,0,1.12-.82h40.75a1.18,1.18,0,1,0,0-.73H80.34a1.17,1.17,0,0,0-2-.36H51a1.18,1.18,0,1,0,0,1.46H78.3A1.18,1.18,0,0,0,79.22,839.27Z"/><path class="cls-2" d="M57.39,972.69a1.18,1.18,0,1,0,.93,1.91H71a1.18,1.18,0,1,0,0-1.46H58.31A1.18,1.18,0,0,0,57.39,972.69Z"/><circle class="cls-2" cx="261.97" cy="1109.22" r="1.18"/><path class="cls-2" d="M269.4,975.05a1.18,1.18,0,0,0,.93-.45h25.83a1.18,1.18,0,1,0,0-1.46H270.32a1.17,1.17,0,0,0-2,.36H234.82a1.17,1.17,0,0,0-2-.36H199.65a1.18,1.18,0,1,0,0,1.46h33.12a1.17,1.17,0,0,0,2-.36h33.46A1.18,1.18,0,0,0,269.4,975.05Z"/><path class="cls-2" d="M2818.28,771.6a1.18,1.18,0,1,0-1.12-1.55h-36.37a1.17,1.17,0,0,0-2-.36h-13.08a1.17,1.17,0,0,0-2,.36h-34.19a1.18,1.18,0,1,0,0,.73h34.19a1.17,1.17,0,0,0,2,.36h13.08a1.17,1.17,0,0,0,2-.36h36.37A1.18,1.18,0,0,0,2818.28,771.6Z"/><path class="cls-2" d="M53.11,771.6a1.18,1.18,0,1,0-.93-1.91h-28a1.18,1.18,0,1,0,0,1.46h28A1.18,1.18,0,0,0,53.11,771.6Z"/><circle class="cls-2" cx="68.49" cy="906.19" r="1.18"/><circle class="cls-2" cx="417.79" cy="1176.9" r="1.18"/><path class="cls-2" d="M2484.36,363.16a1.18,1.18,0,0,0-1.12.82H2444a1.17,1.17,0,0,0-2-.36h-26.56a1.18,1.18,0,1,0,0,1.46h26.56a1.17,1.17,0,0,0,2-.36h39.29a1.18,1.18,0,0,0,2.24,0h40.75a1.18,1.18,0,1,0,0-.73h-40.75A1.18,1.18,0,0,0,2484.36,363.16Z"/><path class="cls-2" d="M2397.19,498.51a1.18,1.18,0,0,0-1.12.82h-33.46a1.17,1.17,0,0,0-2-.36h-33.12a1.18,1.18,0,1,0,0,1.46h33.12a1.17,1.17,0,0,0,2-.36h33.46a1.17,1.17,0,0,0,2,.36h25.83a1.18,1.18,0,1,0,0-1.46h-25.83A1.18,1.18,0,0,0,2397.19,498.51Z"/><circle class="cls-2" cx="2481.7" cy="499.69" r="1.18"/><path class="cls-2" d="M2449,567h-40.75a1.17,1.17,0,0,0-2-.36h-27.29a1.18,1.18,0,1,0,0,1.46h27.29a1.17,1.17,0,0,0,2-.36H2449a1.18,1.18,0,1,0,0-.73Z"/><path class="cls-2" d="M2230.79,568.57a1.18,1.18,0,1,0-1.12-1.55h-32.73a1.17,1.17,0,0,0-2-.36h-27.29a1.18,1.18,0,1,0,0,1.46h27.29a1.17,1.17,0,0,0,2-.36h32.73A1.18,1.18,0,0,0,2230.79,568.57Z"/><path class="cls-2" d="M2402.2,430.83a1.18,1.18,0,0,0-1.12.82h-40.75a1.17,1.17,0,0,0-2-.36H2331a1.18,1.18,0,1,0,0,1.46h27.29a1.17,1.17,0,0,0,2-.36h40.75a1.18,1.18,0,1,0,1.12-1.55Z"/><circle class="cls-2" cx="2327.45" cy="635.06" r="1.18"/><circle class="cls-2" cx="2352.96" cy="228.99" r="1.18"/><circle class="cls-2" cx="2604.03" cy="906.19" r="1.18"/><path class="cls-2" d="M2618.79,839.27a1.18,1.18,0,0,0,.93-.45h13.08a1.17,1.17,0,0,0,2-.36h36.37a1.18,1.18,0,1,0,0-.73h-36.37a1.17,1.17,0,0,0-2-.36h-13.08a1.17,1.17,0,0,0-2,.36h-34.19a1.18,1.18,0,1,0,0,.73h34.19A1.18,1.18,0,0,0,2618.79,839.27Z"/><path class="cls-2" d="M2611.41,770.78h32a1.18,1.18,0,1,0,0-.73h-32a1.18,1.18,0,1,0,0,.73Z"/><circle class="cls-2" cx="2550.39" cy="635.06" r="1.18"/><path class="cls-2" d="M2583.66,568.57a1.18,1.18,0,0,0,.93-.45h27.29a1.18,1.18,0,1,0,0-1.46h-27.29a1.17,1.17,0,0,0-2,.36h-35.89a1.17,1.17,0,0,0-2-.36h-12.23a1.18,1.18,0,1,0,0,1.46h12.24a1.17,1.17,0,0,0,2-.36h35.89A1.18,1.18,0,0,0,2583.66,568.57Z"/><path class="cls-2" d="M2574.38,295.48a1.18,1.18,0,0,0-.93.45H2541.8a1.17,1.17,0,0,0-2,.36h-34.92a1.18,1.18,0,1,0,0,.73h34.92a1.17,1.17,0,0,0,2,.36h31.66a1.18,1.18,0,1,0,.93-1.91Z"/><path class="cls-2" d="M2493.56,636.24a1.18,1.18,0,1,0-.93-1.91H2466.8a1.17,1.17,0,0,0-2,.36h-33.46a1.17,1.17,0,0,0-2-.36h-33.12a1.18,1.18,0,1,0,0,1.46h33.12a1.17,1.17,0,0,0,2-.36h33.46a1.17,1.17,0,0,0,2,.36h25.83A1.18,1.18,0,0,0,2493.56,636.24Z"/><path class="cls-2" d="M2579.93,703.92a1.18,1.18,0,0,0,1.12-.82h40.75a1.18,1.18,0,1,0,0-.73H2581a1.18,1.18,0,0,0-2.24,0h-39.29a1.17,1.17,0,0,0-2-.36h-26.56a1.18,1.18,0,1,0,0,1.46h26.56a1.17,1.17,0,0,0,2-.36h39.29A1.18,1.18,0,0,0,2579.93,703.92Z"/><path class="cls-2" d="M2497.65,433.2a1.18,1.18,0,0,0,1.12-.82h35.89a1.17,1.17,0,0,0,2,.36H2564a1.18,1.18,0,1,0,0-1.46H2536.7a1.17,1.17,0,0,0-2,.36h-35.89a1.17,1.17,0,0,0-2-.36h-12.23a1.18,1.18,0,1,0,0,1.46h12.24A1.18,1.18,0,0,0,2497.65,433.2Z"/><path class="cls-2" d="M2568,1042.73a1.18,1.18,0,0,0,.93-.45h26.56a1.17,1.17,0,0,0,2-.36h39.29a1.18,1.18,0,0,0,2.24,0h40.75a1.18,1.18,0,1,0,0-.73H2639a1.18,1.18,0,0,0-2.24,0h-39.29a1.17,1.17,0,0,0-2-.36h-26.56a1.18,1.18,0,1,0-.93,1.91Z"/><path class="cls-2" d="M2355.59,159.71a1.18,1.18,0,0,0-.93.45h-25.83a1.17,1.17,0,0,0-2,.36h-33.46a1.17,1.17,0,0,0-2-.36h-33.12a1.18,1.18,0,1,0,0,1.46h33.12a1.17,1.17,0,0,0,2-.36h33.46a1.17,1.17,0,0,0,2,.36h25.83a1.18,1.18,0,1,0,.93-1.91Z"/><path class="cls-2" d="M2811.83,839.27a1.18,1.18,0,1,0-1.12-1.55H2770a1.17,1.17,0,0,0-2-.36h-27.29a1.18,1.18,0,1,0,0,1.46h27.29a1.17,1.17,0,0,0,2-.36h40.75A1.18,1.18,0,0,0,2811.83,839.27Z"/><path class="cls-2" d="M2742.45,907.38a1.18,1.18,0,0,0,.93-.45h25.83a1.18,1.18,0,1,0,0-1.46h-25.83a1.17,1.17,0,0,0-2,.36h-33.46a1.17,1.17,0,0,0-2-.36h-33.12a1.18,1.18,0,1,0,0,1.46h33.12a1.17,1.17,0,0,0,2-.36h33.46A1.18,1.18,0,0,0,2742.45,907.38Z"/><path class="cls-2" d="M2684.44,975.05a1.18,1.18,0,0,0,1.12-.82h40.75a1.18,1.18,0,1,0,0-.73h-40.75a1.18,1.18,0,0,0-2.24,0H2644a1.17,1.17,0,0,0-2-.36h-26.56a1.18,1.18,0,1,0,0,1.46H2642a1.17,1.17,0,0,0,2-.36h39.29A1.18,1.18,0,0,0,2684.44,975.05Z"/><path class="cls-2" d="M2684.44,633.88a1.18,1.18,0,0,0-1.12.82H2644a1.17,1.17,0,0,0-2-.36h-26.56a1.18,1.18,0,1,0,0,1.46H2642a1.17,1.17,0,0,0,2-.36h39.29a1.18,1.18,0,0,0,2.24,0h40.75a1.18,1.18,0,1,0,0-.73h-40.75A1.18,1.18,0,0,0,2684.44,633.88Z"/><path class="cls-2" d="M2232.75,227.8a1.18,1.18,0,0,0-.93.45H2198.7a1.18,1.18,0,1,0,0,1.46h33.12a1.17,1.17,0,0,0,2-.36h33.46a1.17,1.17,0,0,0,2,.36h25.83a1.18,1.18,0,1,0,0-1.46h-25.83a1.17,1.17,0,0,0-2,.36h-33.46A1.18,1.18,0,0,0,2232.75,227.8Z"/><path class="cls-2" d="M2298.79,295.94h-28a1.18,1.18,0,1,0,0,1.46h28a1.18,1.18,0,1,0,0-1.46Z"/><path class="cls-2" d="M2279.61,568.57a1.18,1.18,0,0,0,1.12-.82h32a1.18,1.18,0,1,0,0-.73h-32a1.18,1.18,0,1,0-1.12,1.55Z"/><path class="cls-2" d="M2320.32,771.6a1.18,1.18,0,0,0,.93-.45h26.56a1.17,1.17,0,0,0,2-.36h39.29a1.18,1.18,0,0,0,2.24,0h40.75a1.18,1.18,0,1,0,0-.73h-40.75a1.18,1.18,0,0,0-2.24,0h-39.29a1.17,1.17,0,0,0-2-.36h-26.56a1.18,1.18,0,1,0-.93,1.91Z"/><circle class="cls-2" cx="2445.87" cy="702.74" r="1.18"/><path class="cls-2" d="M2290.69,703.92a1.18,1.18,0,0,0,.93-.45h33.12a1.17,1.17,0,0,0,2-.36h33.46a1.17,1.17,0,0,0,2,.36h25.83a1.18,1.18,0,1,0,0-1.46h-25.83a1.17,1.17,0,0,0-2,.36h-33.46a1.17,1.17,0,0,0-2-.36h-33.12a1.18,1.18,0,1,0-.93,1.91Z"/><circle class="cls-2" cx="2350.31" cy="364.34" r="1.18"/><path class="cls-2" d="M2232.84,432.38h32a1.18,1.18,0,1,0,0-.73h-32a1.18,1.18,0,1,0,0,.73Z"/><circle class="cls-2" cx="2258.76" cy="499.69" r="1.18"/><path class="cls-2" d="M2185.18,500.88a1.18,1.18,0,0,0,.93-.45h12.72a1.18,1.18,0,1,0,0-1.46H2186.1a1.18,1.18,0,1,0-.93,1.91Z"/><path class="cls-2" d="M2253.86,636.24a1.18,1.18,0,0,0,.93-.45h12.72a1.18,1.18,0,1,0,0-1.46h-12.72a1.18,1.18,0,1,0-.93,1.91Z"/><path class="cls-2" d="M2658.23,230.17a1.18,1.18,0,1,0-1.12-1.55h-32.73a1.17,1.17,0,0,0-2-.36H2595a1.18,1.18,0,1,0,0,1.46h27.29a1.17,1.17,0,0,0,2-.36h32.73A1.18,1.18,0,0,0,2658.23,230.17Z"/><circle class="cls-2" cx="2127.37" cy="364.34" r="1.18"/><path class="cls-2" d="M2293.48,365.52a1.18,1.18,0,1,0-.93-1.91h-25.83a1.17,1.17,0,0,0-2,.36h-33.46a1.17,1.17,0,0,0-2-.36h-33.12a1.18,1.18,0,1,0,0,1.46h33.12a1.17,1.17,0,0,0,2-.36h33.46a1.17,1.17,0,0,0,2,.36h25.83A1.18,1.18,0,0,0,2293.48,365.52Z"/><path class="cls-2" d="M2641.94,295.94h-12.72a1.18,1.18,0,1,0,0,1.46h12.72a1.18,1.18,0,1,0,0-1.46Z"/><path class="cls-2" d="M2160.42,905a1.18,1.18,0,0,0-.93.45h-13.08a1.17,1.17,0,0,0-2,.36h-34.19a1.18,1.18,0,1,0,0,.73h34.19a1.17,1.17,0,0,0,2,.36h13.08a1.17,1.17,0,0,0,2-.36h36.37a1.18,1.18,0,1,0,0-.73h-36.37A1.18,1.18,0,0,0,2160.42,905Z"/><path class="cls-2" d="M2179.59,836.91a1.18,1.18,0,0,0-1.12.82h-32a1.18,1.18,0,1,0,0,.73h32a1.18,1.18,0,1,0,1.12-1.55Z"/><circle class="cls-2" cx="2222.94" cy="702.74" r="1.18"/><path class="cls-2" d="M2166.44,636.24a1.18,1.18,0,0,0,.93-.45H2199a1.18,1.18,0,1,0,0-1.46h-31.66a1.17,1.17,0,0,0-2,.36H2130.4a1.18,1.18,0,1,0,0,.73h34.92A1.18,1.18,0,0,0,2166.44,636.24Z"/><path class="cls-2" d="M2163.92,703.92A1.18,1.18,0,1,0,2163,702h-12.72a1.18,1.18,0,1,0,0,1.46H2163A1.18,1.18,0,0,0,2163.92,703.92Z"/><path class="cls-2" d="M2118.79,430.83a1.18,1.18,0,1,0,.93,1.91H2147a1.17,1.17,0,0,0,2-.36h32.73a1.18,1.18,0,1,0,0-.73h-32.73a1.17,1.17,0,0,0-2-.36h-27.29A1.18,1.18,0,0,0,2118.79,430.83Z"/><path class="cls-2" d="M2870,500.88a1.18,1.18,0,1,0-1.12-1.55h-32a1.18,1.18,0,1,0,0,.73h32A1.18,1.18,0,0,0,2870,500.88Z"/><path class="cls-2" d="M2591.46,363.16a1.18,1.18,0,1,0,.93,1.91h27.29a1.17,1.17,0,0,0,2-.36h32.73a1.18,1.18,0,1,0,0-.73h-32.73a1.17,1.17,0,0,0-2-.36h-27.29A1.18,1.18,0,0,0,2591.46,363.16Z"/><path class="cls-2" d="M2803.68,295.94h-33.12a1.18,1.18,0,1,0,0,1.46h33.12a1.17,1.17,0,0,0,2-.36h33.46a1.17,1.17,0,0,0,2,.36h25.83a1.18,1.18,0,1,0,0-1.46h-25.83a1.17,1.17,0,0,0-2,.36h-33.46a1.17,1.17,0,0,0-2-.36Z"/><path class="cls-2" d="M2750,702.37h-32.73a1.17,1.17,0,0,0-2-.36H2688a1.18,1.18,0,1,0,0,1.46h27.29a1.17,1.17,0,0,0,2-.36H2750a1.18,1.18,0,1,0,0-.73Z"/><path class="cls-2" d="M2904.2,430.83a1.18,1.18,0,0,0-1.12.82h-40.75a1.17,1.17,0,0,0-2-.36H2833a1.18,1.18,0,1,0,0,1.46h27.29a1.17,1.17,0,0,0,2-.36h40.75a1.18,1.18,0,1,0,1.12-1.55Z"/><path class="cls-2" d="M2768,566.2a1.18,1.18,0,0,0-.93.45H2754a1.17,1.17,0,0,0-2,.36h-34.19a1.18,1.18,0,1,0,0,.73h34.19a1.17,1.17,0,0,0,2,.36h13.08a1.17,1.17,0,0,0,2-.36h36.37a1.18,1.18,0,1,0,0-.73H2769.1A1.18,1.18,0,0,0,2768,566.2Z"/><path class="cls-2" d="M2802.74,365.52a1.18,1.18,0,0,0,.93-.45H2831a1.17,1.17,0,0,0,2-.36h40.75a1.18,1.18,0,1,0,0-.73H2833a1.17,1.17,0,0,0-2-.36h-27.29a1.18,1.18,0,1,0-.93,1.91Z"/><path class="cls-2" d="M2905.59,635.43h32a1.18,1.18,0,1,0,0-.73h-32a1.18,1.18,0,1,0,0,.73Z"/><path class="cls-2" d="M2815.72,93.94H2843a1.17,1.17,0,0,0,2-.36h40.75a1.18,1.18,0,1,0,0-.73h-40.75a1.17,1.17,0,0,0-2-.36h-27.29a1.18,1.18,0,1,0,0,1.46Z"/><path class="cls-2" d="M2805.4,227.8a1.18,1.18,0,1,0,.93,1.91h27.29a1.17,1.17,0,0,0,2-.36h40.75a1.18,1.18,0,1,0,0-.73h-40.75a1.17,1.17,0,0,0-2-.36h-27.29A1.18,1.18,0,0,0,2805.4,227.8Z"/><path class="cls-2" d="M2574.23,498.51a1.18,1.18,0,0,0-.93.45h-26.56a1.18,1.18,0,1,0,0,1.46h26.56a1.17,1.17,0,0,0,2-.36h39.29a1.18,1.18,0,0,0,2.24,0h40.75a1.18,1.18,0,1,0,0-.73h-40.75a1.18,1.18,0,0,0-2.24,0h-39.29A1.18,1.18,0,0,0,2574.23,498.51Z"/><circle class="cls-2" cx="2924.82" cy="296.66" r="1.18"/><path class="cls-2" d="M2898.31,701.55a1.18,1.18,0,1,0,.93,1.91h27.29a1.17,1.17,0,0,0,2-.36h40.75a1.18,1.18,0,1,0,0-.73h-40.75a1.17,1.17,0,0,0-2-.36h-27.29A1.18,1.18,0,0,0,2898.31,701.55Z"/><path class="cls-2" d="M2903.32,566.2a1.18,1.18,0,0,0-.93.45h-33.12a1.18,1.18,0,1,0,0,1.46h33.12a1.17,1.17,0,0,0,2-.36h33.46a1.17,1.17,0,0,0,2,.36h25.83a1.18,1.18,0,1,0,0-1.46h-25.83a1.17,1.17,0,0,0-2,.36h-33.46A1.18,1.18,0,0,0,2903.32,566.2Z"/><path class="cls-2" d="M2062,159.71a1.18,1.18,0,0,0-.93.45H2029.4a1.17,1.17,0,0,0-2,.36h-34.92a1.18,1.18,0,1,0,0,.73h34.92a1.17,1.17,0,0,0,2,.36h31.66a1.18,1.18,0,1,0,.93-1.91Z"/><path class="cls-2" d="M10.87,1042.73a1.18,1.18,0,0,0,.93-.45H24.52a1.18,1.18,0,1,0,0-1.46H11.8a1.18,1.18,0,1,0-.93,1.91Z"/><circle class="cls-2" cx="26.46" cy="702.74" r="1.18"/><path class="cls-2" d="M30.43,568.57a1.18,1.18,0,1,0-.93-1.91h-28a1.18,1.18,0,0,0-.93-.45,1.15,1.15,0,0,0-.55.16v2.05a1.15,1.15,0,0,0,.55.16,1.18,1.18,0,0,0,.93-.45h28A1.18,1.18,0,0,0,30.43,568.57Z"/><circle class="cls-2" cx="84.46" cy="1041.55" r="1.18"/><path class="cls-2" d="M79.56,1178.08a1.18,1.18,0,0,0,.93-.45H92.72a1.17,1.17,0,0,0,2-.36h35.89a1.17,1.17,0,0,0,2,.36H160a1.18,1.18,0,1,0,0-1.46H132.7a1.17,1.17,0,0,0-2,.36H94.77a1.17,1.17,0,0,0-2-.36H80.49a1.18,1.18,0,1,0-.93,1.91Z"/><path class="cls-2" d="M222.89,1042.73a1.18,1.18,0,0,0,.93-.45h25.83a1.18,1.18,0,1,0,0-1.46H223.81a1.17,1.17,0,0,0-2,.36H188.31a1.17,1.17,0,0,0-2-.36H153.14a1.18,1.18,0,1,0,0,1.46h33.12a1.17,1.17,0,0,0,2-.36h33.46A1.18,1.18,0,0,0,222.89,1042.73Z"/><path class="cls-2" d="M177.46,1110.41a1.18,1.18,0,0,0,.93-.45h25.83a1.18,1.18,0,1,0,0-1.46H178.39a1.17,1.17,0,0,0-2,.36H142.88a1.17,1.17,0,0,0-2-.36H107.72a1.18,1.18,0,1,0,0,1.46h33.12a1.17,1.17,0,0,0,2-.36h33.46A1.18,1.18,0,0,0,177.46,1110.41Z"/><path class="cls-2" d="M98.59,159.71a1.18,1.18,0,0,0-.93.45H64.54a1.18,1.18,0,1,0,0,1.46H97.66a1.17,1.17,0,0,0,2-.36h33.46a1.17,1.17,0,0,0,2,.36H161a1.18,1.18,0,1,0,0-1.46H135.21a1.17,1.17,0,0,0-2,.36H99.71A1.18,1.18,0,0,0,98.59,159.71Z"/><path class="cls-2" d="M264.74,1178.08a1.18,1.18,0,0,0,1.12-.82H300a1.17,1.17,0,0,0,2,.36h13.08a1.17,1.17,0,0,0,2-.36h36.37a1.18,1.18,0,1,0,0-.73H317.22a1.17,1.17,0,0,0-2-.36H302.09a1.17,1.17,0,0,0-2,.36H265.86a1.18,1.18,0,1,0-1.12,1.55Z"/><circle class="cls-2" cx="153.19" cy="93.21" r="1.18"/><path class="cls-2" d="M174.11,24.35a1.18,1.18,0,0,0-.93.45H141.53a1.17,1.17,0,0,0-2,.36H104.56a1.18,1.18,0,1,0,0,.73h34.92a1.17,1.17,0,0,0,2,.36h31.66a1.18,1.18,0,1,0,.93-1.91Z"/><path class="cls-2" d="M3.47,975.05a1.18,1.18,0,1,0-.93-1.91H0v1.46H2.55A1.18,1.18,0,0,0,3.47,975.05Z"/><path class="cls-2" d="M96.36,92a1.18,1.18,0,0,0-.93.45H69.6a1.17,1.17,0,0,0-2,.36H34.1a1.17,1.17,0,0,0-2-.36H0v1.46H32a1.17,1.17,0,0,0,2-.36H67.56a1.17,1.17,0,0,0,2,.36H95.43A1.18,1.18,0,1,0,96.36,92Z"/><path class="cls-2" d="M3.47,633.88a1.18,1.18,0,0,0-.93.45H0v1.46H2.55a1.18,1.18,0,1,0,.93-1.91Z"/><path class="cls-2" d="M616.05,1110.41a1.18,1.18,0,0,0,1.12-.82h32a1.18,1.18,0,1,0,0-.73h-32a1.18,1.18,0,1,0-1.12,1.55Z"/><path class="cls-2" d="M777.7,1178.08a1.18,1.18,0,0,0,.93-.45h26.56a1.18,1.18,0,1,0,0-1.46H778.62a1.18,1.18,0,1,0-.93,1.91Z"/><path class="cls-2" d="M714.41,1110.41a1.18,1.18,0,0,0,.93-.45h27.29a1.17,1.17,0,0,0,2-.36h40.75a1.18,1.18,0,1,0,0-.73H744.67a1.17,1.17,0,0,0-2-.36H715.33a1.18,1.18,0,1,0-.93,1.91Z"/><path class="cls-2" d="M832,1042.73a1.18,1.18,0,1,0-1.12-1.55H790.09a1.17,1.17,0,0,0-2-.36H760.76a1.18,1.18,0,1,0,0,1.46H788a1.17,1.17,0,0,0,2-.36h40.75A1.18,1.18,0,0,0,832,1042.73Z"/><path class="cls-2" d="M949.25,1110.41a1.18,1.18,0,1,0-.93-1.91H921a1.17,1.17,0,0,0-2,.36H883.1a1.17,1.17,0,0,0-2-.36H868.82a1.18,1.18,0,1,0,0,1.46h12.23a1.17,1.17,0,0,0,2-.36H919a1.17,1.17,0,0,0,2,.36h27.29A1.18,1.18,0,0,0,949.25,1110.41Z"/><path class="cls-2" d="M835.49,975.05a1.18,1.18,0,0,0,1.12-.82h40.75a1.18,1.18,0,1,0,0-.73H836.61a1.17,1.17,0,0,0-2-.36H807.27a1.18,1.18,0,1,0,0,1.46h27.29A1.18,1.18,0,0,0,835.49,975.05Z"/><path class="cls-2" d="M742.23,975.05a1.18,1.18,0,1,0-1.12-1.55h-32a1.18,1.18,0,1,0,0,.73h32A1.18,1.18,0,0,0,742.23,975.05Z"/><path class="cls-2" d="M863.67,1178.08a1.18,1.18,0,0,0,.93-.45H894.8a1.17,1.17,0,0,0,2-.36h44.39a1.18,1.18,0,1,0,0-.73H896.84a1.17,1.17,0,0,0-2-.36H864.59a1.18,1.18,0,1,0-.93,1.91Z"/><path class="cls-2" d="M479.72,1178.08a1.18,1.18,0,0,0,.93-.45h34.3v-.37h35.78a1.18,1.18,0,1,0,0-.73H514.94v-.36h-34.3a1.18,1.18,0,1,0-.93,1.91Z"/><path class="cls-2" d="M567.24,1110.41a1.18,1.18,0,1,0-1.12-1.55H533.39a1.17,1.17,0,0,0-2-.36H504.05a1.18,1.18,0,1,0,0,1.46h27.29a1.17,1.17,0,0,0,2-.36h32.73A1.18,1.18,0,0,0,567.24,1110.41Z"/><path class="cls-2" d="M441.45,1042.73a1.18,1.18,0,0,0,1.12-.82h40.75a1.18,1.18,0,1,0,0-.73H442.57a1.18,1.18,0,0,0-2.24,0H401a1.17,1.17,0,0,0-2-.36H372.44a1.18,1.18,0,1,0,0,1.46H399a1.17,1.17,0,0,0,2-.36h39.29A1.18,1.18,0,0,0,441.45,1042.73Z"/><path class="cls-2" d="M624.7,1178.08a1.18,1.18,0,0,0,.93-.45h20a1.17,1.17,0,0,0,2-.36h38.56a1.17,1.17,0,0,0,2,.36h22.19a1.18,1.18,0,1,0,0-1.46H688.28a1.17,1.17,0,0,0-2,.36H647.68a1.17,1.17,0,0,0-2-.36h-20a1.17,1.17,0,0,0-2,.36h-.09v.73h.09A1.18,1.18,0,0,0,624.7,1178.08Z"/><path class="cls-2" d="M577.69,1042.73a1.18,1.18,0,0,0,1.12-.82h32.73a1.18,1.18,0,1,0,0-.73H578.81a1.17,1.17,0,0,0-2-.36H549.48a1.18,1.18,0,1,0,0,1.46h27.29A1.18,1.18,0,0,0,577.69,1042.73Z"/><path class="cls-2" d="M204.12,296.3H163.37a1.18,1.18,0,1,0,0,.73h40.75a1.17,1.17,0,0,0,2,.36H240a1.18,1.18,0,1,0,0-1.46H206.16a1.17,1.17,0,0,0-2,.36Z"/><path class="cls-2" d="M624.21,975.05a1.18,1.18,0,0,0,1.12-.82h32.73a1.18,1.18,0,1,0,0-.73H625.33a1.17,1.17,0,0,0-2-.36H596a1.18,1.18,0,1,0,0,1.46h27.29A1.18,1.18,0,0,0,624.21,975.05Z"/><circle class="cls-2" cx="676.05" cy="567.38" r="1.18"/><path class="cls-2" d="M606.27,365.52a1.18,1.18,0,0,0,.93-.45h27.29a1.17,1.17,0,0,0,2-.36h40.75a1.18,1.18,0,1,0,0-.73H636.53a1.17,1.17,0,0,0-2-.36H607.19a1.18,1.18,0,1,0-.93,1.91Z"/><path class="cls-2" d="M659.18,636.24a1.18,1.18,0,1,0-1.12-1.55H625.33a1.17,1.17,0,0,0-2-.36H596a1.18,1.18,0,1,0,0,1.46h27.29a1.17,1.17,0,0,0,2-.36h32.73A1.18,1.18,0,0,0,659.18,636.24Z"/><path class="cls-2" d="M573.16,295.48a1.18,1.18,0,1,0,.93,1.91h33.12a1.17,1.17,0,0,0,2-.36h33.46a1.17,1.17,0,0,0,2,.36h25.83a1.18,1.18,0,1,0,0-1.46H644.76a1.17,1.17,0,0,0-2,.36H609.25a1.17,1.17,0,0,0-2-.36H574.09A1.18,1.18,0,0,0,573.16,295.48Z"/><path class="cls-2" d="M634.76,94.4a1.18,1.18,0,0,0,1.12-.82h40.75a1.18,1.18,0,1,0,0-.73H635.88a1.17,1.17,0,0,0-2-.36H606.55a1.18,1.18,0,1,0,0,1.46h27.29A1.18,1.18,0,0,0,634.76,94.4Z"/><path class="cls-2" d="M676.4,500.88a1.18,1.18,0,1,0-1.12-1.55h-32a1.18,1.18,0,1,0,0,.73h32A1.18,1.18,0,0,0,676.4,500.88Z"/><circle class="cls-2" cx="628.17" cy="432.02" r="1.18"/><path class="cls-2" d="M636.6,702.37h-32a1.18,1.18,0,1,0,0,.73h32a1.18,1.18,0,1,0,0-.73Z"/><path class="cls-2" d="M455.88,905.47H429.32a1.18,1.18,0,1,0,0,1.46h26.56a1.18,1.18,0,1,0,0-1.46Z"/><path class="cls-2" d="M418,975.05a1.18,1.18,0,0,0,.93-.45h26.56a1.17,1.17,0,0,0,2-.36h39.29a1.18,1.18,0,0,0,2.24,0h40.75a1.18,1.18,0,1,0,0-.73H489.09a1.18,1.18,0,0,0-2.24,0H447.56a1.17,1.17,0,0,0-2-.36H418.95a1.18,1.18,0,1,0-.93,1.91Z"/><path class="cls-2" d="M965.53,1042.73a1.18,1.18,0,0,0,.93-.45h27.29a1.18,1.18,0,1,0,0-1.46H966.45a1.17,1.17,0,0,0-2,.36H928.52a1.17,1.17,0,0,0-2-.36H914.24a1.18,1.18,0,1,0,0,1.46h12.24a1.17,1.17,0,0,0,2-.36h35.89A1.18,1.18,0,0,0,965.53,1042.73Z"/><path class="cls-2" d="M388.74,839.27a1.18,1.18,0,0,0,1.12-.82H424a1.17,1.17,0,0,0,2,.36h13.08a1.17,1.17,0,0,0,2-.36h36.37a1.18,1.18,0,1,0,0-.73H441.22a1.17,1.17,0,0,0-2-.36H426.09a1.17,1.17,0,0,0-2,.36H389.86a1.18,1.18,0,1,0-1.12,1.55Z"/><path class="cls-2" d="M601.67,771.6a1.18,1.18,0,0,0,1.12-.82h44.39a1.18,1.18,0,1,0,0-.73H602.79a1.17,1.17,0,0,0-2-.36H570.53a1.18,1.18,0,1,0,0,1.46h30.21A1.18,1.18,0,0,0,601.67,771.6Z"/><path class="cls-2" d="M546.42,907.38a1.18,1.18,0,0,0,1.12-.82h44.39a1.18,1.18,0,1,0,0-.73H547.54a1.17,1.17,0,0,0-2-.36H515.29a1.18,1.18,0,1,0,0,1.46H545.5A1.18,1.18,0,0,0,546.42,907.38Z"/><path class="cls-2" d="M595.4,227.8a1.18,1.18,0,1,0,.93,1.91h27.29a1.17,1.17,0,0,0,2-.36H666.4a1.18,1.18,0,1,0,0-.73H625.66a1.17,1.17,0,0,0-2-.36H596.32A1.18,1.18,0,0,0,595.4,227.8Z"/><path class="cls-2" d="M489.09,159.71a1.18,1.18,0,0,0-.93.45H460.88a1.18,1.18,0,1,0,0,1.46h27.29a1.17,1.17,0,0,0,2-.36h32.73a1.18,1.18,0,1,0,0-.73H490.21A1.18,1.18,0,0,0,489.09,159.71Z"/><path class="cls-2" d="M207.08,227.8a1.18,1.18,0,1,0,.93,1.91h26.56a1.17,1.17,0,0,0,2-.36H275.9a1.18,1.18,0,0,0,2.24,0h40.75a1.18,1.18,0,1,0,0-.73H278.14a1.18,1.18,0,0,0-2.24,0H236.61a1.17,1.17,0,0,0-2-.36H208A1.18,1.18,0,0,0,207.08,227.8Z"/><path class="cls-2" d="M542.15,363.16A1.18,1.18,0,0,0,541,364H509a1.18,1.18,0,1,0,0,.73h32a1.18,1.18,0,1,0,1.12-1.55Z"/><circle class="cls-2" cx="1791.27" cy="838.09" r="1.18"/><path class="cls-2" d="M572.88,159.71a1.18,1.18,0,1,0,1.12,1.55h32a1.18,1.18,0,1,0,0-.73H574A1.18,1.18,0,0,0,572.88,159.71Z"/><path class="cls-2" d="M467.72,24.35a1.18,1.18,0,0,0-.93.45H441a1.17,1.17,0,0,0-2,.36H405.46a1.17,1.17,0,0,0-2-.36H370.29a1.18,1.18,0,1,0,0,1.46h33.12a1.17,1.17,0,0,0,2-.36h33.46a1.17,1.17,0,0,0,2,.36H466.8a1.18,1.18,0,1,0,.93-1.91Z"/><circle class="cls-2" cx="218.8" cy="160.89" r="1.18"/><path class="cls-2" d="M663,905a1.18,1.18,0,1,0,.93,1.91h28a1.18,1.18,0,1,0,0-1.46h-28A1.18,1.18,0,0,0,663,905Z"/><path class="cls-2" d="M352.85,159.71a1.18,1.18,0,0,0-1.12.82H312.44a1.17,1.17,0,0,0-2-.36H283.84a1.18,1.18,0,1,0,0,1.46H310.4a1.17,1.17,0,0,0,2-.36h39.29a1.18,1.18,0,0,0,2.24,0h40.75a1.18,1.18,0,1,0,0-.73H354A1.18,1.18,0,0,0,352.85,159.71Z"/><path class="cls-2" d="M701.59,24.35a1.18,1.18,0,0,0-1.12.82H659.72a1.18,1.18,0,0,0-2.24,0H618.2a1.17,1.17,0,0,0-2-.36H589.59a1.18,1.18,0,1,0,0,1.46h26.56a1.17,1.17,0,0,0,2-.36h39.29a1.18,1.18,0,0,0,2.24,0h40.75a1.18,1.18,0,1,0,1.12-1.55Z"/><path class="cls-2" d="M661.48,1042.73a1.18,1.18,0,0,0,1.12-.82h32a1.18,1.18,0,1,0,0-.73h-32a1.18,1.18,0,1,0-1.12,1.55Z"/><path class="cls-2" d="M590.55,566.2a1.18,1.18,0,1,0,.93,1.91h28a1.18,1.18,0,1,0,0-1.46h-28A1.18,1.18,0,0,0,590.55,566.2Z"/><path class="cls-2" d="M603.72,839.27a1.18,1.18,0,0,0,.93-.45h34.3v-.37h35.78a1.18,1.18,0,1,0,0-.73H638.94v-.36h-34.3a1.18,1.18,0,1,0-.93,1.91Z"/><path class="cls-2" d="M743.36,159.71a1.18,1.18,0,0,0-1.12.82H701.49a1.17,1.17,0,0,0-2-.36H672.16a1.18,1.18,0,1,0,0,1.46h27.29a1.17,1.17,0,0,0,2-.36h40.75a1.18,1.18,0,1,0,1.12-1.55Z"/><circle class="cls-2" cx="728.34" cy="296.66" r="1.18"/><path class="cls-2" d="M2458.36,1178.08a1.18,1.18,0,0,0,1.12-.82h34.19a1.17,1.17,0,0,0,2,.36h13.08a1.17,1.17,0,0,0,2-.36h36.37a1.18,1.18,0,1,0,0-.73h-36.37a1.17,1.17,0,0,0-2-.36h-13.08a1.17,1.17,0,0,0-2,.36h-34.19a1.18,1.18,0,1,0-1.12,1.55Z"/><path class="cls-2" d="M393.3,771.6a1.18,1.18,0,0,0,.93-.45h22.19a1.18,1.18,0,1,0,0-1.46H394.22a1.17,1.17,0,0,0-2,.36H353.62a1.17,1.17,0,0,0-2-.36h-20a1.17,1.17,0,0,0-2,.36h-.09v.73h.09a1.17,1.17,0,0,0,2,.36h20a1.17,1.17,0,0,0,2-.36h38.56A1.18,1.18,0,0,0,393.3,771.6Z"/><path class="cls-2" d="M2419.36,1042.73a1.18,1.18,0,0,0,.93-.45h25.83a1.18,1.18,0,1,0,0-1.46h-25.83a1.17,1.17,0,0,0-2,.36h-33.46a1.17,1.17,0,0,0-2-.36h-33.12a1.18,1.18,0,1,0,0,1.46h33.12a1.17,1.17,0,0,0,2-.36h33.46A1.18,1.18,0,0,0,2419.36,1042.73Z"/><path class="cls-2" d="M2465.87,975.05a1.18,1.18,0,0,0,.93-.45h25.83a1.18,1.18,0,1,0,0-1.46H2466.8a1.17,1.17,0,0,0-2,.36h-33.46a1.17,1.17,0,0,0-2-.36h-33.12a1.18,1.18,0,1,0,0,1.46h33.12a1.17,1.17,0,0,0,2-.36h33.46A1.18,1.18,0,0,0,2465.87,975.05Z"/><circle class="cls-2" cx="2461.23" cy="1109.22" r="1.18"/><path class="cls-2" d="M2243.7,839.27a1.18,1.18,0,0,0,.93-.45h27.29a1.17,1.17,0,0,0,2-.36h40.75a1.18,1.18,0,1,0,0-.73H2274a1.17,1.17,0,0,0-2-.36h-27.29a1.18,1.18,0,1,0-.93,1.91Z"/><path class="cls-2" d="M1012,975.05a1.18,1.18,0,0,0,.93-.45h27.29a1.18,1.18,0,1,0,0-1.46H1013a1.17,1.17,0,0,0-2,.36H975a1.17,1.17,0,0,0-2-.36H960.75a1.18,1.18,0,1,0,0,1.46H973a1.17,1.17,0,0,0,2-.36h35.89A1.18,1.18,0,0,0,1012,975.05Z"/><path class="cls-2" d="M2601.38,1178.08a1.18,1.18,0,0,0,.93-.45h26.56a1.17,1.17,0,0,0,2-.36h39.29a1.18,1.18,0,0,0,2.24,0h40.75a1.18,1.18,0,1,0,0-.73h-40.75a1.18,1.18,0,0,0-2.24,0h-39.29a1.17,1.17,0,0,0-2-.36h-26.56a1.18,1.18,0,1,0-.93,1.91Z"/><path class="cls-2" d="M2553.76,1110.41a1.18,1.18,0,0,0,1.12-.82h39.29a1.18,1.18,0,0,0,2.24,0h40.75a1.18,1.18,0,1,0,0-.73h-40.75a1.18,1.18,0,0,0-2.24,0h-39.29a1.17,1.17,0,0,0-2-.36h-26.56a1.18,1.18,0,1,0,0,1.46h26.56A1.18,1.18,0,0,0,2553.76,1110.41Z"/><path class="cls-2" d="M2303.86,907.38a1.18,1.18,0,0,0,.93-.45h33.85a1.18,1.18,0,1,0,0-1.46h-33.85a1.17,1.17,0,0,0-2,.36H2262a1.18,1.18,0,1,0,0,.73h40.75A1.18,1.18,0,0,0,2303.86,907.38Z"/><path class="cls-2" d="M2376.72,1110.41a1.18,1.18,0,0,0,.93-.45h25.83a1.18,1.18,0,1,0,0-1.46h-25.83a1.17,1.17,0,0,0-2,.36h-33.46a1.17,1.17,0,0,0-2-.36H2307a1.18,1.18,0,1,0,0,1.46h33.12a1.17,1.17,0,0,0,2-.36h33.46A1.18,1.18,0,0,0,2376.72,1110.41Z"/><circle class="cls-2" cx="2327.45" cy="973.87" r="1.18"/><path class="cls-2" d="M2253.86,975.05a1.18,1.18,0,0,0,.93-.45h12.72a1.18,1.18,0,1,0,0-1.46h-12.72a1.18,1.18,0,1,0-.93,1.91Z"/><circle class="cls-2" cx="2280.94" cy="1041.55" r="1.18"/><path class="cls-2" d="M2273.18,1178.08a1.18,1.18,0,0,0,.93-.45h12.24a1.17,1.17,0,0,0,2-.36h35.89a1.17,1.17,0,0,0,2,.36h27.29a1.18,1.18,0,1,0,0-1.46h-27.29a1.17,1.17,0,0,0-2,.36h-35.89a1.17,1.17,0,0,0-2-.36h-12.23a1.18,1.18,0,1,0-.93,1.91Z"/><path class="cls-2" d="M2731.53,1110.41a1.18,1.18,0,0,0,1.12-.82h32.73a1.18,1.18,0,1,0,0-.73h-32.73a1.17,1.17,0,0,0-2-.36h-27.29a1.18,1.18,0,1,0,0,1.46h27.29A1.18,1.18,0,0,0,2731.53,1110.41Z"/><path class="cls-2" d="M3067.15,1110.41a1.18,1.18,0,0,0,.93-.45h12.24a1.17,1.17,0,0,0,2-.36h35.89a1.17,1.17,0,0,0,2,.36h27.29a1.18,1.18,0,1,0,0-1.46h-27.29a1.17,1.17,0,0,0-2,.36h-35.89a1.17,1.17,0,0,0-2-.36h-12.23a1.18,1.18,0,1,0-.93,1.91Z"/><path class="cls-2" d="M3162,1042.73a1.18,1.18,0,0,0,.93-.45h27.29a1.18,1.18,0,1,0,0-1.46h-27.29a1.17,1.17,0,0,0-2,.36H3125a1.17,1.17,0,0,0-2-.36h-12.23a1.18,1.18,0,1,0,0,1.46H3123a1.17,1.17,0,0,0,2-.36h35.89A1.18,1.18,0,0,0,3162,1042.73Z"/><path class="cls-2" d="M2989.7,1178.08a1.18,1.18,0,0,0,.93-.45h27.29a1.17,1.17,0,0,0,2-.36h40.75a1.18,1.18,0,1,0,0-.73H3020a1.17,1.17,0,0,0-2-.36h-27.29a1.18,1.18,0,1,0-.93,1.91Z"/><path class="cls-2" d="M3074.95,975.05a1.18,1.18,0,1,0-1.12-1.55h-40.75a1.17,1.17,0,0,0-2-.36h-27.29a1.18,1.18,0,1,0,0,1.46H3031a1.17,1.17,0,0,0,2-.36h40.75A1.18,1.18,0,0,0,3074.95,975.05Z"/><path class="cls-2" d="M3200,973.51h-28.49a1.17,1.17,0,0,0-2-.36h-12.23a1.18,1.18,0,1,0,0,1.46h12.24a1.17,1.17,0,0,0,2-.36H3200Z"/><path class="cls-2" d="M3200,1176.17h-3.68a1.17,1.17,0,0,0-2,.36h-35.89a1.17,1.17,0,0,0-2-.36h-12.23a1.18,1.18,0,1,0,0,1.46h12.24a1.17,1.17,0,0,0,2-.36h35.89a1.17,1.17,0,0,0,2,.36H3200Z"/><path class="cls-2" d="M0,25.9H.33a1.17,1.17,0,0,0,2,.36H36.22a1.18,1.18,0,1,0,0-1.46H2.37a1.17,1.17,0,0,0-2,.36H0Z"/><path class="cls-2" d="M3028.44,1042.73a1.18,1.18,0,1,0-1.12-1.55h-40.75a1.17,1.17,0,0,0-2-.36h-27.29a1.18,1.18,0,1,0,0,1.46h27.29a1.17,1.17,0,0,0,2-.36h40.75A1.18,1.18,0,0,0,3028.44,1042.73Z"/><path class="cls-2" d="M2778.42,1178.08a1.18,1.18,0,0,0,.93-.45h27.29a1.17,1.17,0,0,0,2-.36h32.73a1.18,1.18,0,1,0,0-.73h-32.73a1.17,1.17,0,0,0-2-.36h-27.29a1.18,1.18,0,1,0-.93,1.91Z"/><path class="cls-2" d="M2849.55,1110.41a1.18,1.18,0,1,0-1.12-1.55h-32a1.18,1.18,0,1,0,0,.73h32A1.18,1.18,0,0,0,2849.55,1110.41Z"/><path class="cls-2" d="M2858,1042.73a1.18,1.18,0,0,0,1.12-.82h32a1.18,1.18,0,1,0,0-.73h-32a1.18,1.18,0,1,0-1.12,1.55Z"/><path class="cls-2" d="M2855.65,975.05a1.18,1.18,0,1,0-1.12-1.55H2821.8a1.17,1.17,0,0,0-2-.36h-27.29a1.18,1.18,0,1,0,0,1.46h27.29a1.17,1.17,0,0,0,2-.36h32.73A1.18,1.18,0,0,0,2855.65,975.05Z"/><path class="cls-2" d="M2942.81,1110.41a1.18,1.18,0,0,0,1.12-.82h40.75a1.18,1.18,0,1,0,0-.73h-40.75a1.17,1.17,0,0,0-2-.36h-27.29a1.18,1.18,0,1,0,0,1.46h27.29A1.18,1.18,0,0,0,2942.81,1110.41Z"/><path class="cls-2" d="M2891.35,1178.08a1.18,1.18,0,0,0,1.12-.82h32a1.18,1.18,0,1,0,0-.73h-32a1.18,1.18,0,1,0-1.12,1.55Z"/><path class="cls-2" d="M2774.17,1042.73a1.18,1.18,0,0,0,1.12-.82H2808a1.18,1.18,0,1,0,0-.73h-32.73a1.17,1.17,0,0,0-2-.36H2746a1.18,1.18,0,1,0,0,1.46h27.29A1.18,1.18,0,0,0,2774.17,1042.73Z"/><path class="cls-2" d="M1261.14,907.38a1.18,1.18,0,1,0-.93-1.91h-25.83a1.17,1.17,0,0,0-2,.36h-33.46a1.17,1.17,0,0,0-2-.36h-33.12a1.18,1.18,0,1,0,0,1.46h33.12a1.17,1.17,0,0,0,2-.36h33.46a1.17,1.17,0,0,0,2,.36h25.83A1.18,1.18,0,0,0,1261.14,907.38Z"/><circle class="cls-2" cx="1254.4" cy="1041.55" r="1.18"/><path class="cls-2" d="M1345.81,1110.41a1.18,1.18,0,1,0-1.12-1.55h-35.78v-.36h-34.3a1.18,1.18,0,1,0,0,1.46h34.3v-.37h35.78A1.18,1.18,0,0,0,1345.81,1110.41Z"/><path class="cls-2" d="M1246.16,1178.08a1.18,1.18,0,0,0,1.12-.82h34.92a1.17,1.17,0,0,0,2,.36h31.66a1.18,1.18,0,1,0,0-1.46h-31.66a1.17,1.17,0,0,0-2,.36h-34.92a1.18,1.18,0,1,0-1.12,1.55Z"/><path class="cls-2" d="M1398.06,974.23h35.78a1.18,1.18,0,1,0,0-.73h-35.78v-.36h-34.3a1.18,1.18,0,1,0,0,1.46h34.3Z"/><path class="cls-2" d="M1512.08,1178.08a1.18,1.18,0,0,0,.93-.45h33.12a1.17,1.17,0,0,0,2-.36h33.46a1.17,1.17,0,0,0,2,.36h25.83a1.18,1.18,0,1,0,0-1.46h-25.83a1.17,1.17,0,0,0-2,.36h-33.46a1.17,1.17,0,0,0-2-.36H1513a1.18,1.18,0,1,0-.93,1.91Z"/><path class="cls-2" d="M1524,1042.73a1.18,1.18,0,0,0,.93-.45h22.19a1.18,1.18,0,1,0,0-1.46h-22.19a1.17,1.17,0,0,0-2,.36h-38.56a1.17,1.17,0,0,0-2-.36h-20a1.17,1.17,0,0,0-2,.36h-.09v.73h.09a1.17,1.17,0,0,0,2,.36h20a1.17,1.17,0,0,0,2-.36h38.56A1.18,1.18,0,0,0,1524,1042.73Z"/><path class="cls-2" d="M1623.23,907.38a1.18,1.18,0,1,0-1.12-1.55h-32.73a1.17,1.17,0,0,0-2-.36H1560a1.18,1.18,0,1,0,0,1.46h27.29a1.17,1.17,0,0,0,2-.36h32.73A1.18,1.18,0,0,0,1623.23,907.38Z"/><path class="cls-2" d="M1012.29,1178.08a1.18,1.18,0,0,0,.93-.45h28a1.18,1.18,0,1,0,0-1.46h-28a1.18,1.18,0,1,0-.93,1.91Z"/><path class="cls-2" d="M1022.37,906.92h12.72a1.18,1.18,0,1,0,0-1.46h-12.72a1.18,1.18,0,1,0,0,1.46Z"/><path class="cls-2" d="M1066.35,839.27a1.18,1.18,0,1,0-1.12-1.55h-44.39a1.17,1.17,0,0,0-2-.36H988.59a1.18,1.18,0,1,0,0,1.46h30.21a1.17,1.17,0,0,0,2-.36h44.39A1.18,1.18,0,0,0,1066.35,839.27Z"/><path class="cls-2" d="M1053.07,1110.41a1.18,1.18,0,0,0,1.12-.82h34.19a1.17,1.17,0,0,0,2,.36h13.08a1.17,1.17,0,0,0,2-.36h36.37a1.18,1.18,0,1,0,0-.73h-36.37a1.17,1.17,0,0,0-2-.36h-13.08a1.17,1.17,0,0,0-2,.36h-34.19a1.18,1.18,0,1,0-1.12,1.55Z"/><path class="cls-2" d="M1101.18,1178.08a1.18,1.18,0,0,0,1.12-.82H1143a1.17,1.17,0,0,0,2,.36h33.85a1.18,1.18,0,1,0,0-1.46h-33.85a1.17,1.17,0,0,0-2,.36H1102.3a1.18,1.18,0,1,0-1.12,1.55Z"/><path class="cls-2" d="M1188.47,1042.73a1.18,1.18,0,1,0-1.12-1.55H1151a1.17,1.17,0,0,0-2-.36h-13.08a1.17,1.17,0,0,0-2,.36h-34.19a1.18,1.18,0,1,0,0,.73h34.19a1.17,1.17,0,0,0,2,.36h13.08a1.17,1.17,0,0,0,2-.36h36.37A1.18,1.18,0,0,0,1188.47,1042.73Z"/><path class="cls-2" d="M1731.38,1178.08a1.18,1.18,0,0,0,.93-.45h26.56a1.17,1.17,0,0,0,2-.36h39.29a1.18,1.18,0,0,0,2.24,0h40.75a1.18,1.18,0,1,0,0-.73h-40.75a1.18,1.18,0,0,0-2.24,0h-39.29a1.17,1.17,0,0,0-2-.36h-26.56a1.18,1.18,0,1,0-.93,1.91Z"/><path class="cls-2" d="M2077.28,1110.41a1.18,1.18,0,0,0,.93-.45h31.66a1.18,1.18,0,1,0,0-1.46h-31.66a1.17,1.17,0,0,0-2,.36h-34.92a1.18,1.18,0,1,0,0,.73h34.92A1.18,1.18,0,0,0,2077.28,1110.41Z"/><path class="cls-2" d="M2119.92,1042.73a1.18,1.18,0,0,0,.93-.45h31.66a1.18,1.18,0,1,0,0-1.46h-31.66a1.17,1.17,0,0,0-2,.36h-34.92a1.18,1.18,0,1,0,0,.73h34.92A1.18,1.18,0,0,0,2119.92,1042.73Z"/><path class="cls-2" d="M2027.28,975.05a1.18,1.18,0,0,0,.93-.45h33.85a1.18,1.18,0,1,0,0-1.46h-33.85a1.17,1.17,0,0,0-2,.36h-40.75a1.18,1.18,0,1,0,0,.73h40.75A1.18,1.18,0,0,0,2027.28,975.05Z"/><path class="cls-2" d="M2021.35,1178.08a1.18,1.18,0,0,0,1.12-.82h32a1.18,1.18,0,1,0,0-.73h-32a1.18,1.18,0,1,0-1.12,1.55Z"/><path class="cls-2" d="M2165.63,1110h12.72a1.18,1.18,0,1,0,0-1.46h-12.72a1.18,1.18,0,1,0,0,1.46Z"/><path class="cls-2" d="M2119.7,1178.08a1.18,1.18,0,0,0,.93-.45h27.29a1.17,1.17,0,0,0,2-.36h40.75a1.18,1.18,0,1,0,0-.73H2150a1.17,1.17,0,0,0-2-.36h-27.29a1.18,1.18,0,1,0-.93,1.91Z"/><path class="cls-2" d="M1854.79,771.6a1.18,1.18,0,0,0,1.12-.82h40.75a1.18,1.18,0,1,0,0-.73h-40.75a1.17,1.17,0,0,0-2-.36h-27.29a1.18,1.18,0,1,0,0,1.46h27.29A1.18,1.18,0,0,0,1854.79,771.6Z"/><path class="cls-2" d="M2200,975.05a1.18,1.18,0,1,0-.93-1.91h-31.66a1.17,1.17,0,0,0-2,.36H2130.4a1.18,1.18,0,1,0,0,.73h34.92a1.17,1.17,0,0,0,2,.36H2199A1.18,1.18,0,0,0,2200,975.05Z"/><path class="cls-2" d="M1671.06,839.27a1.18,1.18,0,0,0,1.12-.82h33.46a1.17,1.17,0,0,0,2,.36h25.83a1.18,1.18,0,1,0,0-1.46h-25.83a1.17,1.17,0,0,0-2,.36h-33.46a1.17,1.17,0,0,0-2-.36H1637a1.18,1.18,0,1,0,0,1.46h33.12A1.18,1.18,0,0,0,1671.06,839.27Z"/><path class="cls-2" d="M1614.31,1042.73a1.18,1.18,0,0,0,.93-.45h26.56a1.18,1.18,0,1,0,0-1.46h-26.56a1.18,1.18,0,1,0-.93,1.91Z"/><path class="cls-2" d="M1883.79,839.27a1.18,1.18,0,0,0,1.12-.82h39.29a1.18,1.18,0,0,0,2.24,0h40.75a1.18,1.18,0,1,0,0-.73h-40.75a1.18,1.18,0,0,0-2.24,0h-39.29a1.17,1.17,0,0,0-2-.36h-26.56a1.18,1.18,0,1,0,0,1.46h26.56A1.18,1.18,0,0,0,1883.79,839.27Z"/><path class="cls-2" d="M1848.9,1042.73a1.18,1.18,0,0,0,.93-.45h28a1.18,1.18,0,1,0,0-1.46h-28a1.18,1.18,0,1,0-.93,1.91Z"/><path class="cls-2" d="M1980.77,1042.73a1.18,1.18,0,0,0,.93-.45h33.85a1.18,1.18,0,1,0,0-1.46H1981.7a1.17,1.17,0,0,0-2,.36H1938.9a1.18,1.18,0,1,0,0,.73h40.75A1.18,1.18,0,0,0,1980.77,1042.73Z"/><path class="cls-2" d="M558.37,498.51a1.18,1.18,0,0,0-.93.45H530.16a1.18,1.18,0,1,0,0,1.46h27.29a1.17,1.17,0,0,0,2-.36h32.73a1.18,1.18,0,1,0,0-.73H559.49A1.18,1.18,0,0,0,558.37,498.51Z"/><path class="cls-2" d="M989.26,771.6a1.18,1.18,0,0,0,.93-.45h31.66a1.18,1.18,0,1,0,0-1.46H990.18a1.17,1.17,0,0,0-2,.36H953.22a1.18,1.18,0,1,0,0,.73h34.92A1.18,1.18,0,0,0,989.26,771.6Z"/><path class="cls-2" d="M1041.18,636.24a1.18,1.18,0,1,0-.93-1.91H1013a1.17,1.17,0,0,0-2,.36H975a1.17,1.17,0,0,0-2-.36H960.75a1.18,1.18,0,1,0,0,1.46H973a1.17,1.17,0,0,0,2-.36h35.89a1.17,1.17,0,0,0,2,.36h27.29A1.18,1.18,0,0,0,1041.18,636.24Z"/><path class="cls-2" d="M896.86,907.38a1.18,1.18,0,0,0,1.12-.82h34.92a1.17,1.17,0,0,0,2,.36H966.6a1.18,1.18,0,1,0,0-1.46H934.94a1.17,1.17,0,0,0-2,.36H898a1.18,1.18,0,1,0-1.12,1.55Z"/><path class="cls-2" d="M1034.78,567.38a1.18,1.18,0,0,0,2.11.73h26.56a1.18,1.18,0,1,0,0-1.46h-26.56a1.18,1.18,0,0,0-2.11.73Z"/><path class="cls-2" d="M929.19,837.36H902.62a1.18,1.18,0,1,0,0,1.46h26.56a1.18,1.18,0,1,0,0-1.46Z"/><path class="cls-2" d="M1015.56,431.29H989a1.18,1.18,0,1,0,0,1.46h26.56a1.18,1.18,0,1,0,0-1.46Z"/><path class="cls-2" d="M944.93,363.16A1.18,1.18,0,1,0,946,364.7h34.19a1.17,1.17,0,0,0,2,.36h13.08a1.17,1.17,0,0,0,2-.36h36.37a1.18,1.18,0,1,0,0-.73H997.41a1.17,1.17,0,0,0-2-.36H982.28a1.17,1.17,0,0,0-2,.36H946A1.18,1.18,0,0,0,944.93,363.16Z"/><path class="cls-2" d="M970.42,297.39h27.29a1.17,1.17,0,0,0,2-.36h32.73a1.18,1.18,0,1,0,0-.73H999.76a1.17,1.17,0,0,0-2-.36H970.42a1.18,1.18,0,1,0,0,1.46Z"/><path class="cls-2" d="M701.83,701.55a1.18,1.18,0,1,0,.93,1.91H730a1.17,1.17,0,0,0,2-.36h40.75a1.18,1.18,0,1,0,0-.73H732.09a1.17,1.17,0,0,0-2-.36H702.76A1.18,1.18,0,0,0,701.83,701.55Z"/><path class="cls-2" d="M718.24,771.6a1.18,1.18,0,0,0,.93-.45h28a1.18,1.18,0,1,0,0-1.46h-28a1.18,1.18,0,1,0-.93,1.91Z"/><path class="cls-2" d="M708,633.88a1.18,1.18,0,1,0,1.12,1.55h32a1.18,1.18,0,1,0,0-.73h-32A1.18,1.18,0,0,0,708,633.88Z"/><path class="cls-2" d="M907.53,703.92a1.18,1.18,0,0,0,.93-.45h27.29a1.18,1.18,0,1,0,0-1.46H908.45a1.17,1.17,0,0,0-2,.36H870.52a1.17,1.17,0,0,0-2-.36H856.24a1.18,1.18,0,1,0,0,1.46h12.24a1.17,1.17,0,0,0,2-.36h35.89A1.18,1.18,0,0,0,907.53,703.92Z"/><path class="cls-2" d="M883,568.57a1.18,1.18,0,0,0,.93-.45h20a1.17,1.17,0,0,0,2-.36H944.5a1.17,1.17,0,0,0,2,.36h22.19a1.18,1.18,0,1,0,0-1.46H946.54a1.17,1.17,0,0,0-2,.36H905.94a1.17,1.17,0,0,0-2-.36h-20a1.17,1.17,0,0,0-2,.36h-.09v.73h.09A1.18,1.18,0,0,0,883,568.57Z"/><path class="cls-2" d="M850.1,771.6a1.18,1.18,0,0,0,.93-.45h33.85a1.18,1.18,0,1,0,0-1.46H851a1.17,1.17,0,0,0-2,.36H808.24a1.18,1.18,0,1,0,0,.73H849A1.18,1.18,0,0,0,850.1,771.6Z"/><path class="cls-2" d="M1300.43,566.2a1.18,1.18,0,0,0-.93.45h-28a1.18,1.18,0,1,0,0,1.46h28a1.18,1.18,0,1,0,.93-1.91Z"/><circle class="cls-2" cx="1317.96" cy="906.19" r="1.18"/><path class="cls-2" d="M1154,568.57a1.18,1.18,0,0,0,1.12-.82h44.39a1.18,1.18,0,1,0,0-.73h-44.39a1.17,1.17,0,0,0-2-.36h-30.21a1.18,1.18,0,1,0,0,1.46h30.21A1.18,1.18,0,0,0,1154,568.57Z"/><path class="cls-2" d="M1136.29,839.27a1.18,1.18,0,0,0,.93-.45h28a1.18,1.18,0,1,0,0-1.46h-28a1.18,1.18,0,1,0-.93,1.91Z"/><circle class="cls-2" cx="1150.27" cy="770.41" r="1.18"/><circle class="cls-2" cx="1300.91" cy="635.06" r="1.18"/><path class="cls-2" d="M1162.76,365.52a1.18,1.18,0,0,0,.93-.45H1198v-.37h35.78a1.18,1.18,0,1,0,0-.73H1198v-.36h-34.3a1.18,1.18,0,1,0-.93,1.91Z"/><path class="cls-2" d="M738,566.2a1.18,1.18,0,1,0,.93,1.91h34.3v-.37H809a1.18,1.18,0,1,0,0-.73H773.21v-.36H738.9A1.18,1.18,0,0,0,738,566.2Z"/><path class="cls-2" d="M1330.45,703.92a1.18,1.18,0,1,0-1.12-1.55h-35.78V702h-34.3a1.18,1.18,0,1,0,0,1.46h34.3v-.37h35.78A1.18,1.18,0,0,0,1330.45,703.92Z"/><path class="cls-2" d="M1166.34,228.26a1.18,1.18,0,1,0,0,1.46h34.3v-.37h35.78a1.18,1.18,0,1,0,0-.73h-35.78v-.36Z"/><path class="cls-2" d="M1252.54,433.2a1.18,1.18,0,1,0-.93-1.91h-28a1.18,1.18,0,1,0,0,1.46h28A1.18,1.18,0,0,0,1252.54,433.2Z"/><circle class="cls-2" cx="1162.94" cy="160.89" r="1.18"/><circle class="cls-2" cx="1232.22" cy="499.69" r="1.18"/><path class="cls-2" d="M1254.09,296.66a1.18,1.18,0,0,0-2.3-.36H1211a1.17,1.17,0,0,0-2-.36H1181.7a1.18,1.18,0,1,0,0,1.46H1209a1.17,1.17,0,0,0,2-.36h40.75a1.18,1.18,0,0,0,2.3-.36Z"/><path class="cls-2" d="M1246.94,92a1.18,1.18,0,0,0-1.12.81H1210v-.36h-34.3a1.18,1.18,0,1,0,0,1.46H1210v-.37h35.78a1.18,1.18,0,1,0,1.12-1.54Z"/><path class="cls-2" d="M1130.53,498.51a1.18,1.18,0,0,0-.93.45h-13.08a1.17,1.17,0,0,0-2,.36h-34.19a1.18,1.18,0,1,0,0,.73h34.19a1.17,1.17,0,0,0,2,.36h13.08a1.17,1.17,0,0,0,2-.36H1168a1.18,1.18,0,1,0,0-.73h-36.37A1.18,1.18,0,0,0,1130.53,498.51Z"/><path class="cls-2" d="M1456.55,159.71a1.18,1.18,0,0,0-.93.45h-22.19a1.17,1.17,0,0,0-2,.36h-38.56a1.17,1.17,0,0,0-2-.36h-20a1.17,1.17,0,0,0-2,.36h-.09v.73h.09a1.17,1.17,0,0,0,2,.36h20a1.17,1.17,0,0,0,2-.36h38.56a1.17,1.17,0,0,0,2,.36h22.19a1.18,1.18,0,1,0,.93-1.91Z"/><path class="cls-2" d="M1519.44,295.48a1.18,1.18,0,1,0,1.12,1.55h34.19a1.17,1.17,0,0,0,2,.36h13.08a1.17,1.17,0,0,0,2-.36h36.37a1.18,1.18,0,1,0,0-.73h-36.37a1.17,1.17,0,0,0-2-.36h-13.08a1.17,1.17,0,0,0-2,.36h-34.19A1.18,1.18,0,0,0,1519.44,295.48Z"/><path class="cls-2" d="M806.34,633.88a1.18,1.18,0,1,0,.93,1.91h27.29a1.17,1.17,0,0,0,2-.36h40.75a1.18,1.18,0,1,0,0-.73H836.61a1.17,1.17,0,0,0-2-.36H807.27A1.18,1.18,0,0,0,806.34,633.88Z"/><path class="cls-2" d="M1406.49,92a1.18,1.18,0,0,0-.93.45h-22.19a1.17,1.17,0,0,0-2,.36h-38.56a1.17,1.17,0,0,0-2-.36h-20a1.17,1.17,0,0,0-2,.36h-.09v.73h.09a1.17,1.17,0,0,0,2,.36h20a1.17,1.17,0,0,0,2-.36h38.56a1.17,1.17,0,0,0,2,.36h22.19a1.18,1.18,0,1,0,.93-1.91Z"/><path class="cls-2" d="M1310.4,227.8a1.18,1.18,0,0,0-1.12.82h-.09v.73h.09a1.17,1.17,0,0,0,2,.36h20a1.17,1.17,0,0,0,2-.36h38.56a1.17,1.17,0,0,0,2,.36h22.19a1.18,1.18,0,1,0,0-1.46H1374a1.17,1.17,0,0,0-2,.36h-38.56a1.17,1.17,0,0,0-2-.36h-20A1.18,1.18,0,0,0,1310.4,227.8Z"/><path class="cls-2" d="M1637.45,92a1.18,1.18,0,0,0-1.12.82h-44.39a1.17,1.17,0,0,0-2-.36h-30.21a1.18,1.18,0,1,0,0,1.46h30.21a1.17,1.17,0,0,0,2-.36h44.39a1.18,1.18,0,1,0,1.12-1.55Z"/><path class="cls-2" d="M1405.62,24.35a1.18,1.18,0,0,0-1.12.82h-36.37a1.17,1.17,0,0,0-2-.36H1353a1.17,1.17,0,0,0-2,.36h-34.19a1.18,1.18,0,1,0,0,.73H1351a1.17,1.17,0,0,0,2,.36h13.08a1.17,1.17,0,0,0,2-.36h36.37a1.18,1.18,0,1,0,1.12-1.55Z"/><path class="cls-2" d="M1307.74,363.16a1.18,1.18,0,0,0-1.12.82h-.09v.73h.09a1.17,1.17,0,0,0,2,.36h20a1.17,1.17,0,0,0,2-.36h38.56a1.17,1.17,0,0,0,2,.36h22.19a1.18,1.18,0,1,0,0-1.46h-22.19a1.17,1.17,0,0,0-2,.36h-38.56a1.17,1.17,0,0,0-2-.36h-20A1.18,1.18,0,0,0,1307.74,363.16Z"/><path class="cls-2" d="M1786.87,227.8a1.18,1.18,0,1,0,1.12,1.55h40.75a1.17,1.17,0,0,0,2,.36h33.85a1.18,1.18,0,1,0,0-1.46h-33.85a1.17,1.17,0,0,0-2,.36H1788A1.18,1.18,0,0,0,1786.87,227.8Z"/><path class="cls-2" d="M1841,568.57a1.18,1.18,0,0,0,.93-.45h25.83a1.18,1.18,0,1,0,0-1.46h-25.83a1.17,1.17,0,0,0-2,.36h-33.46a1.17,1.17,0,0,0-2-.36h-33.12a1.18,1.18,0,1,0,0,1.46h33.12a1.17,1.17,0,0,0,2-.36h33.46A1.18,1.18,0,0,0,1841,568.57Z"/><path class="cls-2" d="M1825.47,636.24a1.18,1.18,0,1,0-1.12-1.55H1780a1.17,1.17,0,0,0-2-.36h-30.21a1.18,1.18,0,1,0,0,1.46h30.21a1.17,1.17,0,0,0,2-.36h44.39A1.18,1.18,0,0,0,1825.47,636.24Z"/><path class="cls-2" d="M1640.88,159.71a1.18,1.18,0,0,0-.93.45h-30.21a1.18,1.18,0,1,0,0,1.46H1640a1.17,1.17,0,0,0,2-.36h44.39a1.18,1.18,0,1,0,0-.73H1642A1.18,1.18,0,0,0,1640.88,159.71Z"/><path class="cls-2" d="M1765.16,24.35a1.18,1.18,0,0,0-.93.45H1742a1.17,1.17,0,0,0-2,.36h-38.56a1.17,1.17,0,0,0-2-.36h-20a1.17,1.17,0,0,0-2,.36h-.09v.73h.09a1.17,1.17,0,0,0,2,.36h20a1.17,1.17,0,0,0,2-.36H1740a1.17,1.17,0,0,0,2,.36h22.19a1.18,1.18,0,1,0,.93-1.91Z"/><path class="cls-2" d="M1787.32,159.71a1.18,1.18,0,0,0-.93.45h-28a1.18,1.18,0,1,0,0,1.46h28a1.18,1.18,0,1,0,.93-1.91Z"/><path class="cls-2" d="M1522.85,159.71a1.18,1.18,0,1,0,.93,1.91h26.56a1.18,1.18,0,1,0,0-1.46h-26.56A1.18,1.18,0,0,0,1522.85,159.71Z"/><circle class="cls-2" cx="1095.03" cy="906.19" r="1.18"/><path class="cls-2" d="M829.63,905.47H795.79a1.17,1.17,0,0,0-2,.36H753a1.18,1.18,0,1,0,0,.73h40.75a1.17,1.17,0,0,0,2,.36h33.85a1.18,1.18,0,1,0,0-1.46Z"/><path class="cls-2" d="M1090.33,769.69h-12.72a1.18,1.18,0,1,0,0,1.46h12.72a1.18,1.18,0,1,0,0-1.46Z"/><path class="cls-2" d="M1294.15,498.51a1.18,1.18,0,1,0,.93,1.91h34.3v-.37h35.78a1.18,1.18,0,1,0,0-.73h-35.78V499h-34.3A1.18,1.18,0,0,0,1294.15,498.51Z"/><path class="cls-2" d="M740.51,498.51a1.18,1.18,0,1,0,.93,1.91h27.29a1.17,1.17,0,0,0,2-.36h40.75a1.18,1.18,0,1,0,0-.73H770.78a1.17,1.17,0,0,0-2-.36H741.44A1.18,1.18,0,0,0,740.51,498.51Z"/><path class="cls-2" d="M793.38,297.39h26.56a1.17,1.17,0,0,0,2-.36h39.29a1.18,1.18,0,0,0,2.24,0h40.75a1.18,1.18,0,1,0,0-.73H863.52a1.18,1.18,0,0,0-2.24,0H822a1.17,1.17,0,0,0-2-.36H793.38a1.18,1.18,0,1,0,0,1.46Z"/><path class="cls-2" d="M773.83,363.16a1.18,1.18,0,0,0-.93.45H760.67a1.18,1.18,0,1,0,0,1.46h12.23a1.17,1.17,0,0,0,2-.36h35.89a1.17,1.17,0,0,0,2,.36h27.29a1.18,1.18,0,1,0,0-1.46H812.89a1.17,1.17,0,0,0-2,.36H775A1.18,1.18,0,0,0,773.83,363.16Z"/><path class="cls-2" d="M835.4,839.27a1.18,1.18,0,1,0-.93-1.91H812.28a1.17,1.17,0,0,0-2,.36H771.68a1.17,1.17,0,0,0-2-.36h-20a1.17,1.17,0,0,0-2,.36h-.09v.73h.09a1.17,1.17,0,0,0,2,.36h20a1.17,1.17,0,0,0,2-.36h38.56a1.17,1.17,0,0,0,2,.36h22.19A1.18,1.18,0,0,0,835.4,839.27Z"/><path class="cls-2" d="M1130.47,703.92a1.18,1.18,0,1,0-1.12-1.55H1093a1.17,1.17,0,0,0-2-.36h-13.08a1.17,1.17,0,0,0-2,.36h-34.19a1.18,1.18,0,1,0,0,.73h34.19a1.17,1.17,0,0,0,2,.36h13.08a1.17,1.17,0,0,0,2-.36h36.37A1.18,1.18,0,0,0,1130.47,703.92Z"/><path class="cls-2" d="M1303.86,839.27a1.18,1.18,0,1,0-.93-1.91h-33.85a1.17,1.17,0,0,0-2,.36H1226.3a1.18,1.18,0,1,0,0,.73H1267a1.17,1.17,0,0,0,2,.36h33.85A1.18,1.18,0,0,0,1303.86,839.27Z"/><path class="cls-2" d="M1316.38,771.6a1.18,1.18,0,1,0-.93-1.91h-25.83a1.17,1.17,0,0,0-2,.36h-33.46a1.17,1.17,0,0,0-2-.36H1219a1.18,1.18,0,1,0,0,1.46h33.12a1.17,1.17,0,0,0,2-.36h33.46a1.17,1.17,0,0,0,2,.36h25.83A1.18,1.18,0,0,0,1316.38,771.6Z"/><circle class="cls-2" cx="1300.91" cy="973.87" r="1.18"/><circle class="cls-2" cx="1196.4" cy="702.74" r="1.18"/><path class="cls-2" d="M1235,636.24a1.18,1.18,0,1,0-1.12-1.55h-36.37a1.17,1.17,0,0,0-2-.36h-13.08a1.17,1.17,0,0,0-2,.36h-34.19a1.18,1.18,0,1,0,0,.73h34.19a1.17,1.17,0,0,0,2,.36h13.08a1.17,1.17,0,0,0,2-.36h36.37A1.18,1.18,0,0,0,1235,636.24Z"/><path class="cls-2" d="M165.64,906.55h35.78a1.18,1.18,0,1,0,0-.73H165.64v-.36h-34.3a1.18,1.18,0,1,0,0,1.46h34.3Z"/><circle class="cls-2" cx="288.08" cy="499.69" r="1.18"/><path class="cls-2" d="M305.77,433.2a1.18,1.18,0,0,0,.93-.45H334a1.18,1.18,0,1,0,0-1.46H306.7a1.17,1.17,0,0,0-2,.36H268.76a1.17,1.17,0,0,0-2-.36H254.48a1.18,1.18,0,1,0,0,1.46h12.23a1.17,1.17,0,0,0,2-.36h35.89A1.18,1.18,0,0,0,305.77,433.2Z"/><path class="cls-2" d="M148.9,566.66a1.18,1.18,0,1,0,0,1.46h34.3v-.37H219a1.18,1.18,0,1,0,0-.73H183.21v-.36Z"/><path class="cls-2" d="M269.4,636.24a1.18,1.18,0,0,0,.93-.45h25.83a1.18,1.18,0,1,0,0-1.46H270.32a1.17,1.17,0,0,0-2,.36H234.82a1.17,1.17,0,0,0-2-.36H199.65a1.18,1.18,0,1,0,0,1.46h33.12a1.17,1.17,0,0,0,2-.36h33.46A1.18,1.18,0,0,0,269.4,636.24Z"/><path class="cls-2" d="M313.51,703.92a1.18,1.18,0,0,0,.93-.45H341a1.17,1.17,0,0,0,2-.36h39.29a1.18,1.18,0,0,0,2.24,0h40.75a1.18,1.18,0,1,0,0-.73H384.57a1.18,1.18,0,0,0-2.24,0H343a1.17,1.17,0,0,0-2-.36H314.44a1.18,1.18,0,1,0-.93,1.91Z"/><path class="cls-2" d="M314.82,568.57a1.18,1.18,0,0,0,1.12-.82H354.5a1.17,1.17,0,0,0,2,.36h22.19a1.18,1.18,0,1,0,0-1.46H356.54a1.17,1.17,0,0,0-2,.36H315.94a1.17,1.17,0,0,0-2-.36h-20a1.17,1.17,0,0,0-2,.36h-.09v.73h.09a1.17,1.17,0,0,0,2,.36h20A1.18,1.18,0,0,0,314.82,568.57Z"/><circle class="cls-2" cx="353.91" cy="635.06" r="1.18"/><circle class="cls-2" cx="541.79" cy="838.09" r="1.18"/><path class="cls-2" d="M511.13,769.69H484.57a1.18,1.18,0,1,0,0,1.46h26.56a1.18,1.18,0,1,0,0-1.46Z"/><path class="cls-2" d="M442.85,568.11h30.21a1.17,1.17,0,0,0,2-.36h44.39a1.18,1.18,0,1,0,0-.73H475.11a1.17,1.17,0,0,0-2-.36H442.85a1.18,1.18,0,1,0,0,1.46Z"/><path class="cls-2" d="M554.66,703.92a1.18,1.18,0,1,0-1.12-1.55H520.81a1.17,1.17,0,0,0-2-.36H491.48a1.18,1.18,0,1,0,0,1.46h27.29a1.17,1.17,0,0,0,2-.36h32.73A1.18,1.18,0,0,0,554.66,703.92Z"/><path class="cls-2" d="M531,633.88a1.18,1.18,0,0,0-1.12.82H489.09a1.18,1.18,0,0,0-2.24,0H447.56a1.17,1.17,0,0,0-2-.36H418.95a1.18,1.18,0,1,0,0,1.46h26.56a1.17,1.17,0,0,0,2-.36h39.29a1.18,1.18,0,0,0,2.24,0h40.75a1.18,1.18,0,1,0,1.12-1.55Z"/><path class="cls-2" d="M186.58,769.69a1.18,1.18,0,1,0,0,1.46h34.3v-.37h35.78a1.18,1.18,0,1,0,0-.73H220.89v-.36Z"/><circle class="cls-2" cx="249.4" cy="702.74" r="1.18"/><path class="cls-2" d="M103.24,295.48a1.18,1.18,0,0,0-.93.45h-28a1.18,1.18,0,1,0,0,1.46h28a1.18,1.18,0,1,0,.93-1.91Z"/><path class="cls-2" d="M490.1,430.83a1.18,1.18,0,0,0-.93.45H476.09a1.17,1.17,0,0,0-2,.36H439.86a1.18,1.18,0,1,0,0,.73H474a1.17,1.17,0,0,0,2,.36h13.08a1.17,1.17,0,0,0,2-.36h36.37a1.18,1.18,0,1,0,0-.73H491.22A1.18,1.18,0,0,0,490.1,430.83Z"/><circle class="cls-2" cx="130.97" cy="635.06" r="1.18"/><path class="cls-2" d="M203.57,498.51a1.18,1.18,0,0,0-1.12.82H169a1.17,1.17,0,0,0-2-.36H133.82a1.18,1.18,0,1,0,0,1.46h33.12a1.17,1.17,0,0,0,2-.36h33.46a1.17,1.17,0,0,0,2,.36h25.83a1.18,1.18,0,1,0,0-1.46H204.49A1.18,1.18,0,0,0,203.57,498.51Z"/><path class="cls-2" d="M86.13,227.8a1.18,1.18,0,0,0-.93.45H59.37a1.17,1.17,0,0,0-2,.36H23.87a1.17,1.17,0,0,0-2-.36H0v1.46H21.82a1.17,1.17,0,0,0,2-.36H57.33a1.17,1.17,0,0,0,2,.36H85.21a1.18,1.18,0,1,0,.93-1.91Z"/><path class="cls-2" d="M36,433.2a1.18,1.18,0,1,0-1.12-1.55h-32a1.18,1.18,0,1,0,0,.73h32A1.18,1.18,0,0,0,36,433.2Z"/><path class="cls-2" d="M6.13,500.88A1.18,1.18,0,1,0,5.2,499H0v1.46H5.2A1.18,1.18,0,0,0,6.13,500.88Z"/><path class="cls-2" d="M2.31,297a1.18,1.18,0,1,0,0-.73H0V297Z"/><path class="cls-2" d="M287.89,363.16a1.18,1.18,0,0,0-1.12.82H247.48a1.17,1.17,0,0,0-2-.36H218.87a1.18,1.18,0,1,0,0,1.46h26.56a1.17,1.17,0,0,0,2-.36h39.29a1.18,1.18,0,0,0,2.24,0h40.75a1.18,1.18,0,1,0,0-.73H289A1.18,1.18,0,0,0,287.89,363.16Z"/><path class="cls-2" d="M384.11,227.8a1.18,1.18,0,1,0,.93,1.91h27.29a1.17,1.17,0,0,0,2-.36h32.73a1.18,1.18,0,1,0,0-.73H414.38a1.17,1.17,0,0,0-2-.36H385A1.18,1.18,0,0,0,384.11,227.8Z"/><path class="cls-2" d="M459.64,93.21a1.18,1.18,0,0,0-2.3-.36H424.6a1.17,1.17,0,0,0-2-.36H395.27a1.18,1.18,0,1,0,0,1.46h27.29a1.17,1.17,0,0,0,2-.36h32.73a1.18,1.18,0,0,0,2.3-.36Z"/><path class="cls-2" d="M1211.82,24.35a1.18,1.18,0,0,0-.93.45h-27.29a1.17,1.17,0,0,0-2,.36h-35.89a1.17,1.17,0,0,0-2-.36h-12.23a1.18,1.18,0,1,0,0,1.46h12.24a1.17,1.17,0,0,0,2-.36h35.89a1.17,1.17,0,0,0,2,.36h27.29a1.18,1.18,0,1,0,.93-1.91Z"/><path class="cls-2" d="M380.61,498.51a1.18,1.18,0,0,0-.93.45H353.12a1.18,1.18,0,1,0,0,1.46h26.56a1.17,1.17,0,0,0,2-.36H421a1.18,1.18,0,0,0,2.24,0H464a1.18,1.18,0,1,0,0-.73H423.25a1.18,1.18,0,0,0-2.24,0H381.73A1.18,1.18,0,0,0,380.61,498.51Z"/><path class="cls-2" d="M459.1,363.16A1.18,1.18,0,0,0,458,364H425.25a1.17,1.17,0,0,0-2-.36H395.91a1.18,1.18,0,1,0,0,1.46H423.2a1.17,1.17,0,0,0,2-.36H458a1.18,1.18,0,1,0,1.12-1.55Z"/><path class="cls-2" d="M377.91,295.48a1.18,1.18,0,0,0-.93.45H345.32a1.17,1.17,0,0,0-2,.36H308.36a1.18,1.18,0,1,0,0,.73h34.92a1.17,1.17,0,0,0,2,.36H377a1.18,1.18,0,1,0,.93-1.91Z"/><path class="cls-2" d="M432.75,297.39h12.72a1.18,1.18,0,1,0,0-1.46H432.75a1.18,1.18,0,1,0,0,1.46Z"/><path class="cls-2" d="M875.81,160.53H839.92a1.17,1.17,0,0,0-2-.36H825.64a1.18,1.18,0,1,0,0,1.46h12.23a1.17,1.17,0,0,0,2-.36h35.89a1.17,1.17,0,0,0,2,.36h27.29a1.18,1.18,0,1,0,0-1.46H877.85a1.17,1.17,0,0,0-2,.36Z"/><circle class="cls-2" cx="353.91" cy="973.87" r="1.18"/><path class="cls-2" d="M921.77,430.83a1.18,1.18,0,0,0-.93.45H898.66a1.17,1.17,0,0,0-2,.36H858.05a1.17,1.17,0,0,0-2-.36H836a1.17,1.17,0,0,0-2,.36h-.09v.73H834a1.17,1.17,0,0,0,2,.36h20a1.17,1.17,0,0,0,2-.36h38.56a1.17,1.17,0,0,0,2,.36h22.19a1.18,1.18,0,1,0,.93-1.91Z"/><path class="cls-2" d="M748.88,227.8a1.18,1.18,0,1,0,.93,1.91H762a1.17,1.17,0,0,0,2-.36H800a1.17,1.17,0,0,0,2,.36h27.29a1.18,1.18,0,1,0,0-1.46H802a1.17,1.17,0,0,0-2,.36H764.08a1.17,1.17,0,0,0-2-.36H749.8A1.18,1.18,0,0,0,748.88,227.8Z"/><path class="cls-2" d="M908.08,498.51a1.18,1.18,0,0,0-.93.45H894.92a1.18,1.18,0,1,0,0,1.46h12.23a1.17,1.17,0,0,0,2-.36h35.89a1.17,1.17,0,0,0,2,.36h27.29a1.18,1.18,0,1,0,0-1.46H947.13a1.17,1.17,0,0,0-2,.36H909.2A1.18,1.18,0,0,0,908.08,498.51Z"/><path class="cls-2" d="M362.1,907.38a1.18,1.18,0,1,0-.93-1.91H339a1.17,1.17,0,0,0-2,.36H298.37a1.17,1.17,0,0,0-2-.36h-20a1.17,1.17,0,0,0-2,.36h-.09v.73h.09a1.17,1.17,0,0,0,2,.36h20a1.17,1.17,0,0,0,2-.36h38.56a1.17,1.17,0,0,0,2,.36h22.19A1.18,1.18,0,0,0,362.1,907.38Z"/><path class="cls-2" d="M725.32,431.29H691a1.18,1.18,0,1,0,0,1.46h34.3v-.37H761.1a1.18,1.18,0,1,0,0-.73H725.32Z"/><path class="cls-2" d="M912.87,24.35a1.18,1.18,0,0,0-1.12.82h-32a1.18,1.18,0,1,0,0,.73h32a1.18,1.18,0,1,0,1.12-1.55Z"/><path class="cls-2" d="M1099.87,159.71a1.18,1.18,0,0,0-1.12.82h-36.37a1.17,1.17,0,0,0-2-.36h-13.08a1.17,1.17,0,0,0-2,.36H1011a1.18,1.18,0,1,0,0,.73h34.19a1.17,1.17,0,0,0,2,.36h13.08a1.17,1.17,0,0,0,2-.36h36.37a1.18,1.18,0,1,0,1.12-1.55Z"/><circle class="cls-2" cx="1100.83" cy="364.34" r="1.18"/><path class="cls-2" d="M934.06,227.8a1.18,1.18,0,1,0,1.12,1.55h34.19a1.17,1.17,0,0,0,2,.36h13.08a1.17,1.17,0,0,0,2-.36h36.37a1.18,1.18,0,1,0,0-.73H986.54a1.17,1.17,0,0,0-2-.36H971.41a1.17,1.17,0,0,0-2,.36H935.18A1.18,1.18,0,0,0,934.06,227.8Z"/><path class="cls-2" d="M1106.1,430.83a1.18,1.18,0,0,0-.93.45H1075a1.18,1.18,0,1,0,0,1.46h30.21a1.17,1.17,0,0,0,2-.36h44.39a1.18,1.18,0,1,0,0-.73h-44.39A1.18,1.18,0,0,0,1106.1,430.83Z"/><path class="cls-2" d="M944.28,92a1.18,1.18,0,1,0,1.12,1.55h34.19a1.17,1.17,0,0,0,2,.36h13.08a1.17,1.17,0,0,0,2-.36h36.37a1.18,1.18,0,1,0,0-.73H996.76a1.17,1.17,0,0,0-2-.36H981.64a1.17,1.17,0,0,0-2,.36H945.4A1.18,1.18,0,0,0,944.28,92Z"/><path class="cls-2" d="M1049.11,24.35a1.18,1.18,0,0,0-1.12.82h-40.75a1.17,1.17,0,0,0-2-.36H977.91a1.18,1.18,0,1,0,0,1.46h27.29a1.17,1.17,0,0,0,2-.36H1048a1.18,1.18,0,1,0,1.12-1.55Z"/><circle class="cls-2" cx="153.83" cy="364.34" r="1.18"/><path class="cls-2" d="M129.22,430.83a1.18,1.18,0,0,0-.93.45H101a1.18,1.18,0,1,0,0,1.46h27.29a1.17,1.17,0,0,0,2-.36h40.75a1.18,1.18,0,1,0,0-.73H130.34A1.18,1.18,0,0,0,129.22,430.83Z"/><path class="cls-2" d="M57.39,633.88a1.18,1.18,0,1,0,.93,1.91H71a1.18,1.18,0,1,0,0-1.46H58.31A1.18,1.18,0,0,0,57.39,633.88Z"/><circle class="cls-2" cx="142.96" cy="228.99" r="1.18"/><circle class="cls-2" cx="65.14" cy="499.69" r="1.18"/><path class="cls-2" d="M531.28,230.17a1.18,1.18,0,1,0-1.12-1.55h-32a1.18,1.18,0,1,0,0,.73h32A1.18,1.18,0,0,0,531.28,230.17Z"/><circle class="cls-2" cx="505.41" cy="296.66" r="1.18"/><circle class="cls-2" cx="130.97" cy="973.87" r="1.18"/><circle class="cls-2" cx="307.4" cy="1041.55" r="1.18"/><path class="cls-2" d="M204.49,838.82h12.23a1.17,1.17,0,0,0,2-.36h35.89a1.17,1.17,0,0,0,2,.36H284a1.18,1.18,0,1,0,0-1.46H256.7a1.17,1.17,0,0,0-2,.36H218.77a1.17,1.17,0,0,0-2-.36H204.49a1.18,1.18,0,1,0,0,1.46Z"/><path class="cls-2" d="M129.19,703.92a1.18,1.18,0,0,0,1.12-.82h33.46a1.17,1.17,0,0,0,2,.36h25.83a1.18,1.18,0,1,0,0-1.46H165.81a1.17,1.17,0,0,0-2,.36H130.31a1.17,1.17,0,0,0-2-.36H95.14a1.18,1.18,0,1,0,0,1.46h33.12A1.18,1.18,0,0,0,129.19,703.92Z"/><circle class="cls-2" cx="86.05" cy="567.38" r="1.18"/><path class="cls-2" d="M97,365.52a1.18,1.18,0,1,0-.93-1.91H70.24a1.17,1.17,0,0,0-2,.36H34.74a1.17,1.17,0,0,0-2-.36H0v1.46H32.69a1.17,1.17,0,0,0,2-.36H68.2a1.17,1.17,0,0,0,2,.36H96.08A1.18,1.18,0,0,0,97,365.52Z"/><circle class="cls-2" cx="123.73" cy="770.41" r="1.18"/></g></svg>