<svg width="23" height="23" viewBox="0 0 23 23" fill="none" xmlns="http://www.w3.org/2000/svg">
<path d="M22.3262 0H19.5859C19.2135 0 18.9121 0.301381 18.9121 0.673828V1.34766H13.3974C13.1183 0.565027 12.3773 0 11.5 0C10.6227 0 9.88173 0.565027 9.60263 1.34766H4.08789V0.673828C4.08789 0.301381 3.78651 0 3.41406 0H0.673828C0.301381 0 0 0.301381 0 0.673828V3.36914C0 3.74159 0.301381 4.04297 0.673828 4.04297H3.41406C3.78651 4.04297 4.08789 3.74159 4.08789 3.36914V2.68633H6.85526C4.51676 4.14723 2.97482 6.71312 2.7905 9.587C1.982 9.85164 1.39258 10.6043 1.39258 11.5C1.39258 12.6147 2.29937 13.5215 3.41406 13.5215C4.52875 13.5215 5.43555 12.6147 5.43555 11.5C5.43555 10.6402 4.89374 9.90918 4.13551 9.61746C4.36542 6.41341 6.60109 3.71288 9.7109 2.94238C10.0472 3.59272 10.7187 4.04297 11.5 4.04297C12.2813 4.04297 12.9528 3.59272 13.2891 2.94238C16.3989 3.71284 18.6346 6.41336 18.8645 9.61741C18.1063 9.90918 17.5645 10.6402 17.5645 11.5C17.5645 12.6147 18.4712 13.5215 19.5859 13.5215C20.7006 13.5215 21.6074 12.6147 21.6074 11.5C21.6074 10.6043 21.018 9.85164 20.2095 9.587C20.0252 6.71312 18.4832 4.15622 16.1447 2.69531H18.9121V3.36914C18.9121 3.74159 19.2135 4.04297 19.5859 4.04297H22.3262C22.6986 4.04297 23 3.74159 23 3.36914V0.673828C23 0.301381 22.6986 0 22.3262 0Z" fill="#283341"/>
<path d="M16.0843 22.1642C15.7318 21.0857 14.7164 20.2598 13.5215 20.2598H9.4785C8.28358 20.2598 7.26816 21.0857 6.91571 22.1642C6.77982 22.5801 7.13358 23 7.57112 23H15.4288C15.8663 23 16.2201 22.5801 16.0843 22.1642Z" fill="#283341"/>
<path d="M17.4513 13.8216L12.1738 5.9054V12.298C12.9565 12.5771 13.5215 13.318 13.5215 14.1953C13.5215 15.31 12.6147 16.2168 11.5 16.2168C10.3853 16.2168 9.47852 15.31 9.47852 14.1953C9.47852 13.318 10.0435 12.5771 10.8262 12.298V5.9054L5.54876 13.8216C5.37042 14.0887 5.40595 14.4447 5.63298 14.6718C6.87 15.9088 7.66071 17.5024 7.96587 19.2118C8.43395 19.0219 8.94305 18.9121 9.47852 18.9121H13.5215C14.057 18.9121 14.5661 19.0219 15.0341 19.2117C15.3393 17.5022 16.13 15.9088 17.367 14.6718C17.5941 14.4447 17.6296 14.0887 17.4513 13.8216Z" fill="#283341"/>
<path d="M11.5 13.5215C11.1282 13.5215 10.8262 13.8235 10.8262 14.1953C10.8262 14.5671 11.1282 14.8691 11.5 14.8691C11.8718 14.8691 12.1738 14.5671 12.1738 14.1953C12.1738 13.8235 11.8718 13.5215 11.5 13.5215Z" fill="#283341"/>
</svg>
