<svg width="31" height="23" viewBox="0 0 31 23" fill="none" xmlns="http://www.w3.org/2000/svg">
<path d="M15.1821 8.33464C15.6776 8.33464 16.1498 8.43822 16.5792 8.62454C16.6114 7.92399 16.8528 7.27615 17.2402 6.73985C16.9675 6.68285 16.6861 6.65251 16.3981 6.65251H13.6688C13.3813 6.65251 13.1 6.68254 12.8294 6.73893C13.2422 7.31169 13.4889 8.01072 13.4929 8.76766C13.9945 8.49185 14.5701 8.33464 15.1821 8.33464Z" fill="#283341"/>
<path d="M15.0328 6.43309C16.8093 6.43309 18.2494 4.99299 18.2494 3.21654C18.2494 1.4401 16.8093 0 15.0328 0C13.2564 0 11.8163 1.4401 11.8163 3.21654C11.8163 4.99299 13.2564 6.43309 15.0328 6.43309Z" fill="#283341"/>
<path d="M20.0847 11.9217C21.7218 11.9217 23.0481 10.5947 23.0481 8.95827C23.0481 7.32119 21.7218 5.99486 20.0847 5.99486C18.4629 5.99486 17.1479 7.29759 17.1234 8.91353C18.0578 9.49947 18.713 10.4905 18.8325 11.641C19.2131 11.8193 19.6363 11.9217 20.0847 11.9217Z" fill="#283341"/>
<path d="M9.98154 5.99454C8.34416 5.99454 7.01782 7.32118 7.01782 8.95795C7.01782 10.5947 8.34416 11.9211 9.98154 11.9211C10.5614 11.9211 11.1004 11.7516 11.5576 11.4638C11.7032 10.5166 12.211 9.68823 12.9364 9.12435C12.9394 9.06889 12.9446 9.01403 12.9446 8.95795C12.9446 7.32118 11.6177 5.99454 9.98154 5.99454Z" fill="#283341"/>
<path d="M22.0095 5.93142C22.9439 6.51736 23.5991 7.50844 23.7183 8.65917C24.0986 8.83722 24.5221 8.93988 24.9705 8.93988C26.6076 8.93988 27.9339 7.61324 27.9339 5.97647C27.9339 4.3397 26.6076 3.01306 24.9705 3.01306C23.349 3.01276 22.034 4.3158 22.0095 5.93142Z" fill="#283341"/>
<path d="M15.182 14.9813C16.8189 14.9813 18.1458 13.6544 18.1458 12.0176C18.1458 10.3808 16.8189 9.05388 15.182 9.05388C13.5452 9.05388 12.2183 10.3808 12.2183 12.0176C12.2183 13.6544 13.5452 14.9813 15.182 14.9813Z" fill="#283341"/>
<path d="M21.3424 12.1236H18.8466C18.8193 13.1221 18.3934 14.0212 17.7192 14.6675C19.5787 15.221 20.9397 16.9457 20.9397 18.983V19.9306C23.4036 19.8395 24.8237 19.1421 24.9172 19.0942L25.1151 18.9937H25.1357V15.9182C25.1363 13.8257 23.4342 12.1236 21.3424 12.1236Z" fill="#283341"/>
<path d="M26.2279 9.14183H23.7327C23.7058 10.1403 23.2795 11.0394 22.6056 11.6857C24.4652 12.2392 25.8258 13.9636 25.8258 16.0009V16.9484C28.2894 16.8577 29.7098 16.1602 29.8033 16.1121L30.0012 16.0119H30.0224V12.9363C30.0224 10.8442 28.3203 9.14183 26.2279 9.14183Z" fill="#283341"/>
<path d="M12.6431 14.6672C11.9723 14.024 11.5475 13.1297 11.5162 12.1377C11.424 12.131 11.3324 12.1233 11.238 12.1233H8.72414C6.63167 12.1233 4.92932 13.8257 4.92932 15.9181V18.994L4.93698 19.0415L5.14874 19.1083C6.75058 19.6088 8.18049 19.8386 9.42194 19.9115V18.9827C9.42255 16.9457 10.7829 15.221 12.6431 14.6672Z" fill="#283341"/>
<path d="M16.4391 15.1833H13.9243C11.8319 15.1833 10.1295 16.8862 10.1295 18.9778V22.0537L10.1375 22.1018L10.3489 22.168C12.3458 22.7916 14.0806 23 15.5081 23C18.2971 23 19.9134 22.2048 20.0133 22.1542L20.2112 22.0537H20.2321V18.9778C20.233 16.8856 18.531 15.1833 16.4391 15.1833Z" fill="#283341"/>
<path d="M5.05216 9.03428C5.5005 9.03428 5.92371 8.93162 6.30433 8.75357C6.42385 7.60283 7.07874 6.61145 8.01312 6.02551C7.9886 4.41019 6.67361 3.10715 5.05216 3.10715C3.41477 3.10715 2.08844 4.43379 2.08844 6.07087C2.08844 7.70764 3.41477 9.03428 5.05216 9.03428Z" fill="#283341"/>
<path d="M7.4168 11.7804C6.74322 11.1341 6.31694 10.2347 6.28997 9.23592H3.79452C1.70205 9.23622 0 10.9386 0 13.0307V16.1066H0.0211453L0.219115 16.2068C0.31289 16.254 1.73269 16.9524 4.19658 17.0428V16.0953C4.19658 14.0583 5.55693 12.3336 7.4168 11.7804Z" fill="#283341"/>
<path d="M8.51822 5.70157C8.8737 5.55754 9.41613 5.38071 9.93404 5.38071C10.5368 5.38071 11.1264 5.53578 11.6523 5.83089C11.7694 5.71597 11.8766 5.59094 11.9741 5.45702C11.4746 4.8009 11.2018 3.99677 11.2018 3.16965C11.2018 2.61251 11.3263 2.05967 11.5635 1.55739C11.0235 1.06952 10.3346 0.803207 9.60245 0.803207C8.26999 0.803207 7.11006 1.7051 6.77051 2.97535C7.76587 3.55455 8.41433 4.56708 8.51822 5.70157Z" fill="#283341"/>
<path d="M18.1166 5.2894C18.2196 5.45304 18.34 5.60719 18.4767 5.75061C18.9634 5.5079 19.4984 5.38041 20.0372 5.38041C20.567 5.38041 21.0748 5.51586 21.4077 5.62925C21.5118 4.39945 22.2556 3.31399 23.369 2.76391C22.9608 1.59785 21.8557 0.801987 20.6044 0.801987C19.7954 0.801987 19.0293 1.13418 18.4761 1.7189C18.6704 2.18226 18.7688 2.66921 18.7688 3.16843C18.7685 3.93303 18.5435 4.66178 18.1166 5.2894Z" fill="#283341"/>
</svg>
