<svg width="23" height="23" viewBox="0 0 23 23" fill="none" xmlns="http://www.w3.org/2000/svg">
<path d="M11.5 19.0345C12.3761 19.0345 13.0862 18.3243 13.0862 17.4483C13.0862 16.5722 12.3761 15.8621 11.5 15.8621C10.624 15.8621 9.91382 16.5722 9.91382 17.4483C9.91382 18.3243 10.624 19.0345 11.5 19.0345Z" fill="#283341"/>
<path d="M1.58621 16.1357V14.2759H2.37931V15.391C2.72986 15.1875 3.13553 15.069 3.56897 15.069C4.60278 15.069 5.48193 15.7324 5.80948 16.6552H9.25948C9.44983 16.1194 9.82536 15.6725 10.3103 15.391V14.2759H11.1034V15.1046C11.2327 15.0828 11.3648 15.069 11.5 15.069C11.9303 15.069 12.3332 15.1855 12.6817 15.3862C12.6409 14.1922 11.8311 13.1401 10.6764 12.8102L7.84221 12.0004C7.63164 12.629 7.04355 13.0862 6.34483 13.0862C5.6461 13.0862 5.05802 12.629 4.84705 12.0004L2.0129 12.8102C0.828 13.1489 0 14.2461 0 15.479V16.6552H1.32845C1.39388 16.4708 1.47953 16.2963 1.58621 16.1357Z" fill="#283341"/>
<path d="M3.56899 19.0345C4.44503 19.0345 5.1552 18.3243 5.1552 17.4483C5.1552 16.5722 4.44503 15.8621 3.56899 15.8621C2.69296 15.8621 1.98279 16.5722 1.98279 17.4483C1.98279 18.3243 2.69296 19.0345 3.56899 19.0345Z" fill="#283341"/>
<path d="M3.56898 19.8276C1.73492 19.8276 0.220096 21.2179 0.0222168 23H7.11613C6.91785 21.2179 5.40303 19.8276 3.56898 19.8276Z" fill="#283341"/>
<path d="M9.51725 6.34483V6.89366C9.51725 7.24739 9.47839 7.59437 9.40662 7.93104H9.51725C9.95465 7.93104 10.3104 7.57533 10.3104 7.13794C10.3104 6.70054 9.95465 6.34483 9.51725 6.34483Z" fill="#283341"/>
<path d="M10.0113 19.3018C9.46926 18.8652 9.12069 18.197 9.12069 17.4483H5.94827C5.94827 18.197 5.5997 18.8652 5.05762 19.3018C6.15765 19.7031 7.05069 20.5323 7.53448 21.5903C8.01827 20.5323 8.91131 19.7031 10.0113 19.3018Z" fill="#283341"/>
<path d="M2.37933 7.13794C2.37933 7.57533 2.73504 7.93104 3.17244 7.93104H3.28307C3.2113 7.59437 3.17244 7.24739 3.17244 6.89366V6.34483C2.73504 6.34483 2.37933 6.70054 2.37933 7.13794Z" fill="#283341"/>
<path d="M8.72414 6.89365V6.34482H8.41958C7.25214 6.34482 6.0946 5.95898 5.16033 5.25827C4.93389 5.08815 4.57819 5.14882 4.42076 5.38477L3.96552 6.06843V6.89405C3.96552 8.51277 4.89384 9.97565 6.34483 10.6684C7.79581 9.97525 8.72414 8.51237 8.72414 6.89365Z" fill="#283341"/>
<path d="M6.18856 11.4679C5.96609 11.3727 5.75394 11.2621 5.5517 11.1384V11.5C5.5517 11.9374 5.9074 12.2931 6.3448 12.2931C6.7822 12.2931 7.1379 11.9374 7.1379 11.5V11.1384C6.93566 11.2621 6.72311 11.3727 6.50104 11.4679L6.3448 11.5349L6.18856 11.4679Z" fill="#283341"/>
<path d="M2.47451 5.72065C2.68627 5.61596 2.92103 5.55172 3.17244 5.55172H3.35684L3.76132 4.94539C4.00441 4.58017 4.41167 4.36207 4.85065 4.36207C5.1322 4.36207 5.41137 4.45486 5.63622 4.62419C6.43448 5.22219 7.42268 5.55172 8.41962 5.55172H9.51727C9.76868 5.55172 10.0034 5.61596 10.2152 5.72065L10.4504 5.4855C10.6181 5.27096 10.7069 5.01994 10.7069 4.75862C10.7069 4.21772 10.3381 3.74543 9.81032 3.611L9.49863 3.53129L9.51846 3.14624C9.51687 2.38565 8.73329 1.75038 7.90925 2.06325L7.56981 2.19213L7.41158 1.86538C7.21053 1.4486 6.80168 1.18965 6.34486 1.18965C5.88803 1.18965 5.47918 1.4486 5.27813 1.86538L5.12031 2.19253L4.78086 2.06365C3.95643 1.75038 3.17244 2.3801 3.17244 3.17241C3.17244 3.17201 3.17284 3.17162 3.17284 3.17162C3.17482 3.17162 3.17681 3.19065 3.1776 3.21008L3.19108 3.53169L2.87939 3.61139C2.35158 3.74543 1.98279 4.21772 1.98279 4.75862C1.98279 5.02034 2.07162 5.27096 2.23936 5.4855L2.47451 5.72065Z" fill="#283341"/>
<path d="M11.5 19.8276C9.66595 19.8276 8.15113 21.2179 7.95325 23H15.0472C14.8489 21.2179 13.3341 19.8276 11.5 19.8276Z" fill="#283341"/>
<path d="M19.4311 19.0345C20.3071 19.0345 21.0173 18.3243 21.0173 17.4483C21.0173 16.5722 20.3071 15.8621 19.4311 15.8621C18.555 15.8621 17.8448 16.5722 17.8448 17.4483C17.8448 18.3243 18.555 19.0345 19.4311 19.0345Z" fill="#283341"/>
<path d="M19.431 19.8276C17.597 19.8276 16.0822 21.2179 15.8843 23H22.9782C22.7799 21.2179 21.2651 19.8276 19.431 19.8276Z" fill="#283341"/>
<path d="M21.8103 3.96552H18.2414V6.83496L17.1873 8.94343C17.0101 9.29715 16.6544 9.51724 16.2586 9.51724C15.8628 9.51724 15.5071 9.29715 15.3299 8.94343L14.2758 6.83496V3.96552H13.8793C13.2234 3.96552 12.6896 4.49927 12.6896 5.15517V9.91379C12.6896 10.5697 13.2234 11.1034 13.8793 11.1034H16.2586V13.3003C16.2586 13.4443 16.4497 13.5331 16.5596 13.4391L19.2843 11.1034H21.8103C22.4662 11.1034 23 10.5697 23 9.91379V5.15517C23 4.49927 22.4662 3.96552 21.8103 3.96552ZM20.6207 10.3103H19.8276V9.51724H20.6207V10.3103ZM22.2069 10.3103H21.4138V9.51724H22.2069V10.3103ZM22.2069 8.72414H19.0345V7.93103H22.2069V8.72414ZM22.2069 7.13793H19.0345V6.34483H22.2069V7.13793ZM22.2069 5.55172H19.0345V4.75862H22.2069V5.55172Z" fill="#283341"/>
<path d="M17.4483 1.18966C17.4483 0.533759 16.9145 0 16.2586 0C15.6027 0 15.069 0.533759 15.069 1.18966V1.58621H17.4483V1.18966Z" fill="#283341"/>
<path d="M16.0393 8.58851C16.123 8.75586 16.3942 8.75586 16.4775 8.58851L17.2032 7.13792H15.314L16.0393 8.58851Z" fill="#283341"/>
<path d="M16.6552 2.3793H17.4483V6.34482H16.6552V2.3793Z" fill="#283341"/>
<path d="M15.069 2.3793H15.8621V6.34482H15.069V2.3793Z" fill="#283341"/>
</svg>
